<svg width="207" height="188" viewBox="0 0 207 188" fill="none" xmlns="http://www.w3.org/2000/svg">
<path d="M203.282 17.5505L98.5923 0.6291C96.0741 0.222061 93.7027 1.93378 93.2957 4.45233L73.0916 129.478C72.6846 131.997 74.3962 134.369 76.9144 134.776L181.604 151.697C184.122 152.104 186.494 150.392 186.901 147.874L207.105 22.8477C207.512 20.3291 205.8 17.9575 203.282 17.5505Z" fill="#FCFCFF" stroke="#F0BD78" stroke-width="0.722049" stroke-miterlimit="10"/>
<path d="M184.225 69.5111L99.6694 56.0871C99.4088 56.0457 99.164 56.2235 99.1226 56.4841L98.7469 58.8509C98.7056 59.1116 98.8833 59.3564 99.1439 59.3977L183.699 72.8217C183.96 72.8631 184.205 72.6854 184.246 72.4247L184.622 70.0579C184.663 69.7973 184.485 69.5525 184.225 69.5111Z" fill="#D0D0D8"/>
<path d="M182.825 78.3129L98.2696 64.8889C98.009 64.8475 97.7642 65.0252 97.7228 65.2859L97.3472 67.6527C97.3058 67.9133 97.4835 68.1581 97.7441 68.1995L182.3 81.6235C182.56 81.6649 182.805 81.4871 182.846 81.2265L183.222 78.8597C183.263 78.599 183.086 78.3542 182.825 78.3129Z" fill="#D0D0D8"/>
<path d="M181.596 87.891L96.8382 74.1912C96.577 74.149 96.331 74.3265 96.2888 74.5878L95.9054 76.9603C95.8632 77.2215 96.0407 77.4675 96.3019 77.5098L181.06 91.2095C181.321 91.2518 181.567 91.0742 181.609 90.813L181.993 88.4404C182.035 88.1792 181.858 87.9332 181.596 87.891Z" fill="#D0D0D8"/>
<path d="M180.033 95.9183L95.4775 82.4943C95.2169 82.453 94.9721 82.6307 94.9307 82.8913L94.555 85.2582C94.5137 85.5188 94.6914 85.7636 94.952 85.805L179.508 99.2289C179.768 99.2703 180.013 99.0926 180.054 98.832L180.43 96.4651C180.471 96.2045 180.294 95.9597 180.033 95.9183Z" fill="#D0D0D8"/>
<path d="M178.633 104.721L94.0774 91.2971C93.8168 91.2557 93.5721 91.4334 93.5307 91.6941L93.155 94.0609C93.1136 94.3215 93.2914 94.5663 93.552 94.6077L178.107 108.032C178.368 108.073 178.613 107.895 178.654 107.635L179.03 105.268C179.071 105.007 178.894 104.762 178.633 104.721Z" fill="#D0D0D8"/>
<path d="M146.271 108.652L92.68 100.144C92.4194 100.103 92.1746 100.281 92.1332 100.541L91.7576 102.908C91.7162 103.169 91.8939 103.414 92.1545 103.455L145.745 111.963C146.006 112.004 146.251 111.827 146.292 111.566L146.668 109.199C146.709 108.938 146.531 108.694 146.271 108.652Z" fill="#D0D0D8"/>
<path d="M175.129 128.161L127.23 120.556C126.969 120.515 126.725 120.693 126.683 120.953L125.807 126.476C125.765 126.737 125.943 126.981 126.204 127.023L174.103 134.627C174.364 134.669 174.608 134.491 174.65 134.23L175.526 128.708C175.568 128.447 175.39 128.202 175.129 128.161Z" fill="#FF9200"/>
<path d="M125.917 34.0061C125.681 35.483 124.983 36.8471 123.923 37.9027C122.864 38.9583 121.497 39.6511 120.02 39.8816L120.609 36.1488L116.571 35.5067L115.966 39.3067C114.814 38.7723 113.828 37.9371 113.111 36.8891C112.393 35.8411 111.972 34.6191 111.891 33.3517C111.809 32.0843 112.071 30.8184 112.649 29.6874C113.227 28.5564 114.098 27.6021 115.173 26.9249C116.247 26.2478 117.484 25.873 118.754 25.8398C120.023 25.8067 121.278 26.1165 122.386 26.7366C123.494 27.3568 124.415 28.2643 125.051 29.3636C125.686 30.4629 126.014 31.7134 125.999 32.9833C125.997 33.3258 125.97 33.6677 125.917 34.0061Z" fill="#F0BD78"/>
<path d="M126.223 33.0207L112.428 30.8258C112.938 29.2121 114.01 27.8352 115.45 26.9456C116.889 26.056 118.6 25.713 120.271 25.9788C121.942 26.2447 123.462 27.1019 124.555 28.3943C125.647 29.6867 126.239 31.3285 126.223 33.0207Z" fill="#1A193C"/>
<path d="M125.999 32.9832L112.204 30.7958C112.714 29.1828 113.785 27.8063 115.224 26.9167C116.663 26.0272 118.373 25.6836 120.043 25.9485C121.714 26.2134 123.234 27.0692 124.327 28.3602C125.42 29.6512 126.013 31.2917 125.999 32.9832Z" fill="#3B3973"/>
<path d="M121.99 34.8421L123.685 31.4229L122.849 35.2154L121.99 34.8421Z" fill="#F0BD78"/>
<path d="M125.536 45.8243L125.17 48.1387C124.693 48.3402 124.2 48.5119 123.678 48.6687C123.155 48.8255 122.886 48.8927 122.483 48.9823L123.543 42.2632L124.327 42.3901C124.447 42.4273 124.56 42.4827 124.663 42.5543C125.126 42.8903 125.872 43.7414 125.536 45.8243Z" fill="#C27713"/>
<path d="M111.637 40.3893L110.607 46.8918C110.248 46.6679 109.905 46.429 109.569 46.1453C109.233 45.8616 108.733 45.4808 108.345 45.1225L108.666 43.1142C108.987 41.0612 109.965 40.4863 110.48 40.3146C110.595 40.2756 110.716 40.2554 110.838 40.2549L111.637 40.3893Z" fill="#C27713"/>
<path d="M124.663 42.5543L123.692 48.6463C123.304 48.7657 122.901 48.8702 122.498 48.9598C118.411 49.855 114.136 49.104 110.599 46.8694C110.241 46.6455 109.897 46.4066 109.562 46.1229L110.48 40.3146C110.595 40.2756 110.716 40.2554 110.838 40.2549L124.334 42.3975C124.451 42.4331 124.562 42.486 124.663 42.5543Z" fill="#FF9200"/>
<path d="M120.609 36.1487L119.758 41.5463C119.714 41.8553 119.601 42.1502 119.426 42.4089C119.252 42.6675 119.021 42.8831 118.751 43.0395C118.349 43.2781 117.876 43.368 117.414 43.2933C116.951 43.224 116.527 42.9909 116.22 42.6363C116.012 42.411 115.858 42.1413 115.77 41.8476C115.682 41.554 115.663 41.2441 115.712 40.9416L116.571 35.5439L120.609 36.1487Z" fill="#F0BD78"/>
<path d="M120.02 39.8814V40.0157C119.295 40.1314 118.557 40.1314 117.833 40.0157C117.187 39.9131 116.56 39.7222 115.966 39.4483V39.314C116.559 39.5888 117.187 39.7797 117.833 39.8814C118.557 39.9933 119.295 39.9933 120.02 39.8814Z" fill="#C27713"/>
<path d="M126.391 34.6565C126.489 34.0335 126.216 33.4724 125.781 33.4032C125.345 33.334 124.912 33.783 124.813 34.4061C124.714 35.0291 124.987 35.5903 125.423 35.6594C125.858 35.7286 126.292 35.2796 126.391 34.6565Z" fill="#F0BD78"/>
<path d="M112.894 32.5184C112.993 31.8953 112.72 31.3342 112.284 31.265C111.848 31.1958 111.415 31.6448 111.316 32.2679C111.217 32.8909 111.49 33.4521 111.926 33.5212C112.361 33.5904 112.795 33.1414 112.894 32.5184Z" fill="#F0BD78"/>
<path d="M119.079 17.6189C122.75 17.6151 126.309 18.8847 129.149 21.2114C131.988 23.538 133.933 26.7777 134.652 30.378C135.37 33.9783 134.818 37.7164 133.089 40.9551C131.36 44.1938 128.562 46.7325 125.171 48.1385C124.693 48.3401 124.2 48.5118 123.678 48.6686C123.155 48.8253 122.886 48.8925 122.483 48.9821C120.545 49.4031 118.546 49.4613 116.586 49.1538C114.464 48.8222 112.431 48.06 110.614 46.9141C110.256 46.6902 109.913 46.4513 109.577 46.1676C109.241 45.8839 108.741 45.5031 108.352 45.1448C106.008 42.982 104.37 40.1627 103.652 37.0547C102.934 33.9467 103.169 30.6945 104.327 27.7223C105.486 24.7502 107.513 22.1964 110.144 20.394C112.776 18.5917 115.89 17.6246 119.079 17.6189ZM119.079 17.3726C115.839 17.376 112.674 18.357 110 20.1872C107.325 22.0174 105.265 24.6118 104.088 27.6315C102.911 30.6512 102.672 33.9557 103.402 37.1134C104.132 40.2712 105.797 43.1352 108.181 45.3314C108.576 45.6898 108.994 46.078 109.42 46.3691C109.845 46.6603 110.107 46.8693 110.48 47.1157C112.33 48.2946 114.404 49.0775 116.571 49.4151C118.555 49.731 120.581 49.6727 122.543 49.2434C122.954 49.1464 123.364 49.0418 123.76 48.9224C124.267 48.7697 124.765 48.5903 125.253 48.3849C128.694 46.9556 131.534 44.3771 133.288 41.0887C135.042 37.8003 135.602 34.0055 134.872 30.3506C134.142 26.6958 132.168 23.407 129.286 21.0447C126.403 18.6824 122.791 17.3925 119.064 17.395L119.079 17.3726Z" fill="#F0BD78"/>
<path d="M183.102 51.0509L142.649 44.6286C142.388 44.5872 142.143 44.765 142.102 45.0256L141.726 47.3924C141.685 47.6531 141.863 47.8979 142.123 47.9392L182.576 54.3616C182.837 54.4029 183.082 54.2252 183.123 53.9646L183.499 51.5977C183.54 51.3371 183.362 51.0923 183.102 51.0509Z" fill="#D0D0D8"/>
<path d="M189.787 33.8998L145.781 26.9133C145.52 26.8719 145.275 27.0497 145.234 27.3103L144.464 32.1619C144.422 32.4225 144.6 32.6674 144.861 32.7087L188.867 39.6952C189.128 39.7366 189.373 39.5588 189.414 39.2982L190.184 34.4466C190.225 34.1859 190.048 33.9411 189.787 33.8998Z" fill="#D0D0D8"/>
<path d="M172.274 39.438L144.487 35.0266C144.226 34.9852 143.981 35.1629 143.94 35.4236L143.17 40.2752C143.128 40.5358 143.306 40.7806 143.567 40.822L171.354 45.2335C171.614 45.2748 171.859 45.0971 171.9 44.8365L172.671 39.9848C172.712 39.7242 172.534 39.4794 172.274 39.438Z" fill="#D0D0D8"/>
<path d="M109.405 41.0019L4.35067 53.0841C1.82361 53.3747 0.0106048 55.6592 0.301208 58.1865L14.7273 183.649C15.018 186.176 17.3021 187.989 19.8292 187.698L124.884 175.616C127.411 175.326 129.224 173.041 128.933 170.514L114.507 45.0518C114.216 42.5245 111.932 40.7113 109.405 41.0019Z" fill="#FCFCFF" stroke="#F0BD78" stroke-width="0.72" stroke-miterlimit="10"/>
<path d="M105.59 96.6786L20.5368 106.461C20.2746 106.491 20.0866 106.728 20.1167 106.99L20.3905 109.371C20.4206 109.633 20.6575 109.821 20.9197 109.791L105.973 100.009C106.236 99.9786 106.424 99.7416 106.393 99.4795L106.12 97.0987C106.09 96.8365 105.853 96.6485 105.59 96.6786Z" fill="#D0D0D8"/>
<path d="M106.603 105.531L21.5491 115.313C21.287 115.343 21.0989 115.58 21.129 115.842L21.4028 118.223C21.4329 118.485 21.6699 118.673 21.932 118.643L106.986 108.861C107.248 108.831 107.436 108.594 107.406 108.332L107.132 105.951C107.102 105.689 106.865 105.501 106.603 105.531Z" fill="#D0D0D8"/>
<path d="M107.63 114.382L22.5762 124.164C22.3141 124.194 22.126 124.431 22.1561 124.693L22.4299 127.074C22.46 127.336 22.697 127.524 22.9591 127.494L108.013 117.712C108.275 117.682 108.463 117.445 108.433 117.183L108.159 114.802C108.129 114.54 107.892 114.352 107.63 114.382Z" fill="#D0D0D8"/>
<path d="M108.642 123.241L23.5884 133.023C23.3263 133.053 23.1382 133.29 23.1683 133.552L23.4421 135.933C23.4722 136.195 23.7092 136.383 23.9713 136.353L109.025 126.571C109.287 126.541 109.475 126.304 109.445 126.042L109.171 123.661C109.141 123.399 108.904 123.211 108.642 123.241Z" fill="#D0D0D8"/>
<path d="M109.654 132.093L24.6006 141.875C24.3385 141.905 24.1504 142.142 24.1806 142.404L24.4543 144.785C24.4845 145.047 24.7214 145.235 24.9835 145.205L110.037 135.423C110.299 135.393 110.487 135.156 110.457 134.894L110.184 132.513C110.153 132.251 109.916 132.063 109.654 132.093Z" fill="#D0D0D8"/>
<path d="M79.5345 144.577L25.6278 150.777C25.3657 150.807 25.1776 151.044 25.2078 151.306L25.4815 153.687C25.5117 153.949 25.7486 154.137 26.0107 154.107L79.9174 147.907C80.1795 147.877 80.3676 147.64 80.3374 147.378L80.0637 144.997C80.0335 144.735 79.7966 144.547 79.5345 144.577Z" fill="#D0D0D8"/>
<path d="M112.578 155.615L64.3967 161.156C64.1346 161.186 63.9466 161.423 63.9767 161.686L64.6155 167.241C64.6456 167.503 64.8825 167.691 65.1447 167.661L113.326 162.12C113.588 162.089 113.776 161.852 113.746 161.59L113.107 156.035C113.077 155.773 112.84 155.585 112.578 155.615Z" fill="#FF9200"/>
<path d="M31.442 73.492C31.442 73.492 32.4124 69.9458 35.5551 69.356C36.5762 69.1802 37.6268 69.3406 38.5489 69.8132C39.471 70.2857 40.2148 71.0449 40.6686 71.9764C40.9597 72.5961 41.0194 75.336 41.8181 75.9706C42.3183 76.3737 44.0053 77.0904 44.6623 76.7918C44.6623 76.7918 43.9606 78.703 42.1541 78.912C39.6608 79.1957 38.4216 78.6507 36.3315 76.1423C35.1038 74.6619 33.3523 73.7126 31.442 73.492Z" fill="#FF9200"/>
<path d="M39.8848 78.1431C40.0557 79.6276 39.751 81.1281 39.0145 82.4282C38.278 83.7283 37.1477 84.761 35.7866 85.3774L35.3536 81.6445L31.2853 82.1149L31.7257 85.9298C30.2108 85.6815 28.8183 84.9457 27.7594 83.8342C26.7005 82.7226 26.0331 81.2959 25.8583 79.7706C25.8212 79.4286 25.8063 79.0844 25.8136 78.7404C25.8644 77.0443 26.5242 75.4233 27.6721 74.1738C28.8201 72.9243 30.3794 72.1299 32.065 71.9359C33.7505 71.742 35.4495 72.1614 36.8512 73.1176C38.2528 74.0737 39.2635 75.5025 39.6982 77.1427C39.7833 77.4715 39.8456 77.8058 39.8848 78.1431Z" fill="#F0BD78"/>
<path d="M39.9219 77.105L26.0448 78.7027C26.1015 77.0112 26.7638 75.3963 27.9109 74.152C29.058 72.9078 30.6138 72.1169 32.295 71.9233C33.9762 71.7298 35.6709 72.1464 37.0708 73.0975C38.4706 74.0485 39.4824 75.4707 39.9219 77.105Z" fill="#C27713"/>
<path d="M39.6981 77.1276L25.8135 78.7253C25.8644 77.0292 26.5241 75.4081 27.672 74.1586C28.82 72.9091 30.3793 72.1148 32.0649 71.9208C33.7504 71.7269 35.4494 72.1463 36.8511 73.1024C38.2528 74.0585 39.2634 75.4874 39.6981 77.1276Z" fill="#FF9200"/>
<path d="M27.9186 78.7176L28.6277 74.9624L28.8442 78.8371L27.9186 78.7176Z" fill="#F0BD78"/>
<path d="M42.6989 89.6253L42.9676 91.9546C42.5571 92.2756 42.1316 92.5743 41.6912 92.858C41.2507 93.1417 40.9895 93.2835 40.6237 93.4776L39.8772 86.7585L40.6685 86.6689C40.7886 86.6754 40.907 86.7006 41.0193 86.7436C41.512 86.9153 42.46 87.5275 42.6989 89.6253Z" fill="#1A193C"/>
<path d="M27.8514 88.0947L28.5979 94.6346C28.1948 94.5077 27.7992 94.3733 27.411 94.2166C27.0229 94.0598 26.4257 93.8059 25.9554 93.567L25.724 91.5439C25.4851 89.4535 26.2689 88.6323 26.7317 88.3411C26.8333 88.2736 26.9438 88.2208 27.0602 88.1843L27.8514 88.0947Z" fill="#1A193C"/>
<path d="M40.9895 86.7285L41.6912 92.8578C41.3478 93.0743 40.9895 93.2833 40.6238 93.4774C36.9283 95.4429 32.6063 95.8695 28.5979 94.6645C28.1948 94.5375 27.7992 94.4032 27.411 94.2464L26.7317 88.3709C26.8332 88.3034 26.9438 88.2506 27.0601 88.2141L40.6387 86.6538C40.7588 86.6603 40.8772 86.6855 40.9895 86.7285Z" fill="#3B3973"/>
<path d="M35.3536 81.6294L35.9807 87.0569C36.0151 87.3615 35.9806 87.6699 35.8799 87.9594C35.7791 88.2488 35.6145 88.5119 35.3984 88.7292C35.0769 89.0682 34.6459 89.2824 34.1816 89.334C33.6469 89.3826 33.1141 89.2212 32.6962 88.884C32.2782 88.5468 32.0078 88.0603 31.9422 87.5273L31.2853 82.1221L35.3536 81.6294Z" fill="#F0BD78"/>
<path d="M35.7866 85.3774V85.5193C35.1195 85.8217 34.4092 86.0182 33.6815 86.1016C33.0306 86.1767 32.3725 86.1616 31.7257 86.0568V85.915C33.1027 86.1387 34.5152 85.9518 35.7866 85.3774Z" fill="#C27713"/>
<path d="M39.8583 79.8672C40.2965 79.8168 40.5934 79.2679 40.5213 78.6412C40.4493 78.0145 40.0356 77.5473 39.5973 77.5977C39.1591 77.6481 38.8623 78.197 38.9343 78.8237C39.0064 79.4504 39.4201 79.9176 39.8583 79.8672Z" fill="#F0BD78"/>
<path d="M26.2781 81.4307C26.7163 81.3803 27.0132 80.8314 26.9411 80.2047C26.8691 79.578 26.4554 79.1108 26.0171 79.1612C25.5789 79.2116 25.2821 79.7605 25.3541 80.3872C25.4262 81.0139 25.8399 81.4811 26.2781 81.4307Z" fill="#F0BD78"/>
<path d="M33.1962 63.5998C36.5001 63.5977 39.7222 64.6274 42.4128 66.5452C45.1033 68.463 47.1279 71.1732 48.204 74.2973C49.28 77.4215 49.3539 80.8037 48.4151 83.9718C47.4764 87.1399 45.5719 89.9358 42.9676 91.9692C42.5571 92.2902 42.1316 92.5889 41.6911 92.8726C41.2507 93.1563 40.9895 93.2981 40.6237 93.4922C38.871 94.4239 36.9594 95.0189 34.9877 95.2466C34.3779 95.3147 33.7649 95.3496 33.1514 95.3512C31.609 95.3495 30.075 95.1231 28.5978 94.6793C28.1947 94.5523 27.7991 94.418 27.4109 94.2612C27.0227 94.1044 26.4255 93.8506 25.9553 93.6117C22.9329 92.056 20.4901 89.5706 18.9869 86.5216C17.4837 83.4726 16.9995 80.0213 17.6057 76.6763C18.2119 73.3313 19.8765 70.2696 22.3541 67.9422C24.8317 65.6148 27.9913 64.1449 31.3673 63.7491C31.9745 63.681 32.5851 63.6461 33.1962 63.6445V63.5998ZM33.1962 63.4056C32.5811 63.3865 31.9654 63.4039 31.3523 63.4579C27.9176 63.8548 24.7016 65.3465 22.1799 67.7124C19.6582 70.0783 17.9646 73.1929 17.3493 76.5957C16.7341 79.9986 17.23 83.5091 18.7637 86.6083C20.2973 89.7076 22.7874 92.2311 25.8657 93.8058C26.336 94.0447 26.8287 94.2686 27.3587 94.4702C27.8887 94.6718 28.1499 94.7614 28.568 94.8883C30.0661 95.3423 31.6233 95.5712 33.1887 95.5677C33.8123 95.57 34.4355 95.5351 35.0549 95.4632C37.0561 95.2379 38.9965 94.6349 40.773 93.6863C41.1537 93.4847 41.5195 93.2757 41.8628 93.0517C42.3086 92.7677 42.7396 92.4613 43.1543 92.1335C45.7907 90.0647 47.7161 87.2247 48.6619 84.0095C49.6078 80.7943 49.5271 77.364 48.4309 74.1969C47.3348 71.0298 45.2779 68.2836 42.547 66.3412C39.8161 64.3988 36.5473 63.3569 33.1962 63.3609V63.4056Z" fill="#F0BD78"/>
<path d="M99.5432 79.1962L58.8518 83.8761C58.5897 83.9062 58.4016 84.1432 58.4318 84.4053L58.7055 86.7861C58.7357 87.0483 58.9726 87.2364 59.2347 87.2062L99.9261 82.5263C100.188 82.4962 100.376 82.2592 100.346 81.9971L100.072 79.6163C100.042 79.3541 99.8054 79.1661 99.5432 79.1962Z" fill="#D0D0D8"/>
<path d="M101.38 60.8862L57.1145 65.9772C56.8524 66.0073 56.6643 66.2443 56.6945 66.5064L57.2556 71.3866C57.2858 71.6488 57.5227 71.8369 57.7848 71.8067L102.051 66.7158C102.313 66.6856 102.501 66.4487 102.471 66.1865L101.91 61.3063C101.879 61.0441 101.643 60.856 101.38 60.8862Z" fill="#D0D0D8"/>
<path d="M86.0005 70.9217L58.0497 74.1363C57.7876 74.1665 57.5995 74.4034 57.6297 74.6656L58.1908 79.5458C58.2209 79.808 58.4579 79.9961 58.72 79.9659L86.6708 76.7513C86.9329 76.7212 87.121 76.4842 87.0908 76.2221L86.5297 71.3418C86.4995 71.0797 86.2626 70.8916 86.0005 70.9217Z" fill="#D0D0D8"/>
</svg>
