<svg xmlns="http://www.w3.org/2000/svg" xmlns:xlink="http://www.w3.org/1999/xlink" viewBox="0 0 31.3 27.47"><defs><style>.cls-1{fill:#1a193c;}.cls-2{fill:#414042;}.cls-3{fill:#fff;}.cls-4{fill:url(#linear-gradient);}.cls-5{fill:#ffd500;}</style><linearGradient id="linear-gradient" x1="5.81" y1="7.25" x2="27.92" y2="7.25" gradientUnits="userSpaceOnUse"><stop offset="0" stop-color="#ffd500"/><stop offset="1" stop-color="#ff9200"/></linearGradient></defs><g id="Layer_2" data-name="Layer 2"><g id="Layer_1-2" data-name="Layer 1"><path class="cls-1" d="M27.92,5.54C23.17,5.05,22,2,21.81,0a15,15,0,0,1,9.44,2.61S32,2.86,27.92,5.54Z"/><path class="cls-2" d="M13.93,14.27a24.85,24.85,0,0,0-2,4.75l-.72,2.29s-3.55,2.34-3.9-2.63a56.18,56.18,0,0,0-.9-5.94c-.45-1.65-2.31-3.5.36-5.58A9.22,9.22,0,0,1,7.91,6.4h0c1.69.75,4.68,2.15,4.72,5.21a3.06,3.06,0,0,0,1.11,2.54Z"/><path class="cls-3" d="M13.93,14.27a24.85,24.85,0,0,0-2,4.75l-.72,2.29s-3.55,2.34-3.9-2.63a56.18,56.18,0,0,0-.9-5.94c-.45-1.65-2.31-3.5.36-5.58A9.22,9.22,0,0,1,7.91,6.4h0c1.69.75,4.68,2.15,4.72,5.21a3.06,3.06,0,0,0,1.11,2.54Z"/><path class="cls-1" d="M14.51,14.5c-1,1.62-2.29,4.86-3.32,11.22v.05c-.09.54-.18,1.11-.26,1.7H0V16a6.42,6.42,0,0,0,2.27-3.71A24,24,0,0,1,2.9,9.14a4.39,4.39,0,0,1,1-2,21.41,21.41,0,0,1,2-1.44h0a5.76,5.76,0,0,1,1,.25l.36.12.25.09c.17.06.35.13.52.21a9.22,9.22,0,0,0-1.15.76C4.09,9.24,6,11.1,6.4,12.74a21.34,21.34,0,0,1,.42,2.16c.06.38.12.78.17,1.17s.11.8.15,1.15c.11.85.17,1.46.17,1.46,0,.32.06.61.1.87s.11.5.17.71a2.66,2.66,0,0,0,.59,1.06,1.51,1.51,0,0,0,.23.21l.13.08.13.07a2.94,2.94,0,0,0,2.54-.37L11.92,19c.06-.19.12-.38.19-.58.13-.39.28-.79.43-1.19.24-.61.5-1.23.78-1.82.2-.4.4-.79.61-1.16l.21.12h0l.3.09Z"/><path class="cls-4" d="M27.92,5.54c-2,1.29-5.05,3.15-9.86,5.81a13.25,13.25,0,0,0-3.55,3.15h0l-.19,0-.11-.06h0l-.21-.12-.18-.12a3.06,3.06,0,0,1-1.11-2.54c0-3.06-3-4.46-4.72-5.21h0l-.52-.21L7.14,6.1,6.78,6a8.81,8.81,0,0,0-1-.24h0L6,5.63C10.5,2.62,16.31.2,21.81,0,22,2,23.17,5.05,27.92,5.54Z"/><circle class="cls-5" cx="7.82" cy="9.09" r="1.54"/><circle class="cls-1" cx="7.82" cy="9.09" r="0.9"/></g></g></svg>