
<svg width="33" height="32" viewBox="0 0 33 32" fill="none" xmlns="http://www.w3.org/2000/svg">
<g clip-path="url(#clip0)">
<path d="M16.6865 32C25.5231 32 32.6865 24.8366 32.6865 16C32.6865 7.16344 25.5231 0 16.6865 0C7.84997 0 0.686523 7.16344 0.686523 16C0.686523 24.8366 7.84997 32 16.6865 32Z" fill="#A5A5A5"/>
<path d="M16.6866 6.26074L29.904 15.9999L16.6866 25.739L3.46924 15.9999L16.6866 6.26074Z" fill="white"/>
<path d="M16.6865 21.5649C19.7601 21.5649 22.2517 19.0733 22.2517 15.9998C22.2517 12.9262 19.7601 10.4346 16.6865 10.4346C13.613 10.4346 11.1213 12.9262 11.1213 15.9998C11.1213 19.0733 13.613 21.5649 16.6865 21.5649Z" fill="#F0F0F0"/>
<path d="M13.9039 15.6519C12.9361 15.6519 12.0022 15.799 11.123 16.0722C11.162 19.1122 13.6372 21.5649 16.6865 21.5649C18.572 21.5649 20.2372 20.6264 21.2439 19.1919C19.5216 17.0359 16.8715 15.6519 13.9039 15.6519Z" fill="#B4B4B4"/>
<path d="M22.1484 17.066C22.2154 16.7208 22.2516 16.3646 22.2516 15.9998C22.2516 12.9261 19.76 10.4346 16.6864 10.4346C14.393 10.4346 12.4243 11.8221 11.5723 13.8033C12.3254 13.6472 13.1051 13.565 13.9038 13.565C17.1361 13.5649 20.0603 14.9086 22.1484 17.066Z" fill="#B4B4B4"/>
</g>
<defs>
<clipPath id="clip0">
<rect width="32" height="32" fill="white" transform="translate(0.686523)"/>
</clipPath>
</defs>
</svg>