<svg width="33" height="32" viewBox="0 0 33 32" fill="none" xmlns="http://www.w3.org/2000/svg">
<g clip-path="url(#clip0)">
<path d="M16.5 32C25.1633 32 32.1863 24.8366 32.1863 16C32.1863 7.16344 25.1633 0 16.5 0C7.8367 0 0.813721 7.16344 0.813721 16C0.813721 24.8366 7.8367 32 16.5 32Z" fill="#F0F0F0"/>
<path d="M15.8181 16.0001H32.1863C32.1863 14.556 31.9976 13.157 31.6459 11.8262H15.8181V16.0001Z" fill="#D8D8D8"/>
<path d="M15.8181 7.65245H29.884C28.9238 6.0542 27.696 4.64152 26.2645 3.47852H15.8181V7.65245Z" fill="#D8D8D8"/>
<path d="M16.5 32.0002C20.1917 32.0002 23.5849 30.6987 26.2645 28.522H6.73553C9.41507 30.6987 12.8083 32.0002 16.5 32.0002Z" fill="#D8D8D8"/>
<path d="M3.11614 24.3478H29.884C30.6549 23.0647 31.2528 21.6622 31.646 20.1738H1.35419C1.74739 21.6622 2.34524 23.0647 3.11614 24.3478Z" fill="#D8D8D8"/>
<path d="M8.0799 2.49863H9.50937L8.17971 3.48394L8.68762 5.07825L7.35802 4.09294L6.02843 5.07825L6.46715 3.70094C5.29644 4.69562 4.27034 5.861 3.42475 7.1595H3.88278L3.03639 7.78669C2.90453 8.01106 2.77806 8.239 2.65686 8.47031L3.06102 9.73913L2.30698 9.18031C2.11954 9.58537 1.9481 9.99956 1.79399 10.4224L2.23927 11.8204H3.88278L2.55312 12.8057L3.06102 14.4L1.73143 13.4147L0.934983 14.0049C0.855265 14.6586 0.813721 15.3243 0.813721 16H16.5C16.5 7.1635 16.5 6.12175 16.5 0C13.4012 0 10.5126 0.916875 8.0799 2.49863ZM8.68762 14.4L7.35802 13.4147L6.02843 14.4L6.53633 12.8057L5.20667 11.8204H6.85018L7.35802 10.2261L7.86587 11.8204H9.50937L8.17971 12.8057L8.68762 14.4ZM8.17971 8.14481L8.68762 9.73913L7.35802 8.75381L6.02843 9.73913L6.53633 8.14481L5.20667 7.1595H6.85018L7.35802 5.56519L7.86587 7.1595H9.50937L8.17971 8.14481ZM14.3142 14.4L12.9846 13.4147L11.655 14.4L12.1629 12.8057L10.8333 11.8204H12.4768L12.9846 10.2261L13.4925 11.8204H15.136L13.8063 12.8057L14.3142 14.4ZM13.8063 8.14481L14.3142 9.73913L12.9846 8.75381L11.655 9.73913L12.1629 8.14481L10.8333 7.1595H12.4768L12.9846 5.56519L13.4925 7.1595H15.136L13.8063 8.14481ZM13.8063 3.48394L14.3142 5.07825L12.9846 4.09294L11.655 5.07825L12.1629 3.48394L10.8333 2.49863H12.4768L12.9846 0.904312L13.4925 2.49863H15.136L13.8063 3.48394Z" fill="#B4B4B4"/>
</g>
<defs>
<clipPath id="clip0">
<rect width="31.3725" height="32" fill="white" transform="translate(0.813721)"/>
</clipPath>
</defs>
</svg>