<svg width="184" height="193" viewBox="0 0 184 193" fill="none" xmlns="http://www.w3.org/2000/svg">
<g clip-path="url(#clip0)">
<path d="M91.9998 176.673C133.802 176.673 167.69 142.752 167.69 100.909C167.69 59.0654 133.802 25.1445 91.9998 25.1445C50.1975 25.1445 16.3101 59.0654 16.3101 100.909C16.3101 142.752 50.1975 176.673 91.9998 176.673Z" stroke="#FFD500" stroke-width="2" stroke-miterlimit="10" stroke-dasharray="12 12"/>
<path d="M92 192.745C142.669 192.745 183.745 151.629 183.745 100.91C183.745 50.1904 142.669 9.07422 92 9.07422C41.3306 9.07422 0.254883 50.1904 0.254883 100.91C0.254883 151.629 41.3306 192.745 92 192.745Z" stroke="#FFD500" stroke-width="2" stroke-miterlimit="10" stroke-dasharray="12 12"/>
<path d="M153.403 130.167C153.404 125.008 151.482 120.033 148.013 116.218C144.543 112.402 139.776 110.019 134.645 109.536C129.513 109.053 124.386 110.504 120.266 113.606C116.147 116.707 113.332 121.236 112.373 126.305L48.7651 124.578L49.4634 135.516C49.4634 135.516 40.3934 156.465 88.0626 162.047V183.22H143.171V148.016C146.283 146.192 148.864 143.585 150.659 140.454C152.454 137.323 153.4 133.777 153.403 130.167V130.167Z" fill="url(#paint0_linear)"/>
<path d="M51.6476 135.975C51.6476 135.975 42.9624 156.036 88.6133 161.388V181.673H141.39V127.952L50.9697 125.498L51.6476 135.975Z" fill="#BE7C5E"/>
<path d="M78.0244 52.2593C76.6483 54.433 74.4687 55.9732 71.9617 56.5434C69.4548 57.1136 66.8243 56.6676 64.6449 55.3027L36.3084 36.6116C34.1369 35.2341 32.5982 33.0524 32.0285 30.543C31.4589 28.0336 31.9045 25.4005 33.268 23.2189V23.2189C34.6441 21.0481 36.8218 19.5099 39.3262 18.9398C41.8307 18.3697 44.4588 18.8139 46.6374 20.1756L74.9739 38.8667C77.1471 40.2425 78.6878 42.4235 79.2594 44.933C79.831 47.4426 79.387 50.0765 78.0244 52.2593V52.2593Z" fill="url(#paint1_linear)"/>
<path d="M76.4542 51.239C75.1751 53.2595 73.1491 54.6911 70.8189 55.2212C68.4887 55.7512 66.0435 55.3367 64.0177 54.068L37.669 36.6805C35.6505 35.4001 34.2203 33.3721 33.6907 31.0396C33.1612 28.7071 33.5753 26.2596 34.8427 24.2317V24.2317C36.1219 22.2112 38.1478 20.7796 40.4781 20.2495C42.8083 19.7195 45.2534 20.134 47.2793 21.4027L73.6229 38.78C75.645 40.0597 77.0783 42.0892 77.6089 44.4242C78.1396 46.7593 77.7244 49.2097 76.4542 51.239V51.239Z" fill="#BE7C5E"/>
<path d="M131.371 150.69C142.317 150.69 151.191 141.808 151.191 130.851C151.191 119.894 142.317 111.012 131.371 111.012C120.425 111.012 111.552 119.894 111.552 130.851C111.552 141.808 120.425 150.69 131.371 150.69Z" fill="#BE7C5E"/>
<path d="M127.803 0H51.8792C50.155 0 48.7573 1.39909 48.7573 3.12496V145.332C48.7573 147.058 50.155 148.457 51.8792 148.457H127.803C129.528 148.457 130.925 147.058 130.925 145.332V3.12496C130.925 1.39909 129.528 0 127.803 0Z" fill="url(#paint2_linear)"/>
<path d="M126.335 2.00781H53.3418C51.422 2.00781 49.8657 3.56566 49.8657 5.48736V142.975C49.8657 144.897 51.422 146.455 53.3418 146.455H126.335C128.255 146.455 129.811 144.897 129.811 142.975V5.48736C129.811 3.56566 128.255 2.00781 126.335 2.00781Z" fill="#F7F7FB"/>
<path d="M109.923 5.62988C109.692 7.16175 108.921 8.56018 107.749 9.57224C106.577 10.5843 105.082 11.1431 103.534 11.1477H75.9241C74.3768 11.1425 72.8824 10.5834 71.7111 9.57141C70.5398 8.55941 69.7688 7.16132 69.5376 5.62988H54.9094C54.5106 5.62955 54.1156 5.70789 53.747 5.86042C53.3785 6.01296 53.0436 6.2367 52.7615 6.51886C52.4794 6.80102 52.2556 7.13606 52.1029 7.50484C51.9502 7.87362 51.8716 8.26891 51.8716 8.66811V139.789C51.8712 140.188 51.9495 140.583 52.1019 140.952C52.2543 141.321 52.4778 141.656 52.7597 141.939C53.0416 142.221 53.3763 142.445 53.7447 142.598C54.1131 142.751 54.508 142.83 54.9068 142.83H124.771C125.17 142.83 125.565 142.752 125.933 142.599C126.302 142.447 126.637 142.223 126.919 141.941C127.201 141.658 127.425 141.323 127.577 140.955C127.73 140.586 127.809 140.191 127.809 139.791V8.67066C127.809 8.27146 127.731 7.87611 127.578 7.5072C127.426 7.13829 127.202 6.80306 126.92 6.52066C126.639 6.23827 126.304 6.01424 125.935 5.8614C125.567 5.70856 125.172 5.62988 124.773 5.62988H109.923Z" fill="#3B3973"/>
<path d="M98.3511 7.35645H81.5541C81.2726 7.35645 81.0444 7.58487 81.0444 7.86664V7.96103C81.0444 8.2428 81.2726 8.47123 81.5541 8.47123H98.3511C98.6326 8.47123 98.8608 8.2428 98.8608 7.96103V7.86664C98.8608 7.58487 98.6326 7.35645 98.3511 7.35645Z" fill="#DBDBDB"/>
<path d="M102.645 8.47148C103.014 8.47148 103.312 8.17225 103.312 7.80312C103.312 7.434 103.014 7.13477 102.645 7.13477C102.276 7.13477 101.977 7.434 101.977 7.80312C101.977 8.17225 102.276 8.47148 102.645 8.47148Z" fill="#DBDBDB"/>
<path d="M144.183 134.35C138.431 135.681 134.483 131.926 133.153 126.171L119.936 77.0469C119.305 74.2716 119.796 71.3588 121.302 68.9447C122.809 66.5305 125.208 64.8111 127.977 64.1619V64.1619C130.749 63.5295 133.659 64.021 136.071 65.529C138.483 67.0369 140.201 69.4388 140.849 72.2102L151.634 122.602C152.965 128.36 149.932 133.018 144.183 134.35Z" fill="url(#paint3_linear)"/>
<path d="M139.366 73.4131C138.245 68.5551 133.402 65.5268 128.548 66.6493C123.695 67.7717 120.67 72.6198 121.791 77.4778L133.944 130.128C135.065 134.986 139.909 138.015 144.762 136.892C149.615 135.77 152.641 130.922 151.519 126.064L139.366 73.4131Z" fill="#BE7C5E"/>
<path d="M151.107 175.036H75.6719V192.638H151.107V175.036Z" fill="url(#paint4_linear)"/>
<path d="M149.068 177.076H77.7109V190.852H149.068V177.076Z" fill="#706F98"/>
<path d="M67.0247 104.958C65.6653 107.105 63.5119 108.627 61.035 109.191C58.5581 109.754 55.9591 109.314 53.8057 107.965L34.8017 95.6568C32.6561 94.296 31.1356 92.1405 30.5726 89.6612C30.0096 87.1819 30.4498 84.5803 31.7971 82.4248V82.4248C33.1565 80.277 35.3099 78.7551 37.7868 78.1915C40.2637 77.628 42.8627 78.0686 45.016 79.4172L64.02 91.7257C66.1657 93.0864 67.6861 95.2419 68.2491 97.7213C68.8121 100.201 68.3719 102.802 67.0247 104.958V104.958Z" fill="url(#paint5_linear)"/>
<path d="M62.2544 131.012C60.8829 133.179 58.71 134.715 56.2107 135.284C53.7113 135.853 51.0886 135.408 48.9157 134.047L37.1443 125.456C34.9789 124.083 33.4444 121.908 32.8762 119.406C32.3079 116.904 32.7521 114.279 34.1116 112.104V112.104C35.4831 109.936 37.6559 108.4 40.1553 107.831C42.6547 107.263 45.2774 107.707 47.4503 109.068L59.2217 117.662C61.3864 119.035 62.9203 121.21 63.4885 123.711C64.0568 126.212 63.6131 128.837 62.2544 131.012Z" fill="url(#paint6_linear)"/>
<g opacity="0.5">
<path opacity="0.5" d="M89.839 97.1752C102.498 97.1752 112.76 86.9031 112.76 74.2317C112.76 61.5603 102.498 51.2881 89.839 51.2881C77.1801 51.2881 66.918 61.5603 66.918 74.2317C66.918 86.9031 77.1801 97.1752 89.839 97.1752Z" fill="url(#paint7_linear)"/>
</g>
<path d="M89.839 95.8259C101.753 95.8259 111.412 86.1579 111.412 74.2318C111.412 62.3057 101.753 52.6377 89.839 52.6377C77.9246 52.6377 68.2661 62.3057 68.2661 74.2318C68.2661 86.1579 77.9246 95.8259 89.839 95.8259Z" fill="#FF9200"/>
<path d="M80.4756 71.3487L88.5645 78.772L100.025 61.9023L104.072 65.2773L88.5645 85.5219L77.104 72.7007L80.4756 71.3487Z" fill="#F7F7FB"/>
<path d="M61.3036 130.371C60.0245 132.391 57.9985 133.823 55.6683 134.353C53.338 134.883 50.8929 134.469 48.867 133.2L37.8882 125.2C35.8697 123.92 34.4395 121.892 33.91 119.559C33.3804 117.227 33.7946 114.779 35.0619 112.751V112.751C36.3411 110.731 38.3671 109.299 40.6973 108.769C43.0275 108.239 45.4726 108.654 47.4985 109.922L58.4748 117.937C60.4895 119.217 61.9172 121.242 62.4471 123.571C62.9769 125.9 62.5659 128.344 61.3036 130.371V130.371Z" fill="#BE7C5E"/>
<path d="M65.9798 104.282C64.7006 106.302 62.6747 107.734 60.3444 108.264C58.0142 108.794 55.5691 108.379 53.5432 107.111L35.6631 95.5292C33.6446 94.2488 32.2144 92.2208 31.6849 89.8883C31.1553 87.5557 31.5695 85.1082 32.8368 83.0803V83.0803C34.116 81.0599 36.142 79.6283 38.4722 79.0982C40.8024 78.5681 43.2475 78.9827 45.2734 80.2513L63.1535 91.8328C65.172 93.1132 66.6022 95.1412 67.1318 97.4737C67.6613 99.8062 67.2472 102.254 65.9798 104.282Z" fill="#BE7C5E"/>
<path d="M71.9382 79.0274C70.5721 81.1847 68.4086 82.7132 65.9204 83.2791C63.4322 83.845 60.8213 83.4023 58.6581 82.0478L34.575 66.3516C32.4198 64.9841 30.8929 62.8186 30.3275 60.3279C29.7621 57.8372 30.2044 55.2238 31.5576 53.0584C32.9237 50.9011 35.0871 49.3726 37.5753 48.8067C40.0636 48.2408 42.6744 48.6835 44.8377 50.038L68.9208 65.7342C71.0759 67.1017 72.6029 69.2673 73.1683 71.7579C73.7336 74.2486 73.2914 76.862 71.9382 79.0274Z" fill="url(#paint8_linear)"/>
<path d="M70.6592 78.211C69.38 80.2315 67.3541 81.6631 65.0238 82.1932C62.6936 82.7232 60.2485 82.3087 58.2226 81.0401L35.666 66.3387C33.6476 65.0583 32.2174 63.0303 31.6878 60.6978C31.1582 58.3653 31.5724 55.9178 32.8398 53.8899V53.8899C34.1189 51.8694 36.1449 50.4378 38.4751 49.9077C40.8054 49.3777 43.2505 49.7922 45.2764 51.0609L67.8304 65.7622C69.8493 67.0422 71.28 69.07 71.81 71.4025C72.3401 73.7351 71.9263 76.1828 70.6592 78.211V78.211Z" fill="#BE7C5E"/>
</g>
<defs>
<linearGradient id="paint0_linear" x1="101.088" y1="183.233" x2="101.088" y2="109.448" gradientUnits="userSpaceOnUse">
<stop stop-color="#808080" stop-opacity="0.25"/>
<stop offset="0.54" stop-color="#808080" stop-opacity="0.12"/>
<stop offset="1" stop-color="#808080" stop-opacity="0.1"/>
</linearGradient>
<linearGradient id="paint1_linear" x1="21854.4" y1="11248.3" x2="21854.4" y2="5560.16" gradientUnits="userSpaceOnUse">
<stop stop-color="#808080" stop-opacity="0.25"/>
<stop offset="0.54" stop-color="#808080" stop-opacity="0.12"/>
<stop offset="1" stop-color="#808080" stop-opacity="0.1"/>
</linearGradient>
<linearGradient id="paint2_linear" x1="48591.8" y1="97099.3" x2="48591.8" y2="10703.2" gradientUnits="userSpaceOnUse">
<stop stop-color="#808080" stop-opacity="0.25"/>
<stop offset="0.54" stop-color="#808080" stop-opacity="0.12"/>
<stop offset="1" stop-color="#808080" stop-opacity="0.1"/>
</linearGradient>
<linearGradient id="paint3_linear" x1="25033.9" y1="42493.1" x2="25033.9" y2="22883.6" gradientUnits="userSpaceOnUse">
<stop stop-color="#808080" stop-opacity="0.25"/>
<stop offset="0.54" stop-color="#808080" stop-opacity="0.12"/>
<stop offset="1" stop-color="#808080" stop-opacity="0.1"/>
</linearGradient>
<linearGradient id="paint4_linear" x1="51607.7" y1="14719.6" x2="51607.7" y2="13505.1" gradientUnits="userSpaceOnUse">
<stop stop-color="#808080" stop-opacity="0.25"/>
<stop offset="0.54" stop-color="#808080" stop-opacity="0.12"/>
<stop offset="1" stop-color="#808080" stop-opacity="0.1"/>
</linearGradient>
<linearGradient id="paint5_linear" x1="16546.4" y1="15854.5" x2="16546.4" y2="11970.1" gradientUnits="userSpaceOnUse">
<stop stop-color="#808080" stop-opacity="0.25"/>
<stop offset="0.54" stop-color="#808080" stop-opacity="0.12"/>
<stop offset="1" stop-color="#808080" stop-opacity="0.1"/>
</linearGradient>
<linearGradient id="paint6_linear" x1="13343.6" y1="16966.3" x2="13343.6" y2="13906.5" gradientUnits="userSpaceOnUse">
<stop stop-color="#808080" stop-opacity="0.25"/>
<stop offset="0.54" stop-color="#808080" stop-opacity="0.12"/>
<stop offset="1" stop-color="#808080" stop-opacity="0.1"/>
</linearGradient>
<linearGradient id="paint7_linear" x1="16227.1" y1="17531.1" x2="16227.1" y2="9276.44" gradientUnits="userSpaceOnUse">
<stop stop-color="#808080" stop-opacity="0.25"/>
<stop offset="0.54" stop-color="#808080" stop-opacity="0.12"/>
<stop offset="1" stop-color="#808080" stop-opacity="0.1"/>
</linearGradient>
<linearGradient id="paint8_linear" x1="19180.1" y1="14017.5" x2="19180.1" y2="9227.93" gradientUnits="userSpaceOnUse">
<stop stop-color="#808080" stop-opacity="0.25"/>
<stop offset="0.54" stop-color="#808080" stop-opacity="0.12"/>
<stop offset="1" stop-color="#808080" stop-opacity="0.1"/>
</linearGradient>
<clipPath id="clip0">
<rect width="184" height="193" fill="white"/>
</clipPath>
</defs>
</svg>
