<svg width="120" height="120" viewBox="0 0 120 120" fill="none" xmlns="http://www.w3.org/2000/svg">
<path d="M93.1096 5.22018L15.1064 14.21C13.23 14.4263 11.8839 16.126 12.0997 18.0065L22.8111 111.357C23.0269 113.238 24.7229 114.587 26.5992 114.371L104.602 105.381C106.479 105.164 107.825 103.465 107.609 101.584L96.8977 8.23353C96.6819 6.35305 94.9859 5.00393 93.1096 5.22018Z" fill="#FCFCFF" stroke="#F0BD78" stroke-width="0.72" stroke-miterlimit="10"/>
<path d="M90.277 46.6459L27.1244 53.9242C26.9298 53.9467 26.7902 54.123 26.8126 54.318L27.0158 56.0895C27.0382 56.2845 27.2141 56.4245 27.4088 56.402L90.5613 49.1237C90.7559 49.1013 90.8956 48.925 90.8732 48.7299L90.6699 46.9585C90.6475 46.7634 90.4716 46.6235 90.277 46.6459Z" fill="#D0D0D8"/>
<path d="M91.0285 53.2319L27.876 60.5102C27.6814 60.5326 27.5417 60.7089 27.5641 60.904L27.7674 62.6754C27.7898 62.8705 27.9657 63.0104 28.1603 62.988L91.3129 55.7097C91.5075 55.6872 91.6471 55.5109 91.6247 55.3159L91.4215 53.5444C91.3991 53.3494 91.2232 53.2094 91.0285 53.2319Z" fill="#D0D0D8"/>
<path d="M91.7911 59.8178L28.6386 67.0961C28.4439 67.1185 28.3043 67.2948 28.3267 67.4899L28.53 69.2613C28.5523 69.4564 28.7283 69.5963 28.9229 69.5739L92.0754 62.2956C92.27 62.2732 92.4097 62.0969 92.3873 61.9018L92.184 60.1304C92.1616 59.9353 91.9857 59.7954 91.7911 59.8178Z" fill="#D0D0D8"/>
<path d="M92.5427 66.4096L29.3901 73.6879C29.1955 73.7103 29.0559 73.8866 29.0783 74.0817L29.2815 75.8531C29.3039 76.0482 29.4798 76.1881 29.6744 76.1657L92.827 68.8874C93.0216 68.865 93.1613 68.6887 93.1389 68.4936L92.9356 66.7222C92.9132 66.5271 92.7373 66.3872 92.5427 66.4096Z" fill="#D0D0D8"/>
<path d="M93.2946 72.9955L30.1421 80.2738C29.9475 80.2963 29.8078 80.4726 29.8302 80.6676L30.0335 82.4391C30.0559 82.6341 30.2318 82.7741 30.4264 82.7516L93.5789 75.4733C93.7736 75.4509 93.9132 75.2746 93.8908 75.0795L93.6876 73.3081C93.6652 73.113 93.4893 72.9731 93.2946 72.9955Z" fill="#D0D0D8"/>
<path d="M70.93 82.2859L30.9043 86.8988C30.7096 86.9213 30.57 87.0976 30.5924 87.2926L30.7956 89.0641C30.818 89.2591 30.9939 89.3991 31.1886 89.3766L71.2144 84.7637C71.409 84.7413 71.5486 84.5649 71.5262 84.3699L71.323 82.5985C71.3006 82.4034 71.1247 82.2635 70.93 82.2859Z" fill="#D0D0D8"/>
<path d="M95.465 90.4985L59.6901 94.6215C59.4955 94.6439 59.3558 94.8202 59.3782 95.0153L59.8525 99.1486C59.8749 99.3437 60.0508 99.4836 60.2454 99.4612L96.0203 95.3382C96.2149 95.3157 96.3546 95.1394 96.3322 94.9444L95.8579 90.811C95.8355 90.616 95.6596 90.476 95.465 90.4985Z" fill="#FF9200"/>
<path d="M34.9428 29.3031C34.9428 29.3031 35.7011 26.6034 38.1571 26.1544C38.955 26.0205 39.776 26.1427 40.4966 26.5024C41.2172 26.8622 41.7985 27.4401 42.1531 28.1493C42.3806 28.621 42.4273 30.7069 43.0515 31.19C43.4423 31.4969 44.7607 32.0426 45.2741 31.8152C45.2741 31.8152 44.7257 33.2702 43.314 33.4293C41.3656 33.6453 40.3972 33.2304 38.7638 31.3207C37.8044 30.1938 36.4356 29.471 34.9428 29.3031Z" fill="#FF9200"/>
<path d="M41.5507 32.916C41.6758 34.0084 41.4529 35.1125 40.9139 36.0691C40.375 37.0258 39.548 37.7857 38.552 38.2393L38.2352 35.4925L35.2584 35.8386L35.5806 38.6458C34.4722 38.463 33.4532 37.9216 32.6784 37.1037C31.9036 36.2858 31.4152 35.236 31.2874 34.1136C31.2603 33.8619 31.2493 33.6087 31.2546 33.3555C31.2919 32.1075 31.7746 30.9146 32.6146 29.9952C33.4545 29.0758 34.5955 28.4912 35.8289 28.3485C37.0622 28.2058 38.3054 28.5145 39.331 29.218C40.3566 29.9216 41.0961 30.973 41.4142 32.1799C41.4765 32.4218 41.5221 32.6678 41.5507 32.916Z" fill="#F0BD78"/>
<path d="M41.5847 32.271L31.2533 33.4801C31.2956 32.2 31.7886 30.9779 32.6426 30.0362C33.4966 29.0946 34.6549 28.496 35.9065 28.3495C37.1581 28.2031 38.4198 28.5184 39.462 29.2381C40.5041 29.9579 41.2574 31.0342 41.5847 32.271Z" fill="#C27713"/>
<path d="M41.5847 32.2754L31.2533 33.4801C31.2912 32.2012 31.7821 30.9789 32.6363 30.0367C33.4904 29.0946 34.6507 28.4956 35.9049 28.3494C37.1591 28.2031 38.4233 28.5194 39.4663 29.2403C40.5092 29.9613 41.2612 31.0387 41.5847 32.2754Z" fill="#FF9200"/>
<path d="M32.7292 33.3901L33.2946 30.5293L33.4671 33.4811L32.7292 33.3901Z" fill="#F0BD78"/>
<path d="M43.6057 41.6278L43.7982 43.395C43.504 43.6385 43.1992 43.8651 42.8837 44.0803C42.5682 44.2955 42.3811 44.4032 42.1191 44.5504L41.5843 39.4527L42.1511 39.3848C42.2372 39.3897 42.322 39.4088 42.4025 39.4414C42.7554 39.5717 43.4345 40.0361 43.6057 41.6278Z" fill="#1A193C"/>
<path d="M32.9009 40.123L33.4672 45.2887C33.1614 45.1885 32.8612 45.0823 32.5668 44.9585C32.2723 44.8346 31.8192 44.6342 31.4625 44.4455L31.2869 42.8474C31.1057 41.1963 31.7003 40.5476 32.0514 40.3176C32.1285 40.2643 32.2123 40.2226 32.3006 40.1938L32.9009 40.123Z" fill="#1A193C"/>
<path d="M42.5411 39.4355L43.0603 43.6029C42.8063 43.7501 42.5411 43.8923 42.2705 44.0242C39.536 45.3606 36.3379 45.6506 33.372 44.8313C33.0737 44.745 32.7809 44.6537 32.4937 44.5471L31.9911 40.5522C32.0662 40.5064 32.148 40.4705 32.2341 40.4457L42.2815 39.3848C42.3704 39.3892 42.458 39.4063 42.5411 39.4355Z" fill="#3B3973"/>
<path d="M38.131 35.6953L38.6224 39.3303C38.6494 39.5343 38.6224 39.7408 38.5434 39.9347C38.4644 40.1285 38.3355 40.3047 38.1661 40.4503C37.9142 40.6773 37.5764 40.8207 37.2125 40.8553C36.7935 40.8879 36.376 40.7798 36.0484 40.554C35.7209 40.3281 35.509 40.0023 35.4576 39.6453L34.9428 36.0253L38.131 35.6953Z" fill="#F0BD78"/>
<path d="M38.6327 37.9082V38.044C38.1478 38.3334 37.6315 38.5214 37.1025 38.6012C36.6294 38.6731 36.151 38.6587 35.6809 38.5584V38.4226C36.6818 38.6368 37.7085 38.4578 38.6327 37.9082Z" fill="#C27713"/>
<path d="M41.4708 34.1364C41.7961 34.0989 42.0166 33.6905 41.9631 33.2241C41.9095 32.7578 41.6024 32.4102 41.277 32.4477C40.9516 32.4852 40.7312 32.8936 40.7847 33.36C40.8382 33.8263 41.1454 34.1739 41.4708 34.1364Z" fill="#F0BD78"/>
<path d="M31.3877 35.3004C31.7131 35.2629 31.9335 34.8545 31.88 34.3882C31.8265 33.9219 31.5193 33.5743 31.194 33.6118C30.8686 33.6493 30.6481 34.0577 30.7016 34.524C30.7552 34.9903 31.0623 35.3379 31.3877 35.3004Z" fill="#F0BD78"/>
<path d="M36.4129 21.8545C38.8341 21.8529 41.1953 22.6315 43.167 24.0816C45.1386 25.5317 46.6223 27.5809 47.4109 29.9432C48.1994 32.3054 48.2535 34.8628 47.5656 37.2583C46.8777 39.6538 45.4821 41.7678 43.5736 43.3053C43.2727 43.548 42.9609 43.7738 42.6382 43.9883C42.3154 44.2028 42.124 44.3101 41.8559 44.4569C40.5716 45.1613 39.1707 45.6113 37.7258 45.7834C37.279 45.8349 36.8297 45.8613 36.3801 45.8625C35.2498 45.8612 34.1257 45.69 33.0432 45.3544C32.7478 45.2584 32.4579 45.1568 32.1734 45.0383C31.889 44.9197 31.4513 44.7278 31.1067 44.5472C28.8919 43.3709 27.1018 41.4916 26.0002 39.1862C24.8986 36.8808 24.5438 34.2712 24.988 31.742C25.4323 29.2128 26.6521 26.8977 28.4677 25.1379C30.2833 23.3781 32.5987 22.2667 35.0727 21.9674C35.5177 21.9159 35.9651 21.8895 36.4129 21.8883V21.8545ZM36.4129 21.7077C35.9622 21.6932 35.511 21.7064 35.0618 21.7472C32.5447 22.0473 30.188 23.1752 28.3401 24.9641C26.4921 26.7531 25.251 29.1081 24.8002 31.681C24.3493 34.254 24.7127 36.9084 25.8366 39.2518C26.9605 41.5952 28.7852 43.5033 31.0411 44.694C31.3857 44.8746 31.7467 45.0439 32.1351 45.1964C32.5235 45.3488 32.715 45.4165 33.0213 45.5125C34.1192 45.8557 35.2603 46.0288 36.4075 46.0262C36.8644 46.0279 37.3211 46.0015 37.775 45.9471C39.2416 45.7768 40.6635 45.3209 41.9653 44.6036C42.2443 44.4512 42.5124 44.2932 42.764 44.1238C43.0906 43.9091 43.4065 43.6773 43.7104 43.4295C45.6424 41.8652 47.0533 39.7179 47.7465 37.2868C48.4396 34.8557 48.3804 32.262 47.5772 29.8672C46.7739 27.4725 45.2666 25.3961 43.2654 23.9274C41.2641 22.4586 38.8687 21.6709 36.4129 21.6738V21.7077Z" fill="#F0BD78"/>
<path d="M85.7866 33.6375L55.5732 37.1195C55.3785 37.142 55.2389 37.3183 55.2613 37.5133L55.4646 39.2848C55.4869 39.4798 55.6629 39.6198 55.8575 39.5973L86.0709 36.1153C86.2656 36.0928 86.4052 35.9165 86.3828 35.7215L86.1796 33.95C86.1572 33.755 85.9813 33.615 85.7866 33.6375Z" fill="#D0D0D8"/>
<path d="M87.1513 20.0152L54.2838 23.8031C54.0892 23.8256 53.9495 24.0019 53.9719 24.1969L54.3886 27.8281C54.411 28.0232 54.5869 28.1631 54.7815 28.1407L87.649 24.3527C87.8436 24.3303 87.9833 24.154 87.9609 23.9589L87.5442 20.3277C87.5219 20.1327 87.3459 19.9927 87.1513 20.0152Z" fill="#D0D0D8"/>
<path d="M75.7315 27.4816L54.978 29.8734C54.7833 29.8959 54.6437 30.0722 54.6661 30.2672L55.0827 33.8984C55.1051 34.0935 55.281 34.2334 55.4757 34.211L76.2292 31.8191C76.4238 31.7967 76.5634 31.6204 76.5411 31.4253L76.1244 27.7942C76.102 27.5991 75.9261 27.4592 75.7315 27.4816Z" fill="#D0D0D8"/>
</svg>
