<svg width="228" height="132" viewBox="0 0 228 132" fill="none" xmlns="http://www.w3.org/2000/svg">
<path d="M171.862 4.80128V115.198C171.862 117.761 170.067 119.846 167.851 119.846H4.17155C1.95616 119.846 0.1604 117.761 0.1604 115.198V4.80128C0.1604 2.23763 1.95616 0.159668 4.17155 0.159668H167.851C170.067 0.159668 171.862 2.23763 171.862 4.80128Z" fill="#FCFCFF" stroke="#F0BD78" stroke-width="0.51" stroke-miterlimit="10"/>
<path d="M171.862 4.80128V13.6419H0.1604V4.80128C0.1604 2.23763 1.95616 0.159668 4.17155 0.159668H167.851C170.067 0.159668 171.862 2.23763 171.862 4.80128Z" fill="#FF9200"/>
<path d="M6.90525 8.19475C7.471 8.19475 7.92963 7.66627 7.92963 7.01437C7.92963 6.36246 7.471 5.83398 6.90525 5.83398C6.33949 5.83398 5.88086 6.36246 5.88086 7.01437C5.88086 7.66627 6.33949 8.19475 6.90525 8.19475Z" fill="#FCFCFF"/>
<path d="M11.1942 8.19475C11.7599 8.19475 12.2186 7.66627 12.2186 7.01437C12.2186 6.36246 11.7599 5.83398 11.1942 5.83398C10.6284 5.83398 10.1698 6.36246 10.1698 7.01437C10.1698 7.66627 10.6284 8.19475 11.1942 8.19475Z" fill="#FCFCFF"/>
<path d="M15.4891 8.19475C16.0549 8.19475 16.5135 7.66627 16.5135 7.01437C16.5135 6.36246 16.0549 5.83398 15.4891 5.83398C14.9234 5.83398 14.4647 6.36246 14.4647 7.01437C14.4647 7.66627 14.9234 8.19475 15.4891 8.19475Z" fill="#FCFCFF"/>
<path d="M227.87 74.2223V78.6918C227.87 80.043 227.603 81.381 227.084 82.6292C226.565 83.8775 225.804 85.0116 224.844 85.9668C223.885 86.922 222.746 87.6794 221.493 88.196C220.24 88.7125 218.896 88.9779 217.54 88.9771H212.819C213.557 92.0487 214.742 94.9961 216.337 97.7255C210.61 96.582 206.105 91.9527 203.729 88.9771H134.614C133.256 88.9812 131.91 88.7181 130.654 88.203C129.398 87.688 128.256 86.931 127.294 85.9755C126.332 85.02 125.569 83.8848 125.048 82.6349C124.527 81.3851 124.259 80.0451 124.259 78.6918V74.2346C124.258 72.8824 124.524 71.5431 125.042 70.2934C125.561 69.0437 126.321 67.9081 127.281 66.9517C128.24 65.9952 129.38 65.2366 130.634 64.7193C131.888 64.2021 133.232 63.9362 134.59 63.937H217.54C218.896 63.9362 220.24 64.2016 221.493 64.7182C222.746 65.2347 223.885 65.9922 224.844 66.9473C225.804 67.9025 226.565 69.0366 227.084 70.2849C227.603 71.5332 227.87 72.8711 227.87 74.2223Z" fill="#F9EEE1" stroke="#F0BD78" stroke-width="0.42" stroke-miterlimit="10"/>
<path d="M163.204 79.362C164.881 79.362 166.241 78.0078 166.241 76.3372C166.241 74.6667 164.881 73.3125 163.204 73.3125C161.528 73.3125 160.168 74.6667 160.168 76.3372C160.168 78.0078 161.528 79.362 163.204 79.362Z" fill="#706F98"/>
<path d="M175.948 79.362C177.624 79.362 178.984 78.0078 178.984 76.3372C178.984 74.6667 177.624 73.3125 175.948 73.3125C174.271 73.3125 172.911 74.6667 172.911 76.3372C172.911 78.0078 174.271 79.362 175.948 79.362Z" fill="#706F98"/>
<path d="M188.691 79.362C190.367 79.362 191.727 78.0078 191.727 76.3372C191.727 74.6667 190.367 73.3125 188.691 73.3125C187.014 73.3125 185.655 74.6667 185.655 76.3372C185.655 78.0078 187.014 79.362 188.691 79.362Z" fill="#706F98"/>
<path d="M101.371 108.38V112.837C101.371 114.188 101.638 115.525 102.157 116.773C102.676 118.021 103.436 119.155 104.395 120.11C105.354 121.065 106.492 121.823 107.744 122.34C108.997 122.856 110.339 123.123 111.695 123.123H116.422C115.692 126.193 114.516 129.14 112.929 131.871C118.65 130.727 123.155 126.098 125.53 123.123H194.652C196.008 123.123 197.35 122.856 198.603 122.34C199.855 121.823 200.993 121.065 201.952 120.11C202.911 119.155 203.671 118.021 204.19 116.773C204.709 115.525 204.976 114.188 204.976 112.837V108.38C204.976 107.029 204.709 105.692 204.19 104.444C203.671 103.196 202.911 102.062 201.952 101.107C200.993 100.152 199.855 99.3945 198.603 98.8777C197.35 98.3608 196.008 98.0947 194.652 98.0947H111.695C108.957 98.0947 106.331 99.1784 104.395 101.107C102.459 103.036 101.371 105.652 101.371 108.38Z" fill="#E6E6EF" stroke="#706F98" stroke-width="0.42" stroke-linejoin="round"/>
<path d="M140.483 113.692C142.16 113.692 143.519 112.337 143.519 110.667C143.519 108.996 142.16 107.642 140.483 107.642C138.806 107.642 137.447 108.996 137.447 110.667C137.447 112.337 138.806 113.692 140.483 113.692Z" fill="#FF9200"/>
<path d="M153.232 113.692C154.909 113.692 156.268 112.337 156.268 110.667C156.268 108.996 154.909 107.642 153.232 107.642C151.555 107.642 150.196 108.996 150.196 110.667C150.196 112.337 151.555 113.692 153.232 113.692Z" fill="#FF9200"/>
<path d="M165.975 113.692C167.652 113.692 169.011 112.337 169.011 110.667C169.011 108.996 167.652 107.642 165.975 107.642C164.298 107.642 162.939 108.996 162.939 110.667C162.939 112.337 164.298 113.692 165.975 113.692Z" fill="#FF9200"/>
<path d="M101.371 40.0654V44.5226C101.371 45.8732 101.638 47.2107 102.157 48.4586C102.676 49.7065 103.436 50.8403 104.395 51.7954C105.354 52.7505 106.492 53.5081 107.744 54.025C108.997 54.5418 110.339 54.8079 111.695 54.8079H116.422C115.685 57.8795 114.5 60.8269 112.905 63.5562C118.625 62.4127 123.13 57.7834 125.506 54.8079H178.194C179.55 54.8079 180.892 54.5418 182.145 54.025C183.397 53.5081 184.535 52.7505 185.494 51.7954C186.453 50.8403 187.213 49.7065 187.732 48.4586C188.251 47.2107 188.518 45.8732 188.518 44.5226V40.0654C188.518 37.337 187.43 34.7202 185.494 32.7904C183.558 30.8606 180.932 29.7756 178.194 29.7739H111.695C108.956 29.7756 106.33 30.8606 104.394 32.7904C102.458 34.7202 101.371 37.337 101.371 40.0654Z" fill="#E6E6EF" stroke="#706F98" stroke-width="0.42" stroke-linejoin="round"/>
<path d="M132.257 45.3771C133.934 45.3771 135.293 44.0229 135.293 42.3524C135.293 40.6819 133.934 39.3276 132.257 39.3276C130.58 39.3276 129.221 40.6819 129.221 42.3524C129.221 44.0229 130.58 45.3771 132.257 45.3771Z" fill="#FF9200"/>
<path d="M145 45.3771C146.677 45.3771 148.036 44.0229 148.036 42.3524C148.036 40.6819 146.677 39.3276 145 39.3276C143.323 39.3276 141.964 40.6819 141.964 42.3524C141.964 44.0229 143.323 45.3771 145 45.3771Z" fill="#FF9200"/>
<path d="M157.743 45.3771C159.42 45.3771 160.779 44.0229 160.779 42.3524C160.779 40.6819 159.42 39.3276 157.743 39.3276C156.066 39.3276 154.707 40.6819 154.707 42.3524C154.707 44.0229 156.066 45.3771 157.743 45.3771Z" fill="#FF9200"/>
<path d="M9.63901 19.4883H8.25054C8.03241 19.4883 7.85559 19.6644 7.85559 19.8817V21.5478C7.85559 21.7651 8.03241 21.9413 8.25054 21.9413H9.63901C9.85713 21.9413 10.034 21.7651 10.034 21.5478V19.8817C10.034 19.6644 9.85713 19.4883 9.63901 19.4883Z" fill="#D0D0D8"/>
<path d="M9.63901 23.8286H8.25054C8.03241 23.8286 7.85559 24.0048 7.85559 24.2221V25.8881C7.85559 26.1054 8.03241 26.2816 8.25054 26.2816H9.63901C9.85713 26.2816 10.034 26.1054 10.034 25.8881V24.2221C10.034 24.0048 9.85713 23.8286 9.63901 23.8286Z" fill="#D0D0D8"/>
<path d="M9.63901 28.1689H8.25054C8.03241 28.1689 7.85559 28.3451 7.85559 28.5624V30.2285C7.85559 30.4458 8.03241 30.6219 8.25054 30.6219H9.63901C9.85713 30.6219 10.034 30.4458 10.034 30.2285V28.5624C10.034 28.3451 9.85713 28.1689 9.63901 28.1689Z" fill="#D0D0D8"/>
<path d="M9.63901 32.6079H8.25054C8.03241 32.6079 7.85559 32.7841 7.85559 33.0014V34.6674C7.85559 34.8847 8.03241 35.0609 8.25054 35.0609H9.63901C9.85713 35.0609 10.034 34.8847 10.034 34.6674V33.0014C10.034 32.7841 9.85713 32.6079 9.63901 32.6079Z" fill="#D0D0D8"/>
<path d="M9.63901 36.9482H8.25054C8.03241 36.9482 7.85559 37.1244 7.85559 37.3417V39.0078C7.85559 39.2251 8.03241 39.4012 8.25054 39.4012H9.63901C9.85713 39.4012 10.034 39.2251 10.034 39.0078V37.3417C10.034 37.1244 9.85713 36.9482 9.63901 36.9482Z" fill="#D0D0D8"/>
<path d="M9.63901 41.2827H8.25054C8.03241 41.2827 7.85559 41.4589 7.85559 41.6762V43.3422C7.85559 43.5595 8.03241 43.7357 8.25054 43.7357H9.63901C9.85713 43.7357 10.034 43.5595 10.034 43.3422V41.6762C10.034 41.4589 9.85713 41.2827 9.63901 41.2827Z" fill="#D0D0D8"/>
<path d="M9.63901 45.7212H8.25054C8.03241 45.7212 7.85559 45.8973 7.85559 46.1147V47.7807C7.85559 47.998 8.03241 48.1742 8.25054 48.1742H9.63901C9.85713 48.1742 10.034 47.998 10.034 47.7807V46.1147C10.034 45.8973 9.85713 45.7212 9.63901 45.7212Z" fill="#D0D0D8"/>
<path d="M9.63901 50.0615H8.25054C8.03241 50.0615 7.85559 50.2377 7.85559 50.455V52.1211C7.85559 52.3384 8.03241 52.5145 8.25054 52.5145H9.63901C9.85713 52.5145 10.034 52.3384 10.034 52.1211V50.455C10.034 50.2377 9.85713 50.0615 9.63901 50.0615Z" fill="#D0D0D8"/>
<path d="M9.63901 54.4019H8.25054C8.03241 54.4019 7.85559 54.578 7.85559 54.7953V56.4614C7.85559 56.6787 8.03241 56.8548 8.25054 56.8548H9.63901C9.85713 56.8548 10.034 56.6787 10.034 56.4614V54.7953C10.034 54.578 9.85713 54.4019 9.63901 54.4019Z" fill="#D0D0D8"/>
<path d="M9.63901 58.8408H8.25054C8.03241 58.8408 7.85559 59.017 7.85559 59.2343V60.9003C7.85559 61.1176 8.03241 61.2938 8.25054 61.2938H9.63901C9.85713 61.2938 10.034 61.1176 10.034 60.9003V59.2343C10.034 59.017 9.85713 58.8408 9.63901 58.8408Z" fill="#D0D0D8"/>
<path d="M9.63901 63.1812H8.25054C8.03241 63.1812 7.85559 63.3573 7.85559 63.5746V65.2407C7.85559 65.458 8.03241 65.6341 8.25054 65.6341H9.63901C9.85713 65.6341 10.034 65.458 10.034 65.2407V63.5746C10.034 63.3573 9.85713 63.1812 9.63901 63.1812Z" fill="#D0D0D8"/>
<path d="M9.63901 67.5151H8.25054C8.03241 67.5151 7.85559 67.6913 7.85559 67.9086V69.5747C7.85559 69.792 8.03241 69.9681 8.25054 69.9681H9.63901C9.85713 69.9681 10.034 69.792 10.034 69.5747V67.9086C10.034 67.6913 9.85713 67.5151 9.63901 67.5151Z" fill="#D0D0D8"/>
<path d="M9.63901 71.9541H8.25054C8.03241 71.9541 7.85559 72.1303 7.85559 72.3476V74.0136C7.85559 74.2309 8.03241 74.4071 8.25054 74.4071H9.63901C9.85713 74.4071 10.034 74.2309 10.034 74.0136V72.3476C10.034 72.1303 9.85713 71.9541 9.63901 71.9541Z" fill="#D0D0D8"/>
<path d="M9.63901 76.2944H8.25054C8.03241 76.2944 7.85559 76.4706 7.85559 76.6879V78.354C7.85559 78.5713 8.03241 78.7474 8.25054 78.7474H9.63901C9.85713 78.7474 10.034 78.5713 10.034 78.354V76.6879C10.034 76.4706 9.85713 76.2944 9.63901 76.2944Z" fill="#D0D0D8"/>
<path d="M9.63901 80.6348H8.25054C8.03241 80.6348 7.85559 80.8109 7.85559 81.0282V82.6943C7.85559 82.9116 8.03241 83.0877 8.25054 83.0877H9.63901C9.85713 83.0877 10.034 82.9116 10.034 82.6943V81.0282C10.034 80.8109 9.85713 80.6348 9.63901 80.6348Z" fill="#D0D0D8"/>
<path d="M9.63901 85.0732H8.25054C8.03241 85.0732 7.85559 85.2494 7.85559 85.4667V87.1328C7.85559 87.3501 8.03241 87.5262 8.25054 87.5262H9.63901C9.85713 87.5262 10.034 87.3501 10.034 87.1328V85.4667C10.034 85.2494 9.85713 85.0732 9.63901 85.0732Z" fill="#D0D0D8"/>
<path d="M9.63901 89.4141H8.25054C8.03241 89.4141 7.85559 89.5902 7.85559 89.8075V91.4736C7.85559 91.6909 8.03241 91.867 8.25054 91.867H9.63901C9.85713 91.867 10.034 91.6909 10.034 91.4736V89.8075C10.034 89.5902 9.85713 89.4141 9.63901 89.4141Z" fill="#D0D0D8"/>
<path d="M9.63901 93.748H8.25054C8.03241 93.748 7.85559 93.9242 7.85559 94.1415V95.8076C7.85559 96.0249 8.03241 96.201 8.25054 96.201H9.63901C9.85713 96.201 10.034 96.0249 10.034 95.8076V94.1415C10.034 93.9242 9.85713 93.748 9.63901 93.748Z" fill="#D0D0D8"/>
<path d="M9.63901 98.1929H8.25054C8.03241 98.1929 7.85559 98.369 7.85559 98.5863V100.252C7.85559 100.47 8.03241 100.646 8.25054 100.646H9.63901C9.85713 100.646 10.034 100.47 10.034 100.252V98.5863C10.034 98.369 9.85713 98.1929 9.63901 98.1929Z" fill="#D0D0D8"/>
<path d="M9.63901 102.527H8.25054C8.03241 102.527 7.85559 102.704 7.85559 102.921V104.587C7.85559 104.804 8.03241 104.98 8.25054 104.98H9.63901C9.85713 104.98 10.034 104.804 10.034 104.587V102.921C10.034 102.704 9.85713 102.527 9.63901 102.527Z" fill="#D0D0D8"/>
<path d="M9.63901 106.868H8.25054C8.03241 106.868 7.85559 107.044 7.85559 107.261V108.927C7.85559 109.144 8.03241 109.321 8.25054 109.321H9.63901C9.85713 109.321 10.034 109.144 10.034 108.927V107.261C10.034 107.044 9.85713 106.868 9.63901 106.868Z" fill="#D0D0D8"/>
<path d="M9.63901 111.306H8.25054C8.03241 111.306 7.85559 111.482 7.85559 111.7V113.366C7.85559 113.583 8.03241 113.759 8.25054 113.759H9.63901C9.85713 113.759 10.034 113.583 10.034 113.366V111.7C10.034 111.482 9.85713 111.306 9.63901 111.306Z" fill="#D0D0D8"/>
<path d="M23.351 19.4883H13.7366C13.5185 19.4883 13.3417 19.6644 13.3417 19.8817V21.5478C13.3417 21.7651 13.5185 21.9413 13.7366 21.9413H23.351C23.5692 21.9413 23.746 21.7651 23.746 21.5478V19.8817C23.746 19.6644 23.5692 19.4883 23.351 19.4883Z" fill="#D0D0D8"/>
<path d="M42.0059 23.8286H19.2226C19.0045 23.8286 18.8276 24.0048 18.8276 24.2221V25.8881C18.8276 26.1054 19.0045 26.2816 19.2226 26.2816H42.0059C42.224 26.2816 42.4009 26.1054 42.4009 25.8881V24.2221C42.4009 24.0048 42.224 23.8286 42.0059 23.8286Z" fill="#D0D0D8"/>
<path d="M58.464 28.1689H19.2226C19.0045 28.1689 18.8276 28.3451 18.8276 28.5624V30.2285C18.8276 30.4458 19.0045 30.6219 19.2226 30.6219H58.464C58.6821 30.6219 58.8589 30.4458 58.8589 30.2285V28.5624C58.8589 28.3451 58.6821 28.1689 58.464 28.1689Z" fill="#D0D0D8"/>
<path d="M25.5479 32.6079H13.7366C13.5185 32.6079 13.3417 32.7841 13.3417 33.0014V34.6674C13.3417 34.8847 13.5185 35.0609 13.7366 35.0609H25.5479C25.766 35.0609 25.9429 34.8847 25.9429 34.6674V33.0014C25.9429 32.7841 25.766 32.6079 25.5479 32.6079Z" fill="#D0D0D8"/>
<path d="M23.351 36.9482H13.7366C13.5185 36.9482 13.3417 37.1244 13.3417 37.3417V39.0078C13.3417 39.2251 13.5185 39.4012 13.7366 39.4012H23.351C23.5692 39.4012 23.746 39.2251 23.746 39.0078V37.3417C23.746 37.1244 23.5692 36.9482 23.351 36.9482Z" fill="#D0D0D8"/>
<path d="M35.9707 41.2827H19.2226C19.0045 41.2827 18.8276 41.4589 18.8276 41.6762V43.3422C18.8276 43.5595 19.0045 43.7357 19.2226 43.7357H35.9707C36.1888 43.7357 36.3656 43.5595 36.3656 43.3422V41.6762C36.3656 41.4589 36.1888 41.2827 35.9707 41.2827Z" fill="#D0D0D8"/>
<path d="M83.148 45.7212H24.7087C24.4905 45.7212 24.3137 45.8973 24.3137 46.1147V47.7807C24.3137 47.998 24.4905 48.1742 24.7087 48.1742H83.148C83.3662 48.1742 83.543 47.998 83.543 47.7807V46.1147C83.543 45.8973 83.3662 45.7212 83.148 45.7212Z" fill="#D0D0D8"/>
<path d="M83.148 50.0615H24.7087C24.4905 50.0615 24.3137 50.2377 24.3137 50.455V52.1211C24.3137 52.3384 24.4905 52.5145 24.7087 52.5145H83.148C83.3662 52.5145 83.543 52.3384 83.543 52.1211V50.455C83.543 50.2377 83.3662 50.0615 83.148 50.0615Z" fill="#D0D0D8"/>
<path d="M53.5272 54.4019H24.7087C24.4905 54.4019 24.3137 54.578 24.3137 54.7953V56.4614C24.3137 56.6787 24.4905 56.8548 24.7087 56.8548H53.5272C53.7454 56.8548 53.9222 56.6787 53.9222 56.4614V54.7953C53.9222 54.578 53.7454 54.4019 53.5272 54.4019Z" fill="#D0D0D8"/>
<path d="M25.5479 58.8408H13.7366C13.5185 58.8408 13.3417 59.017 13.3417 59.2343V60.9003C13.3417 61.1176 13.5185 61.2938 13.7366 61.2938H25.5479C25.766 61.2938 25.9429 61.1176 25.9429 60.9003V59.2343C25.9429 59.017 25.766 58.8408 25.5479 58.8408Z" fill="#D0D0D8"/>
<path d="M23.351 63.1812H13.7366C13.5185 63.1812 13.3417 63.3573 13.3417 63.5746V65.2407C13.3417 65.458 13.5185 65.6341 13.7366 65.6341H23.351C23.5692 65.6341 23.746 65.458 23.746 65.2407V63.5746C23.746 63.3573 23.5692 63.1812 23.351 63.1812Z" fill="#D0D0D8"/>
<path d="M24.4494 67.5151H19.2226C19.0045 67.5151 18.8276 67.6913 18.8276 67.9086V69.5747C18.8276 69.792 19.0045 69.9681 19.2226 69.9681H24.4494C24.6675 69.9681 24.8444 69.792 24.8444 69.5747V67.9086C24.8444 67.6913 24.6675 67.5151 24.4494 67.5151Z" fill="#D0D0D8"/>
<path d="M35.9707 71.9541H24.7087C24.4905 71.9541 24.3137 72.1303 24.3137 72.3476V74.0136C24.3137 74.2309 24.4905 74.4071 24.7087 74.4071H35.9707C36.1889 74.4071 36.3657 74.2309 36.3657 74.0136V72.3476C36.3657 72.1303 36.1889 71.9541 35.9707 71.9541Z" fill="#D0D0D8"/>
<path d="M65.0484 76.2944H30.1946C29.9765 76.2944 29.7997 76.4706 29.7997 76.6879V78.354C29.7997 78.5713 29.9765 78.7474 30.1946 78.7474H65.0484C65.2666 78.7474 65.4434 78.5713 65.4434 78.354V76.6879C65.4434 76.4706 65.2666 76.2944 65.0484 76.2944Z" fill="#D0D0D8"/>
<path d="M74.3728 80.6348H30.1946C29.9765 80.6348 29.7997 80.8109 29.7997 81.0282V82.6943C29.7997 82.9116 29.9765 83.0877 30.1946 83.0877H74.3728C74.5909 83.0877 74.7678 82.9116 74.7678 82.6943V81.0282C74.7678 80.8109 74.5909 80.6348 74.3728 80.6348Z" fill="#D0D0D8"/>
<path d="M38.7168 85.0732H24.7087C24.4905 85.0732 24.3137 85.2494 24.3137 85.4667V87.1328C24.3137 87.3501 24.4905 87.5262 24.7087 87.5262H38.7168C38.935 87.5262 39.1118 87.3501 39.1118 87.1328V85.4667C39.1118 85.2494 38.935 85.0732 38.7168 85.0732Z" fill="#D0D0D8"/>
<path d="M35.9707 89.4141H24.7087C24.4905 89.4141 24.3137 89.5902 24.3137 89.8075V91.4736C24.3137 91.6909 24.4905 91.867 24.7087 91.867H35.9707C36.1889 91.867 36.3657 91.6909 36.3657 91.4736V89.8075C36.3657 89.5902 36.1889 89.4141 35.9707 89.4141Z" fill="#D0D0D8"/>
<path d="M84.7957 93.748H30.1946C29.9765 93.748 29.7997 93.9242 29.7997 94.1415V95.8076C29.7997 96.0249 29.9765 96.201 30.1946 96.201H84.7957C85.0138 96.201 85.1906 96.0249 85.1906 95.8076V94.1415C85.1906 93.9242 85.0138 93.748 84.7957 93.748Z" fill="#D0D0D8"/>
<path d="M84.7957 98.1929H30.1946C29.9765 98.1929 29.7997 98.369 29.7997 98.5863V100.252C29.7997 100.47 29.9765 100.646 30.1946 100.646H84.7957C85.0138 100.646 85.1906 100.47 85.1906 100.252V98.5863C85.1906 98.369 85.0138 98.1929 84.7957 98.1929Z" fill="#D0D0D8"/>
<path d="M84.7957 102.527H30.1946C29.9765 102.527 29.7997 102.704 29.7997 102.921V104.587C29.7997 104.804 29.9765 104.98 30.1946 104.98H84.7957C85.0138 104.98 85.1906 104.804 85.1906 104.587V102.921C85.1906 102.704 85.0138 102.527 84.7957 102.527Z" fill="#D0D0D8"/>
<path d="M38.7168 106.868H24.7087C24.4905 106.868 24.3137 107.044 24.3137 107.261V108.927C24.3137 109.144 24.4905 109.321 24.7087 109.321H38.7168C38.935 109.321 39.1118 109.144 39.1118 108.927V107.261C39.1118 107.044 38.935 106.868 38.7168 106.868Z" fill="#D0D0D8"/>
<path d="M27.1955 111.306H19.2226C19.0045 111.306 18.8276 111.482 18.8276 111.7V113.366C18.8276 113.583 19.0045 113.759 19.2226 113.759H27.1955C27.4136 113.759 27.5905 113.583 27.5905 113.366V111.7C27.5905 111.482 27.4136 111.306 27.1955 111.306Z" fill="#D0D0D8"/>
</svg>
