<svg width="177" height="255" viewBox="0 0 177 255" fill="none" xmlns="http://www.w3.org/2000/svg">
<path d="M153.815 0.423102L4.93433 13.1901C2.20918 13.4238 0.176194 15.9886 0.39354 18.9187L17.4789 249.251C17.6963 252.181 20.0816 254.367 22.8068 254.133L171.688 241.366C174.413 241.132 176.446 238.568 176.229 235.638L159.143 5.30538C158.926 2.37528 156.54 0.189411 153.815 0.423102Z" fill="#FCFCFF" stroke="#F0BD78" stroke-width="0.75" stroke-miterlimit="10"/>
<path d="M140.278 76.576L30.1354 86.021C29.8462 86.0458 29.6304 86.318 29.6535 86.629L30.0829 92.4183C30.106 92.7293 30.3591 92.9613 30.6484 92.9365L140.791 83.4914C141.08 83.4666 141.296 83.1944 141.273 82.8834L140.844 77.0941C140.821 76.7832 140.567 76.5512 140.278 76.576Z" fill="#D0D0D8"/>
<path d="M95.5799 97.3142L50.68 101.165C50.3907 101.189 50.175 101.462 50.198 101.773L50.4075 104.597C50.4306 104.908 50.6838 105.14 50.973 105.115L95.8729 101.265C96.1622 101.24 96.378 100.968 96.3549 100.657L96.1454 97.8324C96.1223 97.5214 95.8691 97.2894 95.5799 97.3142Z" fill="#D0D0D8"/>
<path d="M96.0253 103.24L51.1254 107.091C50.8362 107.116 50.6204 107.388 50.6435 107.699L50.853 110.523C50.876 110.834 51.1292 111.066 51.4184 111.041L96.3184 107.191C96.6076 107.166 96.8234 106.894 96.8003 106.583L96.5908 103.759C96.5678 103.448 96.3146 103.216 96.0253 103.24Z" fill="#D0D0D8"/>
<path d="M144.162 128.931L34.0196 138.376C33.7303 138.401 33.5146 138.673 33.5376 138.984L33.7471 141.808C33.7702 142.119 34.0234 142.351 34.3126 142.326L144.455 132.881C144.745 132.857 144.96 132.584 144.937 132.273L144.728 129.449C144.705 129.138 144.452 128.906 144.162 128.931Z" fill="#D0D0D8"/>
<path d="M144.677 135.907L34.5341 145.353C34.2448 145.377 34.0291 145.65 34.0521 145.961L34.2616 148.785C34.2847 149.096 34.5379 149.328 34.8271 149.303L144.97 139.858C145.259 139.833 145.475 139.561 145.452 139.25L145.242 136.426C145.219 136.115 144.966 135.883 144.677 135.907Z" fill="#D0D0D8"/>
<path d="M145.2 142.903L35.0575 152.348C34.7683 152.373 34.5525 152.645 34.5756 152.956L34.7851 155.78C34.8081 156.091 35.0613 156.323 35.3506 156.299L145.493 146.853C145.783 146.829 145.998 146.556 145.975 146.245L145.766 143.421C145.743 143.11 145.49 142.878 145.2 142.903Z" fill="#D0D0D8"/>
<path d="M145.715 149.88L35.5722 159.325C35.2829 159.35 35.0672 159.622 35.0902 159.933L35.2997 162.757C35.3228 163.068 35.576 163.3 35.8652 163.275L146.008 153.83C146.297 153.805 146.513 153.533 146.49 153.222L146.28 150.398C146.257 150.087 146.004 149.855 145.715 149.88Z" fill="#D0D0D8"/>
<path d="M146.229 156.865L36.0867 166.311C35.7975 166.335 35.5817 166.608 35.6048 166.919L35.8143 169.743C35.8373 170.054 36.0905 170.286 36.3797 170.261L146.522 160.816C146.812 160.791 147.028 160.519 147.004 160.208L146.795 157.384C146.772 157.073 146.519 156.841 146.229 156.865Z" fill="#D0D0D8"/>
<path d="M109.988 167.002L36.6032 173.295C36.3139 173.32 36.0982 173.592 36.1212 173.903L36.3307 176.728C36.3538 177.039 36.607 177.271 36.8962 177.246L110.281 170.953C110.57 170.928 110.786 170.656 110.763 170.345L110.553 167.521C110.53 167.21 110.277 166.978 109.988 167.002Z" fill="#D0D0D8"/>
<path d="M86.5199 124.921L33.3551 129.48C33.0659 129.505 32.8501 129.777 32.8732 130.088L33.2295 134.892C33.2526 135.203 33.5058 135.435 33.795 135.41L86.9597 130.851C87.249 130.826 87.4648 130.554 87.4417 130.243L87.0853 125.439C87.0623 125.128 86.8091 124.896 86.5199 124.921Z" fill="#D0D0D8"/>
<path d="M148.792 191.401L38.6488 200.846C38.3596 200.871 38.1438 201.143 38.1669 201.454L38.3764 204.278C38.3995 204.589 38.6526 204.821 38.9419 204.796L149.085 195.351C149.374 195.326 149.59 195.054 149.567 194.743L149.357 191.919C149.334 191.608 149.081 191.376 148.792 191.401Z" fill="#D0D0D8"/>
<path d="M149.314 198.377L39.1717 207.822C38.8824 207.847 38.6666 208.119 38.6897 208.43L38.8992 211.255C38.9223 211.566 39.1755 211.798 39.4647 211.773L149.607 202.328C149.897 202.303 150.112 202.031 150.089 201.72L149.88 198.895C149.857 198.584 149.604 198.352 149.314 198.377Z" fill="#D0D0D8"/>
<path d="M77.0745 211.601L39.6866 214.807C39.3973 214.832 39.1815 215.104 39.2046 215.415L39.4141 218.239C39.4372 218.55 39.6903 218.782 39.9796 218.758L77.3676 215.551C77.6568 215.527 77.8726 215.254 77.8495 214.943L77.64 212.119C77.6169 211.808 77.3638 211.576 77.0745 211.601Z" fill="#D0D0D8"/>
<path d="M91.1568 187.382L37.9921 191.941C37.7029 191.966 37.4871 192.238 37.5102 192.549L37.8665 197.353C37.8896 197.664 38.1427 197.896 38.432 197.871L91.5967 193.312C91.8859 193.288 92.1017 193.015 92.0787 192.704L91.7223 187.901C91.6992 187.59 91.4461 187.358 91.1568 187.382Z" fill="#D0D0D8"/>
<path d="M150.956 216.446L97.7914 221.005C97.5022 221.03 97.2864 221.302 97.3095 221.613L97.7983 228.203C97.8214 228.514 98.0745 228.746 98.3638 228.721L151.529 224.162C151.818 224.137 152.034 223.865 152.01 223.554L151.522 216.964C151.499 216.653 151.245 216.421 150.956 216.446Z" fill="#FF9200"/>
<path d="M38.0745 115.148C42.4042 115.148 45.9141 111.374 45.9141 106.719C45.9141 102.064 42.4042 98.29 38.0745 98.29C33.7449 98.29 30.235 102.064 30.235 106.719C30.235 111.374 33.7449 115.148 38.0745 115.148Z" fill="#D0D0D8"/>
<path d="M160.174 14.6622L0.605835 28.3457L3.93428 73.2173L163.502 59.5338L160.174 14.6622Z" fill="#FF9200"/>
</svg>
