<svg width="170" height="64" viewBox="0 0 170 64" fill="none" xmlns="http://www.w3.org/2000/svg">
<path d="M74.1132 9.82908C68.4628 7.56805 68.1503 3.33608 68.5304 0.85321C72.7114 1.75724 76.4726 4.04901 79.2145 7.36328C79.2145 7.36328 80.0591 7.91787 74.1132 9.82908Z" fill="#1A193C"/>
<path d="M53.9611 15.776C52.4091 17.3549 51.0249 19.0936 49.8311 20.9636L48.1419 23.5233C48.1419 23.5233 42.9899 25.2297 44.2736 18.9073C44.7166 16.3657 45.0295 13.8026 45.2111 11.2284C45.2111 9.0356 43.5811 6.10906 47.5676 4.44528C48.1161 4.21789 48.6807 4.03251 49.2568 3.89069C51.0811 5.40942 54.2652 8.15678 53.2517 11.9877C53.0534 12.5741 52.9944 13.1993 53.0795 13.8129C53.1646 14.4266 53.3914 15.0113 53.7416 15.5201L53.9611 15.776Z" fill="#414042"/>
<path d="M53.9611 15.776C52.4091 17.3549 51.0249 19.0936 49.8311 20.9636L48.1419 23.5233C48.1419 23.5233 42.9899 25.2297 44.2736 18.9073C44.7166 16.3657 45.0295 13.8026 45.2111 11.2284C45.2111 9.0356 43.5811 6.10906 47.5676 4.44528C48.1161 4.21789 48.6807 4.03251 49.2568 3.89069C51.0811 5.40942 54.2652 8.15678 53.2517 11.9877C53.0534 12.5741 52.9944 13.1993 53.0795 13.8129C53.1646 14.4266 53.3914 15.0113 53.7416 15.5201L53.9611 15.776Z" fill="white"/>
<path d="M24.4173 45.0073L21.6132 44.4698H21.4865L15.6673 43.2924C12.4662 44.9988 15.9629 50.4509 15.9629 50.4509L20.4477 49.3417L15.8784 51.944C15.076 54.0173 17.0102 55.4593 18.6571 56.3125C18.7669 59.9472 25.0845 59.2902 25.0845 59.2902L27.0271 51.1932V51.0737L27.0777 50.886C27.0777 50.7666 27.1369 50.6471 27.1706 50.5277C27.3058 50.0499 27.4578 49.6062 27.5929 49.2052C27.9308 48.2666 28.2433 47.5926 28.3193 47.4305C26.844 46.9528 25.5052 46.1214 24.4173 45.0073ZM24.6031 45.2718C24.5416 45.2081 24.4851 45.1397 24.4342 45.0671L24.6031 45.2718Z" fill="#1A193C"/>
<path d="M54.5945 16.2538C52.8462 17.9602 50.1097 21.4755 46.6553 29.0009C46.1739 30.0503 45.684 31.1681 45.1773 32.3711C44.5303 33.7278 43.7938 35.039 42.9729 36.2959C42.4915 37.0297 41.934 37.8061 41.2837 38.5825C37.9537 42.7498 33.4555 45.804 28.3783 47.3451C26.8902 46.9009 25.531 46.0987 24.4171 45.0073C27.3817 39.888 27.3648 38.1815 29.0286 33.54C27.196 34.3449 25.2243 34.7769 23.2263 34.8113H23.0236C22.3685 34.8153 21.7139 34.7754 21.0641 34.6919C17.9516 34.1893 15.0421 32.8113 12.6688 30.7159C12.1705 30.3063 11.782 29.8626 11.9425 29.1801C12.1029 28.4975 12.6688 28.3183 13.2431 28.1562C14.13 27.9514 14.9999 27.7125 15.8698 27.4821C15.1638 27.2231 14.4378 27.0233 13.6992 26.8849C10.1688 26.0317 7.22963 24.274 5.45599 20.9124C4.73808 19.624 5.30396 18.5233 6.75666 18.3271C7.60126 18.2162 8.36984 18.0114 9.29044 17.8322L8.58099 17.4056C6.08948 16.0008 3.89673 14.1133 2.12828 11.8512C1.20087 10.6209 0.550981 9.20067 0.224171 7.68995C-0.102639 6.17923 -0.0984685 4.61459 0.236391 3.10567C0.251704 2.87374 0.330946 2.65077 0.465156 2.46197C0.599365 2.27317 0.783189 2.12606 0.995839 2.03729C1.20849 1.94852 1.44148 1.92163 1.66848 1.95965C1.89547 1.99767 2.1074 2.0991 2.28031 2.25245C5.25848 4.59849 8.84061 6.03176 12.6013 6.38203C16.4019 6.84277 20.2026 7.05607 24.0624 7.43149C26.7535 7.56285 29.3769 8.3284 31.7229 9.66693C33.0762 10.5015 34.191 11.6777 34.9577 13.0798L35.3884 13.3187C36.9087 13.1566 38.6232 12.0986 40.3377 9.31711C41.5202 6.59534 42.8715 4.0954 44.0286 3.51521C44.9855 3.09103 45.9637 2.71794 46.9594 2.3975C47.7878 2.82161 48.5692 3.33358 49.2904 3.92476C48.7144 4.06658 48.1498 4.25197 47.6013 4.47935C43.6148 6.11753 45.2533 9.06967 45.2448 11.3051C45.0632 13.8793 44.7503 16.4424 44.3073 18.9841C43.0742 25.2211 48.1925 23.5488 48.1925 23.5488L49.8817 20.9891C51.0675 19.1227 52.4402 17.3844 53.9779 15.8016C54.155 15.9884 54.3638 16.1416 54.5945 16.2538Z" fill="#1A193C"/>
<path d="M74.1132 9.82906C71.2669 10.742 66.8497 11.9706 60.0338 13.5918C58.08 14.1425 56.2404 15.0443 54.6031 16.2538C54.5137 16.2188 54.4263 16.179 54.3412 16.1344C54.2081 16.0251 54.0838 15.9053 53.9696 15.776L53.7922 15.5627C53.4421 15.054 53.2153 14.4692 53.1302 13.8556C53.0451 13.2419 53.1041 12.6167 53.3024 12.0304C54.3159 8.23354 51.1318 5.45205 49.3074 3.93331C48.5801 3.33744 47.7932 2.81987 46.9595 2.38899L47.196 2.3122C53.7669 0.14502 61.7314 -0.853247 68.5304 0.853192C68.1503 3.33606 68.4628 7.56803 74.1132 9.82906Z" fill="url(#paint0_linear)"/>
<path d="M48.2517 9.22326C49.3386 9.22326 50.2196 8.3332 50.2196 7.23525C50.2196 6.13731 49.3386 5.24725 48.2517 5.24725C47.1649 5.24725 46.2838 6.13731 46.2838 7.23525C46.2838 8.3332 47.1649 9.22326 48.2517 9.22326Z" fill="#FFD500"/>
<path d="M48.2517 8.39565C48.8861 8.39565 49.4003 7.87613 49.4003 7.23527C49.4003 6.59441 48.8861 6.07489 48.2517 6.07489C47.6173 6.07489 47.103 6.59441 47.103 7.23527C47.103 7.87613 47.6173 8.39565 48.2517 8.39565Z" fill="#1A193C"/>
<path d="M24.4173 45.0073L21.6132 44.4698H21.4865C22.3311 46.7308 24.5862 49.6659 27.2129 50.502C27.348 50.0242 27.5 49.5806 27.6352 49.1796C27.973 48.241 28.2855 47.567 28.3615 47.4049C26.8737 46.9409 25.5199 46.118 24.4173 45.0073Z" fill="#FFD500"/>
<path d="M94.6959 7.78131H88.9189C88.7777 7.78357 88.6375 7.75744 88.5065 7.70442C88.3754 7.65141 88.2561 7.57258 88.1555 7.47253C88.0549 7.37247 87.975 7.25319 87.9204 7.12164C87.8659 6.99008 87.8378 6.84888 87.8378 6.70625V5.58853C87.8378 5.30115 87.9508 5.02553 88.152 4.82232C88.3532 4.61911 88.626 4.50494 88.9105 4.50494H104.316C104.456 4.50494 104.595 4.53303 104.725 4.58759C104.855 4.64215 104.972 4.7221 105.071 4.82283C105.17 4.92356 105.249 5.04309 105.301 5.17451C105.354 5.30592 105.381 5.44664 105.38 5.58853V6.70625C105.381 6.84775 105.354 6.98805 105.301 7.119C105.248 7.24994 105.17 7.36891 105.071 7.46896C104.972 7.56902 104.854 7.64816 104.724 7.70179C104.595 7.75541 104.456 7.78244 104.316 7.78131H98.5304V24.3082C98.5304 24.5956 98.4174 24.8712 98.2162 25.0744C98.0151 25.2776 97.7422 25.3918 97.4578 25.3918H95.7686C95.4841 25.3918 95.2113 25.2776 95.0101 25.0744C94.8089 24.8712 94.6959 24.5956 94.6959 24.3082V7.78131Z" fill="#1A193C"/>
<path d="M126.748 24.5556C125.485 23.8925 124.432 22.8844 123.708 21.6461C122.969 20.3651 122.59 18.9051 122.61 17.4227C122.589 15.9456 122.968 14.4908 123.708 13.2163C124.43 11.9866 125.477 10.9849 126.731 10.3239C128.094 9.60689 129.613 9.24609 131.149 9.27444C132.572 9.24828 133.98 9.57957 135.245 10.2386C136.025 10.6562 136.708 11.2381 137.247 11.945C137.339 12.0679 137.405 12.2093 137.44 12.3598C137.475 12.5103 137.477 12.6665 137.448 12.8181C137.418 12.9697 137.357 13.1132 137.269 13.2392C137.18 13.3653 137.066 13.4709 136.934 13.5491L135.878 14.1719C135.664 14.2976 135.413 14.3441 135.168 14.3037C134.923 14.2632 134.699 14.1383 134.536 13.9501C134.199 13.5668 133.799 13.2463 133.353 13.003C132.443 12.5305 131.411 12.354 130.398 12.4976C129.385 12.6412 128.44 13.0979 127.694 13.805C127.234 14.2835 126.876 14.8522 126.643 15.4758C126.409 16.0995 126.304 16.765 126.335 17.4312C126.303 18.0961 126.406 18.7604 126.637 19.3838C126.868 20.0072 127.222 20.5766 127.677 21.0574C128.428 21.763 129.374 22.2191 130.389 22.364C131.404 22.509 132.439 22.3358 133.353 21.868C133.798 21.6187 134.197 21.2957 134.536 20.9124C134.7 20.7256 134.924 20.6016 135.168 20.5612C135.413 20.5208 135.663 20.5665 135.878 20.6905L136.926 21.3134C137.058 21.3913 137.172 21.497 137.261 21.6233C137.349 21.7496 137.41 21.8936 137.439 22.0456C137.468 22.1975 137.464 22.354 137.428 22.5044C137.392 22.6548 137.324 22.7956 137.23 22.9174C136.682 23.6219 135.994 24.2031 135.211 24.6239C133.961 25.2917 132.563 25.6264 131.149 25.5965C129.619 25.6239 128.107 25.2662 126.748 24.5556Z" fill="#1A193C"/>
<path d="M154.662 11.0406C154.022 10.4398 153.269 9.97419 152.448 9.67093C151.627 9.36766 150.755 9.23287 149.882 9.27444C148.858 9.26123 147.842 9.44062 146.883 9.80344C146.024 10.1203 145.249 10.6344 144.62 11.3051V3.41283C144.62 3.29111 144.585 3.17204 144.518 3.07074C144.451 2.96944 144.356 2.89046 144.245 2.84384C144.133 2.79722 144.011 2.78506 143.893 2.80888C143.775 2.83271 143.666 2.89146 143.581 2.97768L141.664 4.91449C141.189 5.39406 140.921 6.04468 140.921 6.72332V24.3082C140.921 24.4505 140.948 24.5914 141.002 24.7228C141.056 24.8543 141.135 24.9738 141.235 25.0744C141.334 25.175 141.453 25.2548 141.583 25.3093C141.713 25.3637 141.852 25.3918 141.993 25.3918H143.581C143.866 25.3918 144.138 25.2776 144.34 25.0744C144.541 24.8712 144.654 24.5956 144.654 24.3082V17.3374C144.568 16.0377 144.993 14.7562 145.836 13.7709C146.256 13.3464 146.759 13.016 147.314 12.8014C147.868 12.5867 148.461 12.4926 149.054 12.5252C149.566 12.4927 150.078 12.5711 150.558 12.755C151.037 12.939 151.472 13.2242 151.833 13.5917C152.543 14.4774 152.89 15.6039 152.804 16.7401V24.3082C152.804 24.5956 152.917 24.8712 153.118 25.0744C153.319 25.2776 153.592 25.3918 153.877 25.3918H155.405C155.69 25.3918 155.963 25.2776 156.164 25.0744C156.365 24.8712 156.478 24.5956 156.478 24.3082V16.2623C156.472 13.9529 155.867 12.2124 154.662 11.0406Z" fill="#1A193C"/>
<path d="M120.346 14.2146C119.96 13.1318 119.34 12.1496 118.53 11.3393C117.57 10.3683 116.358 9.69105 115.034 9.38541C113.636 9.09254 112.19 9.14106 110.815 9.52692C109.44 9.91277 108.176 10.6248 107.128 11.6038C106.127 12.5783 105.416 13.8168 105.076 15.1788C104.72 16.5981 104.74 18.0872 105.135 19.4961C105.488 20.9418 106.224 22.2632 107.264 23.3185C108.279 24.336 109.563 25.0353 110.963 25.3321C112.52 25.6584 114.132 25.594 115.659 25.1444C116.875 24.8342 118.022 24.2927 119.037 23.5489C119.645 23.0949 120.173 22.5412 120.6 21.9107C120.752 21.6732 120.806 21.385 120.751 21.1075C120.696 20.8301 120.535 20.5855 120.304 20.4261L119.51 19.88C119.29 19.727 119.021 19.6631 118.757 19.701C118.493 19.739 118.252 19.8759 118.083 20.0848C117.325 20.9643 116.349 21.6229 115.254 21.992C114.159 22.3611 112.987 22.4273 111.858 22.1837C111.229 22.0246 110.649 21.711 110.169 21.2708C109.368 20.518 108.809 19.5403 108.564 18.4637V18.421C108.164 17.1597 108.27 15.7901 108.86 14.6071C109.154 14.0641 109.559 13.5907 110.048 13.2185C110.538 12.8463 111.1 12.5837 111.698 12.4485C112.666 12.1541 113.705 12.1992 114.645 12.5765C115.536 12.9395 116.278 13.5986 116.748 14.445L109.907 17.7982C109.787 17.8589 109.693 17.9615 109.642 18.0869C109.59 18.2123 109.586 18.3521 109.628 18.4807C109.628 18.5405 109.671 18.6087 109.696 18.677C109.824 19.059 109.988 19.4276 110.186 19.7776C110.257 19.9004 110.371 19.9915 110.506 20.0327C110.641 20.0738 110.786 20.062 110.912 19.9995L119.84 15.5883C120.079 15.4651 120.264 15.2556 120.358 15.0012C120.452 14.7468 120.448 14.4661 120.346 14.2146Z" fill="#1A193C"/>
<path d="M170 52.8996C170.017 53.2361 169.913 53.5676 169.709 53.8337C169.504 54.0999 169.212 54.2831 168.885 54.35C168.329 54.4621 167.763 54.5164 167.196 54.5122C166.304 54.5708 165.41 54.4501 164.565 54.1572C163.72 53.8643 162.94 53.4049 162.272 52.8057C161.656 52.1512 161.181 51.3754 160.876 50.5268C160.571 49.6782 160.442 48.7752 160.498 47.8741V30.2295C160.498 29.7962 160.583 29.3673 160.749 28.9674C160.914 28.5676 161.156 28.2049 161.461 27.9002L162.061 27.2944L163.927 25.4088C164.036 25.2992 164.174 25.2246 164.325 25.1944C164.476 25.1642 164.632 25.1797 164.774 25.2391C164.915 25.2984 165.037 25.3989 165.122 25.5278C165.208 25.6567 165.253 25.8083 165.253 25.9634V47.4902C165.253 49.5379 166.205 50.5617 168.108 50.5617H168.421C168.604 50.5466 168.788 50.5686 168.963 50.6263C169.138 50.684 169.3 50.7763 169.439 50.8978C169.578 51.0193 169.692 51.1676 169.774 51.3341C169.856 51.5005 169.904 51.6817 169.916 51.8672L170 52.8996Z" fill="#1A193C"/>
<path d="M86.8581 29.3166L76.4696 53.4115C76.364 53.6632 76.1878 53.8781 75.9626 54.0297C75.7375 54.1814 75.4733 54.2631 75.2027 54.2647H72.1369C71.8675 54.2625 71.6046 54.1805 71.3809 54.0288C71.1573 53.8771 70.9825 53.6625 70.8784 53.4115L60.4477 29.3166C60.3569 29.1041 60.3196 28.8721 60.3394 28.6415C60.3591 28.4109 60.4351 28.1889 60.5607 27.9953C60.6862 27.8016 60.8573 27.6425 61.0587 27.5321C61.2601 27.4217 61.4854 27.3635 61.7146 27.3627H64.0541C64.3247 27.3644 64.5889 27.4461 64.814 27.5977C65.0391 27.7493 65.2154 27.9642 65.321 28.2159L73.826 48.1045L82.3987 28.1989C82.5052 27.9478 82.6816 27.7335 82.9066 27.582C83.1315 27.4305 83.3952 27.3484 83.6656 27.3456H85.5997C85.8303 27.3466 86.057 27.4057 86.2592 27.5176C86.4615 27.6295 86.6329 27.7907 86.7579 27.9864C86.8829 28.1822 86.9575 28.4064 86.975 28.6387C86.9925 28.8709 86.9523 29.104 86.8581 29.3166Z" fill="#1A193C"/>
<path d="M107.103 38.5825C106.934 38.3038 106.757 38.0194 106.571 37.7293C106.531 37.6769 106.479 37.6353 106.42 37.6079C106.361 37.5806 106.295 37.5686 106.23 37.5728C106.165 37.577 106.102 37.5974 106.047 37.6321C105.991 37.6669 105.945 37.7149 105.912 37.772C105.309 38.8732 104.326 39.7115 103.15 40.1269C103.097 40.146 103.048 40.1766 103.007 40.2164C102.966 40.2563 102.934 40.3045 102.914 40.3579C102.893 40.4113 102.884 40.4685 102.886 40.5258C102.889 40.5831 102.905 40.6391 102.931 40.69C103.44 41.7223 103.692 42.8645 103.666 44.0175C103.708 44.8727 103.581 45.7279 103.29 46.5324C103 47.3369 102.553 48.0746 101.976 48.7017C101.419 49.3026 100.739 49.7735 99.9838 50.0815C99.2282 50.3895 98.4151 50.5272 97.6014 50.485C96.1406 50.4476 94.7319 49.9293 93.5895 49.0089C93.4412 48.8842 93.267 48.795 93.0799 48.7477C92.8927 48.7004 92.6974 48.6964 92.5085 48.7359C91.9166 48.8639 91.3632 49.1316 90.8935 49.5172C90.4237 49.9028 90.051 50.3952 89.8058 50.9542C89.7391 51.1063 89.722 51.2759 89.7569 51.4384C89.7918 51.601 89.877 51.7481 90 51.8586C90.6058 52.4136 91.2784 52.8895 92.0017 53.275C93.7438 54.167 95.6694 54.6318 97.6225 54.6318C99.5756 54.6318 101.501 54.167 103.243 53.275C104.867 52.4095 106.216 51.0996 107.137 49.4952C108.056 47.8204 108.538 45.9368 108.538 44.0218C108.538 42.1068 108.056 40.2233 107.137 38.5484L107.103 38.5825Z" fill="url(#paint1_linear)"/>
<path d="M103.209 34.8199C101.467 33.9279 99.5418 33.463 97.5887 33.463C95.6356 33.463 93.71 33.9279 91.9679 34.8199C90.3506 35.6863 89.0028 36.9888 88.0744 38.5826C87.1552 40.2574 86.6729 42.141 86.6729 44.056C86.6729 45.971 87.1552 47.8545 88.0744 49.5294C88.1419 49.6488 88.2095 49.7683 88.2855 49.8792C88.3188 49.9377 88.3668 49.9863 88.4247 50.02C88.4825 50.0538 88.5481 50.0716 88.6149 50.0716C88.6817 50.0716 88.7473 50.0538 88.8051 50.02C88.863 49.9863 88.911 49.9377 88.9443 49.8792C89.6005 48.7936 90.6332 47.9937 91.8413 47.6352C91.8964 47.6206 91.9476 47.594 91.9914 47.5572C92.0352 47.5204 92.0704 47.4743 92.0945 47.4222C92.1187 47.3701 92.1313 47.3132 92.1313 47.2557C92.1313 47.1981 92.1188 47.1413 92.0946 47.0892C91.6884 46.1329 91.4869 45.1007 91.5034 44.0602C91.4621 43.2039 91.5902 42.3478 91.8803 41.5421C92.1703 40.7363 92.6165 39.9971 93.1926 39.3675C93.7532 38.7688 94.4328 38.2966 95.1868 37.9819C95.9408 37.6672 96.7521 37.5172 97.5676 37.5416C99.005 37.5025 100.407 37.9939 101.512 38.9239C101.599 38.999 101.703 39.0533 101.814 39.0828C101.925 39.1123 102.041 39.1163 102.154 39.0945C102.787 38.9765 103.381 38.6998 103.881 38.2899C104.382 37.88 104.772 37.3499 105.017 36.7482C105.079 36.5904 105.09 36.4166 105.048 36.2523C105.005 36.088 104.911 35.9418 104.78 35.8352C104.285 35.4544 103.759 35.1148 103.209 34.8199Z" fill="#1A193C"/>
<path d="M156.436 39.8624C155.939 38.4697 155.14 37.2072 154.096 36.168C152.856 34.9347 151.3 34.075 149.603 33.6851C147.803 33.3063 145.939 33.3681 144.167 33.8653C142.395 34.3626 140.766 35.2808 139.417 36.5434C138.132 37.7967 137.217 39.3859 136.774 41.1337C136.316 42.9632 136.346 44.8822 136.858 46.6967C137.315 48.5447 138.258 50.2338 139.586 51.5857C140.9 52.8801 142.553 53.7681 144.35 54.1453C146.143 54.4778 147.983 54.446 149.764 54.052C151.545 53.6579 153.23 52.9094 154.721 51.8502C155.507 51.2673 156.187 50.5514 156.731 49.7342C156.831 49.5843 156.9 49.416 156.935 49.239C156.97 49.0619 156.97 48.8797 156.934 48.7027C156.899 48.5258 156.829 48.3576 156.729 48.2081C156.629 48.0586 156.501 47.9305 156.351 47.8315L155.338 47.1233C155.055 46.9259 154.709 46.8427 154.368 46.8901C154.027 46.9374 153.716 47.112 153.497 47.3793C152.521 48.5033 151.266 49.3435 149.861 49.8131C148.457 50.2826 146.953 50.3643 145.507 50.0499C144.695 49.8402 143.944 49.4364 143.319 48.8724C142.287 47.9029 141.566 46.6427 141.25 45.2548V45.2206C140.725 43.5981 140.856 41.8319 141.613 40.3061C141.997 39.6122 142.521 39.0076 143.151 38.5314C143.781 38.0551 144.503 37.718 145.27 37.5417C146.521 37.174 147.857 37.234 149.071 37.7123C150.22 38.1743 151.175 39.0247 151.774 40.1184L143.209 44.3162C142.987 44.424 142.812 44.6104 142.717 44.84C142.622 45.0697 142.614 45.3266 142.694 45.5619C142.829 45.9451 142.99 46.3185 143.176 46.6796C143.295 46.9187 143.503 47.1004 143.755 47.1851C144.006 47.2698 144.281 47.2506 144.519 47.1318L155.76 41.5774C156.062 41.4259 156.298 41.167 156.423 40.8505C156.548 40.534 156.552 40.1821 156.436 39.8624Z" fill="#1A193C"/>
<path d="M133.218 51.1249C133.218 53.804 132.787 57.3278 131.427 59.6571C130.523 61.1362 129.182 62.2911 127.593 62.959C125.942 63.7288 124.131 64.083 122.314 63.9914H122.036L121.191 63.9402C120.811 63.9402 120.431 63.8464 120.059 63.7781C118.364 63.4535 116.764 62.7446 115.38 61.7048C114.868 61.3217 114.39 60.8934 113.953 60.425C113.773 60.2372 113.667 59.9892 113.657 59.7281C113.646 59.4671 113.73 59.211 113.894 59.0086L115.177 57.4046C115.277 57.2858 115.402 57.1905 115.542 57.1251C115.682 57.0597 115.834 57.0258 115.988 57.0258C116.142 57.0258 116.295 57.0597 116.435 57.1251C116.575 57.1905 116.699 57.2858 116.799 57.4046C117.052 57.7015 117.335 57.9704 117.644 58.2066C118.861 59.1204 120.288 59.7075 121.791 59.913C122.602 60.0075 123.424 59.9312 124.204 59.6889C124.985 59.4466 125.707 59.0436 126.326 58.5052C127.914 57.1401 128.252 55.7664 128.438 53.8637C128.48 53.2238 128.547 43.4032 128.547 43.4032C128.575 42.6213 128.435 41.8426 128.136 41.1209C127.837 40.3991 127.387 39.7514 126.816 39.2225C125.613 38.097 124.021 37.4935 122.382 37.5416C120.742 37.4732 119.14 38.0515 117.914 39.1542C117.343 39.6831 116.893 40.3308 116.594 41.0526C116.295 41.7744 116.155 42.5531 116.182 43.335C116.151 44.13 116.289 44.9226 116.588 45.6587C116.887 46.3949 117.339 47.0574 117.914 47.6011C119.133 48.7163 120.738 49.3018 122.382 49.2307C123.245 49.2434 124.103 49.0989 124.916 48.8041C125.136 48.723 125.351 48.626 125.557 48.514L125.693 48.4543C126.36 48.2239 127.204 48.1386 127.204 49.1539V50.8604C127.203 51.1492 127.124 51.4321 126.975 51.6787C126.826 51.9253 126.613 52.1261 126.36 52.2597C126.081 52.4047 125.794 52.5327 125.515 52.6607C124.288 53.1296 122.984 53.3611 121.672 53.3432C119.844 53.3588 118.042 52.913 116.427 52.0464C116.048 51.845 115.681 51.6199 115.329 51.3723C114.3 50.6153 113.437 49.6507 112.796 48.5396C111.877 46.9708 111.409 45.1745 111.444 43.352C111.416 41.552 111.884 39.7794 112.796 38.2327C113.679 36.7493 114.954 35.5438 116.478 34.7516C118.069 33.9243 119.832 33.4915 121.622 33.4888H121.917C122.196 33.4888 122.483 33.4888 122.762 33.4888C124.873 33.5836 126.918 34.2624 128.674 35.4512C129.978 36.3114 131.065 37.4676 131.848 38.8275C132.631 40.1874 133.089 41.7135 133.184 43.2838L133.218 51.1249Z" fill="#1A193C"/>
<defs>
<linearGradient id="paint0_linear" x1="46.9917" y1="8.22957" x2="74.1022" y2="8.00006" gradientUnits="userSpaceOnUse">
<stop stop-color="#FFD500"/>
<stop offset="1" stop-color="#FF9200"/>
</linearGradient>
<linearGradient id="paint1_linear" x1="2086.57" y1="960" x2="2504.85" y2="960" gradientUnits="userSpaceOnUse">
<stop stop-color="#FFD500"/>
<stop offset="1" stop-color="#FF9200"/>
</linearGradient>
</defs>
</svg>
