<svg width="327" height="59" viewBox="0 0 327 59" fill="none" xmlns="http://www.w3.org/2000/svg">
<path d="M13.6148 9.73331H2.2012C1.91742 9.74419 1.63434 9.69822 1.36877 9.59813C1.1032 9.49805 0.860548 9.34589 0.655229 9.1507C0.449909 8.9555 0.286107 8.72125 0.17355 8.46185C0.0609922 8.20245 0.00197412 7.92319 0 7.64066L0 5.45066C0 4.88705 0.22504 4.34652 0.625613 3.94799C1.02619 3.54946 1.56948 3.32556 2.13598 3.32556H32.7245C33.2881 3.32984 33.8272 3.55563 34.2243 3.9537C34.6213 4.35177 34.8441 4.88985 34.8441 5.45066V7.64066C34.8398 8.19715 34.6146 8.72939 34.2176 9.12139C33.8205 9.51338 33.2838 9.73333 32.7245 9.73331H21.1967V42.0641C21.1967 42.6249 20.9739 43.163 20.5769 43.5611C20.1798 43.9591 19.6407 44.1849 19.077 44.1892H15.7345C15.1708 44.1849 14.6317 43.9591 14.2346 43.5611C13.8376 43.163 13.6148 42.6249 13.6148 42.0641V9.73331Z" fill="white"/>
<path d="M77.2538 42.5507C74.7442 41.2556 72.6531 39.2819 71.2209 36.8567C69.7471 34.3551 68.9914 31.4991 69.036 28.5997C68.9915 25.7105 69.7475 22.865 71.2209 20.375C72.6511 17.968 74.7295 16.0069 77.2212 14.7135C79.929 13.3172 82.944 12.6147 85.9934 12.6695C88.8257 12.5965 91.6304 13.2383 94.146 14.5351C95.6855 15.3425 97.0315 16.4714 98.0918 17.8444C98.2979 18.0849 98.4475 18.3682 98.5296 18.6736C98.6118 18.9789 98.6244 19.2987 98.5666 19.6095C98.5088 19.9203 98.382 20.2144 98.1955 20.4703C98.009 20.7262 97.7675 20.9375 97.4885 21.0888L95.3689 22.3055C94.9445 22.5491 94.4487 22.6402 93.9648 22.5634C93.4809 22.4866 93.0383 22.2466 92.7111 21.8837C92.0486 21.1254 91.253 20.4933 90.3632 20.0181C88.5536 19.0927 86.499 18.7516 84.4854 19.0423C82.4718 19.3331 80.5994 20.2412 79.1289 21.6404C78.2175 22.5765 77.5086 23.6884 77.0459 24.9077C76.5831 26.127 76.3765 27.4276 76.4386 28.7294C76.391 30.0074 76.6016 31.2818 77.0582 32.4772C77.5147 33.6726 78.2078 34.7647 79.0963 35.6888C80.5793 37.078 82.4565 37.979 84.4724 38.2693C86.4883 38.5595 88.5452 38.2249 90.3632 37.311C91.2495 36.8306 92.0442 36.1992 92.7111 35.4454C93.0344 35.0772 93.4763 34.8322 93.9611 34.7523C94.4459 34.6724 94.9435 34.7626 95.3689 35.0074L97.4722 36.2241C97.7337 36.379 97.9592 36.5873 98.1338 36.8353C98.3083 37.0833 98.4281 37.3653 98.4851 37.6627C98.5421 37.9601 98.5351 38.2661 98.4645 38.5606C98.3939 38.8551 98.2613 39.1314 98.0755 39.3712C96.9853 40.7535 95.6198 41.8968 94.0645 42.7292C91.5791 44.0318 88.8019 44.6849 85.9934 44.6272C82.9523 44.6666 79.949 43.953 77.2538 42.5507Z" fill="white"/>
<path d="M132.691 16.1086C131.414 14.9383 129.916 14.0318 128.285 13.4415C126.653 12.8511 124.92 12.5887 123.185 12.6695C121.155 12.6419 119.138 12.9884 117.234 13.6915C115.533 14.3235 114 15.3333 112.75 16.6439V1.20044C112.748 0.96455 112.676 0.734494 112.543 0.539009C112.411 0.343524 112.223 0.191277 112.004 0.101283C111.785 0.0112896 111.544 -0.0124607 111.311 0.0329989C111.078 0.0784585 110.864 0.191113 110.696 0.35689L106.897 4.13665C105.948 5.0784 105.415 6.35624 105.413 7.68931V42.0641C105.413 42.3487 105.47 42.6304 105.581 42.8926C105.693 43.1547 105.856 43.392 106.061 43.5902C106.267 43.7884 106.51 43.9435 106.777 44.0464C107.043 44.1493 107.328 44.1979 107.614 44.1892H110.679C111.246 44.1892 111.789 43.9653 112.19 43.5667C112.59 43.1682 112.815 42.6277 112.815 42.0641V28.4212C112.651 25.88 113.494 23.3758 115.163 21.4457C116 20.6218 117.002 19.9811 118.102 19.5649C119.203 19.1486 120.379 18.9659 121.555 19.0286C122.557 18.9729 123.56 19.1276 124.498 19.4825C125.436 19.8374 126.289 20.3847 127.001 21.0888C128.409 22.8185 129.103 25.0168 128.941 27.237V42.0478C128.941 42.6087 129.164 43.1467 129.561 43.5448C129.958 43.9429 130.497 44.1687 131.061 44.1729H134.143C134.706 44.1687 135.245 43.9429 135.642 43.5448C136.039 43.1467 136.262 42.6087 136.262 42.0478V26.3123C136.262 21.8134 135.072 18.4122 132.691 16.1086Z" fill="white"/>
<path d="M326.984 42.1776C327.017 42.6776 326.872 43.1732 326.573 43.5769C326.275 43.9805 325.843 44.2664 325.353 44.3838C324.505 44.549 323.642 44.6305 322.777 44.6272C321.396 44.7067 320.014 44.5125 318.709 44.0558C317.405 43.599 316.205 42.8889 315.179 41.9667C314.234 40.9691 313.505 39.7892 313.037 38.5002C312.568 37.2111 312.371 35.8402 312.456 34.4721V7.68931C312.455 6.35891 312.982 5.08205 313.923 4.13665L314.853 3.22821L317.641 0.35689C317.81 0.191113 318.024 0.0784585 318.256 0.0329989C318.489 -0.0124607 318.73 0.0112896 318.949 0.101283C319.168 0.191277 319.356 0.343524 319.489 0.539009C319.621 0.734494 319.693 0.96455 319.695 1.20044V33.9205C319.695 37.0352 321.163 38.5763 324.098 38.5763H324.587C324.87 38.5542 325.154 38.5879 325.424 38.6755C325.693 38.7631 325.943 38.9029 326.158 39.0868C326.373 39.2708 326.55 39.4952 326.678 39.7472C326.805 39.9993 326.882 40.2739 326.902 40.5554L326.984 42.1776Z" fill="white"/>
<path d="M198.727 6.2942L182.699 42.9076C182.534 43.2876 182.261 43.6114 181.913 43.8391C181.566 44.0667 181.159 44.1884 180.743 44.1892H176.096C175.682 44.1878 175.277 44.0676 174.93 43.8432C174.583 43.6188 174.308 43.2996 174.139 42.9238L157.981 6.2942C157.84 5.97117 157.783 5.61852 157.813 5.26788C157.844 4.91725 157.961 4.57963 158.155 4.28532C158.349 3.99102 158.613 3.74925 158.924 3.58173C159.236 3.41421 159.584 3.32618 159.937 3.32554H163.557C163.973 3.32629 164.38 3.44798 164.728 3.67565C165.075 3.90332 165.348 4.22706 165.514 4.60709L178.558 34.8452L191.781 4.60709C191.946 4.22706 192.22 3.90332 192.567 3.67565C192.915 3.44798 193.322 3.32629 193.738 3.32554H196.722C197.081 3.31363 197.438 3.39287 197.758 3.55579C198.078 3.7187 198.351 3.95995 198.552 4.25684C198.752 4.55373 198.873 4.8965 198.904 5.25291C198.935 5.60931 198.874 5.96764 198.727 6.2942Z" fill="white"/>
<path d="M229.903 20.375C229.642 19.9533 229.365 19.5315 229.071 19.1421C229.016 19.0585 228.941 18.9897 228.853 18.9421C228.765 18.8945 228.666 18.8696 228.566 18.8696C228.465 18.8696 228.366 18.8945 228.278 18.9421C228.19 18.9897 228.115 19.0585 228.06 19.1421C227.14 20.7945 225.653 22.0616 223.87 22.711C223.785 22.7383 223.708 22.7838 223.643 22.8443C223.579 22.9047 223.528 22.9787 223.495 23.0608C223.463 23.1429 223.449 23.2312 223.454 23.3194C223.46 23.4075 223.485 23.4934 223.527 23.5708C224.311 25.1364 224.702 26.8673 224.669 28.6159C224.726 29.9207 224.519 31.2237 224.059 32.4471C223.6 33.6706 222.898 34.7896 221.995 35.7374C221.141 36.666 220.092 37.3959 218.922 37.8754C217.753 38.3548 216.492 38.572 215.228 38.5114C212.979 38.4497 210.811 37.6642 209.048 36.2728C208.824 36.088 208.562 35.9545 208.28 35.8816C207.999 35.8088 207.704 35.7983 207.418 35.851C206.503 36.0496 205.648 36.4601 204.923 37.0493C204.198 37.6384 203.622 38.3894 203.244 39.2414C203.144 39.4707 203.119 39.7252 203.171 39.9694C203.224 40.2137 203.352 40.4356 203.537 40.6041C204.479 41.4373 205.513 42.1611 206.619 42.7616C209.308 44.1158 212.279 44.8214 215.293 44.8214C218.307 44.8214 221.279 44.1158 223.968 42.7616C226.439 41.4267 228.493 39.4396 229.903 37.019C231.357 34.4813 232.101 31.6017 232.055 28.6808C232.1 25.7702 231.356 22.9014 229.903 20.375Z" fill="url(#paint0_linear)"/>
<path d="M223.951 14.6C221.262 13.2458 218.291 12.5402 215.277 12.5402C212.263 12.5402 209.292 13.2458 206.603 14.6C204.081 15.9218 201.985 17.9232 200.553 20.375C199.1 22.9014 198.357 25.7702 198.401 28.6808C198.356 31.6017 199.099 34.4813 200.553 37.019L200.88 37.5543C200.934 37.6415 201.009 37.7135 201.099 37.7635C201.189 37.8134 201.29 37.8397 201.393 37.8397C201.496 37.8397 201.597 37.8134 201.687 37.7635C201.777 37.7135 201.853 37.6415 201.907 37.5543C202.916 35.8666 204.53 34.6209 206.423 34.0665C206.508 34.0438 206.586 34.003 206.653 33.9471C206.72 33.8912 206.774 33.8215 206.811 33.7429C206.848 33.6642 206.868 33.5784 206.869 33.4914C206.869 33.4045 206.851 33.3184 206.815 33.2392C206.184 31.7858 205.873 30.215 205.902 28.6321C205.84 27.3296 206.042 26.028 206.496 24.8046C206.949 23.5812 207.646 22.4611 208.543 21.5106C209.411 20.6301 210.453 19.9388 211.604 19.4808C212.755 19.0228 213.989 18.808 215.228 18.8502C217.449 18.7878 219.616 19.5317 221.326 20.9428C221.46 21.0605 221.62 21.1453 221.792 21.1903C221.965 21.2354 222.146 21.2395 222.321 21.2024C223.295 21.0253 224.209 20.6071 224.979 19.9862C225.748 19.3654 226.348 18.5619 226.723 17.6497C226.823 17.4099 226.842 17.1442 226.777 16.8927C226.713 16.6412 226.568 16.4173 226.365 16.2546C225.613 15.631 224.805 15.0771 223.951 14.6Z" fill="white"/>
<path d="M306.064 22.3217C305.302 20.2053 304.07 18.2869 302.461 16.7088C300.547 14.8447 298.146 13.5521 295.531 12.9777C292.754 12.4002 289.878 12.4921 287.144 13.2456C284.409 13.999 281.896 15.3923 279.813 17.309C277.832 19.2146 276.421 21.6292 275.737 24.2846C275.029 27.0638 275.074 29.98 275.867 32.7363C276.569 35.5454 278.023 38.1129 280.074 40.1661C282.099 42.1484 284.649 43.5158 287.427 44.1081C290.197 44.6018 293.038 44.542 295.784 43.932C298.53 43.3221 301.127 42.1742 303.423 40.5554C304.636 39.6546 305.688 38.5579 306.537 37.311C306.838 36.8461 306.945 36.2828 306.836 35.7406C306.726 35.1984 306.408 34.7201 305.95 34.4072L304.319 33.3528C303.888 33.0464 303.356 32.916 302.831 32.9884C302.306 33.0608 301.83 33.3306 301.499 33.7421C299.883 35.661 297.696 37.0189 295.254 37.6192C293.272 38.2116 291.167 38.2676 289.156 37.7814C287.902 37.4683 286.743 36.8558 285.781 35.997C284.192 34.5211 283.085 32.6057 282.601 30.4977C282.194 29.2755 282.035 27.9853 282.133 26.7016C282.231 25.4179 282.584 24.1663 283.172 23.0192C283.756 21.9601 284.559 21.0364 285.529 20.3093C286.499 19.5822 287.613 19.0683 288.797 18.8015C290.727 18.2333 292.791 18.3189 294.667 19.0448C296.439 19.7626 297.915 21.0544 298.857 22.711L285.634 29.0863C285.301 29.262 285.039 29.5471 284.893 29.8932C284.747 30.2392 284.727 30.6248 284.835 30.9843C285.043 31.5748 285.293 32.1494 285.585 32.7039C285.785 33.0518 286.107 33.3139 286.489 33.4397C286.871 33.5655 287.287 33.5461 287.656 33.3852L305.004 24.9497C305.475 24.7178 305.843 24.3216 306.038 23.8369C306.234 23.3522 306.243 22.8128 306.064 22.3217Z" fill="white"/>
<path d="M64.5358 22.3217C63.7734 20.2053 62.5418 18.2869 60.9324 16.7088C59.0208 14.8419 56.6191 13.5487 54.0027 12.9777C51.3083 12.3791 48.5065 12.4571 45.8501 13.2048C43.039 13.9017 40.4593 15.3164 38.366 17.309C36.3596 19.222 34.9307 21.655 34.2408 24.3332C33.5328 27.1125 33.5778 30.0287 34.3713 32.785C35.0734 35.5941 36.5271 38.1615 38.578 40.2147C40.603 42.1971 43.1538 43.5645 45.9316 44.1567C49.0193 44.7879 52.2152 44.6598 55.2419 43.7836C57.6702 43.1508 59.9517 42.0544 61.9596 40.5554C63.1763 39.6588 64.2296 38.5615 65.0739 37.311C65.375 36.8461 65.4822 36.2828 65.3726 35.7406C65.263 35.1984 64.9453 34.7201 64.4869 34.4072L62.8564 33.3528C62.4228 33.0454 61.8875 32.9145 61.3601 32.9869C60.8327 33.0592 60.353 33.3294 60.0193 33.7421C58.4251 35.6827 56.2479 37.0642 53.807 37.6841C51.8249 38.2765 49.7199 38.3325 47.7089 37.8463C46.4599 37.5325 45.3068 36.92 44.35 36.0619C42.7617 34.586 41.6542 32.6705 41.1705 30.5625C40.3653 28.092 40.5703 25.4054 41.7412 23.0841C42.3094 22.0217 43.0971 21.0909 44.0526 20.3528C45.008 19.6147 46.1096 19.086 47.2849 18.8015C49.2146 18.2333 51.2793 18.3189 53.1548 19.0448C54.9234 19.7612 56.3951 21.0539 57.3289 22.711L43.7467 29.1999C43.5095 29.3188 43.323 29.5184 43.2213 29.7626C43.1195 30.0067 43.1093 30.2791 43.1923 30.5301C43.2285 30.6622 43.272 30.7922 43.3228 30.9194C43.5768 31.6637 43.9045 32.381 44.3011 33.0608C44.4389 33.3023 44.6632 33.4832 44.9291 33.5674C45.1951 33.6516 45.4832 33.6329 45.7359 33.515L63.476 24.8848C63.934 24.657 64.2937 24.2719 64.4885 23.8008C64.6833 23.3296 64.7001 22.8042 64.5358 22.3217Z" fill="white"/>
<path d="M270.258 39.4361C270.258 43.5078 269.59 48.8611 267.486 52.4138C266.087 54.6583 264.018 56.411 261.567 57.4265C259.014 58.5813 256.215 59.0992 253.415 58.9351H252.991C252.567 58.9351 252.127 58.9351 251.686 58.9351C251.246 58.9351 250.512 58.7891 249.942 58.6756C247.327 58.1811 244.857 57.1053 242.719 55.5285C241.917 54.9349 241.175 54.2668 240.501 53.5331C240.224 53.2461 240.062 52.8677 240.047 52.4698C240.032 52.072 240.165 51.6825 240.42 51.3756L242.393 48.9585C242.546 48.7776 242.737 48.6322 242.952 48.5325C243.167 48.4327 243.402 48.381 243.64 48.381C243.878 48.381 244.112 48.4327 244.328 48.5325C244.543 48.6322 244.734 48.7776 244.887 48.9585C245.282 49.4097 245.719 49.8225 246.192 50.1914C248.073 51.587 250.276 52.4906 252.6 52.8194C253.895 52.9586 255.206 52.8242 256.446 52.425C257.686 52.0257 258.827 51.3706 259.795 50.5024C260.763 49.6343 261.536 48.5726 262.064 47.3869C262.591 46.2011 262.861 44.918 262.855 43.6214C262.855 42.6643 263.035 27.7399 263.035 27.7399C263.076 26.5508 262.858 25.367 262.397 24.2694C261.935 23.1719 261.241 22.1865 260.361 21.3808C258.491 19.7107 256.04 18.8319 253.529 18.9313C250.998 18.8286 248.525 19.7067 246.632 21.3808C245.776 22.1698 245.097 23.1295 244.639 24.1973C244.181 25.2651 243.954 26.4169 243.974 27.5777C243.924 28.7856 244.135 29.9901 244.594 31.1096C245.052 32.2292 245.747 33.2376 246.632 34.0665C248.52 35.7524 250.993 36.6423 253.529 36.5485C254.858 36.5634 256.178 36.338 257.426 35.8834C257.759 35.754 258.086 35.6079 258.404 35.4454C258.468 35.3999 258.54 35.3669 258.616 35.3481C259.643 34.9912 260.931 34.8614 260.931 36.4025V38.9332C260.935 39.3672 260.82 39.7941 260.599 40.1683C260.378 40.5425 260.059 40.8501 259.676 41.0583C259.236 41.2692 258.795 41.4801 258.323 41.6585C256.434 42.3761 254.426 42.7338 252.404 42.7129C249.597 42.7513 246.825 42.0993 244.333 40.815C243.766 40.5069 243.221 40.16 242.702 39.7767C241.094 38.6306 239.739 37.1673 238.724 35.4779C237.287 33.0928 236.542 30.3583 236.572 27.5777C236.521 24.8185 237.244 22.0997 238.659 19.7261C240.045 17.5285 242.014 15.7545 244.349 14.5999C246.845 13.3281 249.616 12.6821 252.42 12.7182H252.877C253.306 12.6938 253.736 12.6938 254.165 12.7182C257.421 12.8587 260.576 13.8917 263.279 15.703C265.294 17.0029 266.974 18.7539 268.186 20.8159C269.398 22.878 270.107 25.1937 270.258 27.5777V39.4361Z" fill="white"/>
<defs>
<linearGradient id="paint0_linear" x1="203.13" y1="31.8603" x2="232.12" y2="31.8603" gradientUnits="userSpaceOnUse">
<stop stop-color="#FFD500"/>
<stop offset="1" stop-color="#FF9200"/>
</linearGradient>
</defs>
</svg>
