<svg xmlns="http://www.w3.org/2000/svg" viewBox="0 0 347.38 129.46"><defs><style>.cls-1{fill:#1a193c;}.cls-2{fill:#414042;}.cls-3{fill:#fff;}.cls-4{fill:#3aa3ff;}</style></defs><g id="Layer_2" data-name="Layer 2"><g id="Layer_1-2" data-name="Layer 1"><path class="cls-1" d="M151.45,19.9C139.91,15.32,139.27,6.77,140,1.75c8.62,2.11,16.32,6.27,21.83,13.16C161.87,14.91,163.59,16,151.45,19.9Z"/><path class="cls-2" d="M110.27,31.93a65.06,65.06,0,0,0-8.38,10.48l-3.42,5.23S87.94,51,90.57,38.31c0,0,1.91-11.19,1.92-15.52S89.16,12.39,97.3,9.07A25,25,0,0,1,100.72,8s0,0,0,0c3.72,3.07,10.23,8.69,8.16,16.36-.85,3.15-.21,5.6,1,7.15A5.67,5.67,0,0,0,110.27,31.93Z"/><path class="cls-3" d="M110.27,31.93a65.06,65.06,0,0,0-8.38,10.48l-3.42,5.23S87.94,51,90.57,38.31c0,0,1.91-11.19,1.92-15.52S89.16,12.39,97.3,9.07A25,25,0,0,1,100.72,8s0,0,0,0c3.72,3.07,10.23,8.69,8.16,16.36-.85,3.15-.21,5.6,1,7.15A5.67,5.67,0,0,0,110.27,31.93Z"/><path class="cls-4" d="M151.45,19.9c-5.83,1.85-14.85,4.33-28.78,7.62a34.24,34.24,0,0,0-11.1,5.38h0l-.54-.24h0a6.7,6.7,0,0,1-1.11-1.16c-1.22-1.55-1.86-4-1-7.15C111,16.67,104.46,11.05,100.74,8c0,0,0,0,0,0A25.43,25.43,0,0,0,96,4.82l-.1-.05.48-.15C109.81.25,126.14-1.66,140,1.75,139.27,6.77,139.91,15.32,151.45,19.9Z"/><circle class="cls-4" cx="98.6" cy="14.66" r="4.02"/><circle class="cls-1" cx="98.6" cy="14.66" r="2.35"/><path class="cls-1" d="M111.56,32.9C108,36.28,102.4,43.46,95.34,58.68l0,.06,0,0c-1,2.12-2,4.39-3,6.83a.08.08,0,0,1,0,0c-.29.58-.59,1.2-.92,1.82C88.06,75.87,79.59,89.15,58,95.8h0a8.78,8.78,0,0,1-1.33-.23,8.32,8.32,0,0,1-1.55-.45l-.74-.36A14.47,14.47,0,0,1,51.49,93s-.61-.72-1.07-1.28l-.49-.58-.06-.07h0c6.08-10.42,6-13.9,9.45-23.23A31.35,31.35,0,0,1,47,70.44c-8.14,0-15-3.19-21.22-8.22-1-.84-1.81-1.73-1.49-3.11s1.47-1.82,2.74-2.1c1.8-.4,3.58-.89,5.36-1.35A30,30,0,0,0,28,54.44c-7.22-1.79-13.23-5.28-16.86-12.07-1.45-2.7-.29-4.88,2.72-5.29,1.66-.22,3.29-.63,5.19-1l-1.45-.86C12.59,32.2,8,28.75,4.43,24A21.44,21.44,0,0,1,.48,6.29C.91,4.13,3,3.26,4.66,4.61c6.18,5,13.38,7.41,21.1,8.32s15.6,1.35,23.41,2.12c5.48.53,10.85,1.54,15.65,4.51a18.76,18.76,0,0,1,6.61,6.88l.88.49c3.11-.34,6.61-2.48,10.12-8.11h0C84.86,13.3,87.62,8.25,90,7.08a52.7,52.7,0,0,1,6-2.26A25.43,25.43,0,0,1,100.72,8,25,25,0,0,0,97.3,9.07c-8.14,3.32-4.79,9.29-4.81,13.72s-1.92,15.52-1.92,15.52c-2.63,12.71,7.9,9.33,7.9,9.33l3.42-5.23a65.06,65.06,0,0,1,8.38-10.48,5.7,5.7,0,0,0,.75.72h0Z"/><path class="cls-2" d="M49.93,91.18l-.09,0,0,0Z"/><path class="cls-1" d="M55.28,103.28a2,2,0,0,0-.05.24l-4,16.47s-12.89,1.31-13.12-6c-3.38-1.7-7.31-4.68-5.72-8.87l9.35-5.27-9.17,2.24S25.44,91.13,32,87.59L44.13,90C43.12,98.27,55.23,103.52,55.28,103.28Z"/><path class="cls-4" d="M58,95.79h0a40.79,40.79,0,0,0-2.57,7.09c0,.13-.07.26-.1.39S43.12,98.27,44.13,90l5.74,1.08h0l.06.07.49.58c.46.56,1.06,1.28,1.07,1.28a14.47,14.47,0,0,0,2.84,1.71l.74.36a8.32,8.32,0,0,0,1.55.45A8.78,8.78,0,0,0,58,95.79Z"/><path class="cls-1" d="M193.51,15.75H181.69a2.19,2.19,0,0,1-2.19-2.19V11.3a2.19,2.19,0,0,1,2.19-2.19h31.48a2.19,2.19,0,0,1,2.19,2.19v2.26a2.19,2.19,0,0,1-2.19,2.19H201.35V49.17a2.19,2.19,0,0,1-2.19,2.19H195.7a2.19,2.19,0,0,1-2.19-2.19Z"/><path class="cls-1" d="M259,49.67a15.53,15.53,0,0,1-6.22-5.88,16.48,16.48,0,0,1-2.23-8.55,16.31,16.31,0,0,1,2.23-8.51A15.65,15.65,0,0,1,259,20.88a18.8,18.8,0,0,1,9-2.12,17.35,17.35,0,0,1,8.36,1.94,12.51,12.51,0,0,1,4.1,3.45,2.2,2.2,0,0,1-.63,3.23l-2.17,1.27a2.19,2.19,0,0,1-2.74-.44,8.73,8.73,0,0,0-2.42-1.93,10.11,10.11,0,0,0-11.56,1.63,9.86,9.86,0,0,0-2.78,7.33,9.93,9.93,0,0,0,2.75,7.34,10.16,10.16,0,0,0,11.59,1.63,8.92,8.92,0,0,0,2.42-1.93,2.18,2.18,0,0,1,2.74-.44l2.15,1.26a2.2,2.2,0,0,1,.62,3.24,13.18,13.18,0,0,1-4.13,3.48,17,17,0,0,1-8.3,2A18.87,18.87,0,0,1,259,49.67Z"/><path class="cls-1" d="M316,22.33a13.43,13.43,0,0,0-9.77-3.57,17,17,0,0,0-6.13,1.06,12.36,12.36,0,0,0-4.62,3.05V6.9A1.24,1.24,0,0,0,293.41,6L289.5,9.94A5.15,5.15,0,0,0,288,13.61V49.17a2.19,2.19,0,0,0,2.19,2.19h3.16a2.19,2.19,0,0,0,2.19-2.19V35.06q0-4.71,2.41-7.21a8.73,8.73,0,0,1,6.58-2.51,7.37,7.37,0,0,1,5.68,2.15q2,2.15,2,6.36V49.17a2.19,2.19,0,0,0,2.19,2.19h3.16a2.19,2.19,0,0,0,2.19-2.19V32.89Q319.72,25.89,316,22.33Z"/><path class="cls-1" d="M245.92,28.75a15.56,15.56,0,0,0-3.71-5.81,14.88,14.88,0,0,0-7.14-3.9,17.38,17.38,0,0,0-8.46.24,17.11,17.11,0,0,0-7.71,4.25,15.31,15.31,0,0,0-4.19,7.22,16.85,16.85,0,0,0,.12,8.74,16.69,16.69,0,0,0,4.34,7.68,15.2,15.2,0,0,0,7.56,4.07,21.74,21.74,0,0,0,16.47-3.6,13.71,13.71,0,0,0,3.19-3.32,2.17,2.17,0,0,0-.6-3l-1.61-1.11a2.17,2.17,0,0,0-2.92.41,12.11,12.11,0,0,1-6.43,4,12,12,0,0,1-6.26.18A8.28,8.28,0,0,1,225.1,43h0a11.18,11.18,0,0,1-3.28-5.69l0-.07a10.2,10.2,0,0,1,.59-7.73,8.81,8.81,0,0,1,5.8-4.36,9.22,9.22,0,0,1,6,.26,8.56,8.56,0,0,1,4.3,3.78l-14,6.78a1.14,1.14,0,0,0-.58,1.37c0,.14.09.28.14.41a13.85,13.85,0,0,0,1,2.22,1.15,1.15,0,0,0,1.49.46l18.25-8.93A2.19,2.19,0,0,0,245.92,28.75Z"/><path class="cls-1" d="M347.37,107A2.81,2.81,0,0,1,345.1,110a17.33,17.33,0,0,1-3.42.33q-6.45,0-10.06-3.53t-3.61-10V61.15A6.68,6.68,0,0,1,330,56.43l1.22-1.22L335,51.39a1.6,1.6,0,0,1,2.72,1.13V96.06q0,6.22,5.82,6.22l.64,0a2.84,2.84,0,0,1,3.07,2.64Z"/><path class="cls-1" d="M177.49,59.29l-21.24,48.76a2.83,2.83,0,0,1-2.58,1.69h-6.26a2.81,2.81,0,0,1-2.58-1.69L123.52,59.3a2.82,2.82,0,0,1,2.58-3.95h4.79a2.81,2.81,0,0,1,2.59,1.7l17.37,40.26L168.37,57A2.82,2.82,0,0,1,171,55.35h3.95A2.81,2.81,0,0,1,177.49,59.29Z"/><path class="cls-4" d="M218.85,78.05c-.34-.58-.7-1.13-1.08-1.66a.81.81,0,0,0-1.36.09,10.41,10.41,0,0,1-5.63,4.76.81.81,0,0,0-.45,1.14,14.35,14.35,0,0,1,1.51,6.72,13,13,0,0,1-3.53,9.48,11.47,11.47,0,0,1-8.94,3.61,13.8,13.8,0,0,1-8.19-3,2.62,2.62,0,0,0-2.21-.57,7.85,7.85,0,0,0-5.52,4.5,1.59,1.59,0,0,0,.39,1.83,20.56,20.56,0,0,0,4.08,2.86,25.38,25.38,0,0,0,23,0,20,20,0,0,0,7.95-7.64,21.56,21.56,0,0,0,2.86-11.09A21.33,21.33,0,0,0,218.85,78.05Z"/><path class="cls-1" d="M210.9,70.44a25.46,25.46,0,0,0-23,0A20.09,20.09,0,0,0,180,78.05a21.33,21.33,0,0,0-2.86,11A21.56,21.56,0,0,0,180,100.19c.14.24.28.48.43.71a.8.8,0,0,0,1.36,0,10.33,10.33,0,0,1,5.91-4.54.81.81,0,0,0,.52-1.11A14.8,14.8,0,0,1,187,89.1a13.07,13.07,0,0,1,3.49-9.49,11.85,11.85,0,0,1,8.9-3.6,12.07,12.07,0,0,1,8.06,2.79,1.57,1.57,0,0,0,1.32.34,7.86,7.86,0,0,0,5.84-4.74,1.58,1.58,0,0,0-.48-1.84A21.24,21.24,0,0,0,210.9,70.44Z"/><path class="cls-1" d="M319.66,80.63a20.19,20.19,0,0,0-4.77-7.48,19,19,0,0,0-9.2-5,23.55,23.55,0,0,0-20.81,5.77,19.72,19.72,0,0,0-5.39,9.3,22.87,22.87,0,0,0,5.74,21.14,19.65,19.65,0,0,0,9.73,5.23,28,28,0,0,0,21.2-4.63,17.33,17.33,0,0,0,4.11-4.28,2.79,2.79,0,0,0-.77-3.85l-2.08-1.43a2.81,2.81,0,0,0-3.76.52,17,17,0,0,1-16.33,5.4,10.66,10.66,0,0,1-4.47-2.39h0a14.53,14.53,0,0,1-4.22-7.33l0-.09q-1.53-5.72.75-9.94A11.37,11.37,0,0,1,296.81,76a11.92,11.92,0,0,1,7.77.33,11,11,0,0,1,5.53,4.87l-17.51,8.5a2,2,0,0,0-1.06,2.5v0a15.33,15.33,0,0,0,1,2.28,2.07,2.07,0,0,0,2.74.91l23-11.24A2.81,2.81,0,0,0,319.66,80.63Z"/><path class="cls-1" d="M262.51,104.53v.26h0A2.26,2.26,0,0,0,262.51,104.53Z"/><path class="cls-1" d="M262.51,104.53v.26h0A2.26,2.26,0,0,0,262.51,104.53Z"/><path class="cls-1" d="M262.51,104.53v.26h0A2.26,2.26,0,0,0,262.51,104.53Z"/><path class="cls-1" d="M272.22,103.41c0,5.42-.89,12.56-3.65,17.35a17,17,0,0,1-7.85,6.68,22.92,22.92,0,0,1-10.79,2l-.55,0h0c-.56,0-1.14-.05-1.72-.1a22.33,22.33,0,0,1-2.32-.33,23.44,23.44,0,0,1-9.56-4.19,22.6,22.6,0,0,1-2.92-2.6,2.18,2.18,0,0,1-.11-2.86l2.62-3.24a2.17,2.17,0,0,1,3.31-.07,11.66,11.66,0,0,0,1.72,1.63,18.31,18.31,0,0,0,8.49,3.5,12.12,12.12,0,0,0,9.26-2.85c3.25-2.76,3.94-5.54,4.32-9.4a0,0,0,0,0,0,0c.1-1.29.23-21.14.23-21.14a11,11,0,0,0-3.54-8.47A12.79,12.79,0,0,0,250.07,76a12.92,12.92,0,0,0-9.13,3.27,11,11,0,0,0-3.53,8.47,11.22,11.22,0,0,0,3.53,8.58,12.85,12.85,0,0,0,9.13,3.3,14.49,14.49,0,0,0,5.15-.87h0a11.83,11.83,0,0,0,1.31-.58,1.43,1.43,0,0,1,.28-.13c1.35-.46,3.07-.64,3.07,1.42v3.39a3.18,3.18,0,0,1-1.68,2.81,17.75,17.75,0,0,1-1.77.81,21.44,21.44,0,0,1-7.85,1.4,22.4,22.4,0,0,1-10.68-2.53,19.55,19.55,0,0,1-2.25-1.37h0a18.91,18.91,0,0,1-5.27-5.73,19.9,19.9,0,0,1-2.76-10.48,19.7,19.7,0,0,1,2.76-10.45,18.68,18.68,0,0,1,7.54-7,22.84,22.84,0,0,1,10.68-2.48h.6c.57,0,1.14,0,1.72,0a23.51,23.51,0,0,1,12.07,4,20.36,20.36,0,0,1,9.23,15.83Z"/></g></g></svg>