<svg xmlns="http://www.w3.org/2000/svg" xmlns:xlink="http://www.w3.org/1999/xlink" viewBox="0 0 384.19 143.18"><defs><style>.cls-1{fill:#1a193c;}.cls-2{fill:#414042;}.cls-3{fill:#fff;}.cls-4{fill:url(#linear-gradient);}.cls-5{fill:#3aa3ff;}.cls-6{fill:url(#linear-gradient-2);}</style><linearGradient id="linear-gradient" x1="141.59" y1="5" x2="219.25" y2="5" gradientTransform="translate(-35.48 14.62) rotate(-0.49)" gradientUnits="userSpaceOnUse"><stop offset="0" stop-color="#3aa3ff"/><stop offset="0.24" stop-color="#3aa0fc"/><stop offset="0.43" stop-color="#3b96f2"/><stop offset="0.59" stop-color="#3c86e2"/><stop offset="0.75" stop-color="#3e6fcc"/><stop offset="0.89" stop-color="#4152ae"/><stop offset="1" stop-color="#433693"/></linearGradient><linearGradient id="linear-gradient-2" x1="202.74" y1="103.21" x2="255.1" y2="103.21" gradientTransform="matrix(1, 0, 0, 1, 0, 0)" xlink:href="#linear-gradient"/></defs><g id="Layer_2" data-name="Layer 2"><g id="Layer_1-2" data-name="Layer 1"><path class="cls-1" d="M167.5,22C154.73,16.94,154,7.48,154.88,1.93c9.53,2.34,18.05,6.94,24.15,14.56C179,16.49,180.92,17.74,167.5,22Z"/><path class="cls-2" d="M122,35.31a72,72,0,0,0-9.26,11.6l-3.78,5.78s-11.65,3.74-8.74-10.32c0,0,2.11-12.37,2.12-17.16S98.6,13.7,107.61,10a27.18,27.18,0,0,1,3.79-1.22h0c4.11,3.4,11.31,9.62,9,18.1-.94,3.49-.23,6.2,1.11,7.91C121.69,35,121.83,35.17,122,35.31Z"/><path class="cls-3" d="M122,35.31a72,72,0,0,0-9.26,11.6l-3.78,5.78s-11.65,3.74-8.74-10.32c0,0,2.11-12.37,2.12-17.16S98.6,13.7,107.61,10a27.18,27.18,0,0,1,3.79-1.22h0c4.11,3.4,11.31,9.62,9,18.1-.94,3.49-.23,6.2,1.11,7.91C121.69,35,121.83,35.17,122,35.31Z"/><path class="cls-4" d="M167.5,22c-6.45,2.05-16.42,4.8-31.83,8.43a37.84,37.84,0,0,0-12.28,6h0l-.6-.27h0a6.94,6.94,0,0,1-.83-.8c-.12-.14-.26-.3-.4-.48-1.34-1.71-2-4.42-1.11-7.91,2.29-8.48-4.91-14.7-9-18.1h0a28.67,28.67,0,0,0-5.26-3.48l-.11,0,.53-.17C121.45.28,139.5-1.84,154.88,1.93,154,7.48,154.73,16.94,167.5,22Z"/><circle class="cls-5" cx="109.04" cy="16.21" r="4.44"/><circle class="cls-1" cx="109.04" cy="16.21" r="2.6"/><path class="cls-1" d="M123.39,36.39c-4,3.73-10.14,11.67-18,28.5l0,.07s0,0,0,.06c-1.1,2.35-2.21,4.86-3.36,7.55a.09.09,0,0,1,0,.05c-.32.64-.66,1.32-1,2-3.61,9.28-13,24-36.91,31.32h0a10,10,0,0,1-1.48-.25,10.65,10.65,0,0,1-1.72-.5l-.81-.4a16.58,16.58,0,0,1-3.15-1.89s-.67-.79-1.18-1.42l-.54-.64-.07-.08h0c6.73-11.53,6.69-15.38,10.46-25.7A34.89,34.89,0,0,1,52,77.91c-9,0-16.62-3.54-23.48-9.1-1.13-.92-2-1.91-1.64-3.44s1.62-2,3-2.31c2-.45,3.95-1,5.93-1.5A32.17,32.17,0,0,0,31,60.21c-8-2-14.63-5.84-18.65-13.35-1.6-3-.32-5.4,3-5.85,1.83-.25,3.63-.69,5.74-1.1l-1.6-1C13.92,35.62,8.79,31.8,4.89,26.53A23.78,23.78,0,0,1,.53,7C1,4.57,3.29,3.61,5.15,5.1,12,10.58,20,13.29,28.48,14.3s17.27,1.49,25.89,2.34c6.07.59,12,1.71,17.32,5A20.64,20.64,0,0,1,79,29.24l1,.54c3.45-.37,7.31-2.74,11.2-9h0c2.68-6.1,5.74-11.68,8.36-13a58.58,58.58,0,0,1,6.61-2.5,28.67,28.67,0,0,1,5.26,3.48A27.18,27.18,0,0,0,107.61,10c-9,3.67-5.3,10.27-5.32,15.18s-2.12,17.16-2.12,17.16c-2.91,14.06,8.74,10.32,8.74,10.32l3.78-5.78A72,72,0,0,1,122,35.31a6.94,6.94,0,0,0,.83.8h0Z"/><path class="cls-2" d="M55.22,100.84l-.1,0,0-.06Z"/><path class="cls-1" d="M61.14,114.23l-.06.26-4.4,18.21S42.42,134.15,42.17,126c-3.73-1.89-8.09-5.18-6.33-9.82l10.34-5.83-10.13,2.49s-7.91-12.09-.67-16L48.8,99.56C47.69,108.68,61.08,114.49,61.14,114.23Z"/><path class="cls-5" d="M64.1,105.94h0a44.32,44.32,0,0,0-2.84,7.83c0,.15-.07.29-.11.44S47.69,108.68,48.8,99.56l6.35,1.2h0l.07.08.54.64c.51.63,1.18,1.42,1.18,1.42a16.58,16.58,0,0,0,3.15,1.89l.81.4a10.65,10.65,0,0,0,1.72.5A10,10,0,0,0,64.1,105.94Z"/><path class="cls-1" d="M214,17.42H201A2.43,2.43,0,0,1,198.52,15v-2.5A2.43,2.43,0,0,1,201,10.07h34.81a2.43,2.43,0,0,1,2.42,2.42V15a2.43,2.43,0,0,1-2.42,2.43H222.69v37a2.42,2.42,0,0,1-2.42,2.42h-3.84A2.42,2.42,0,0,1,214,54.38Z"/><path class="cls-1" d="M286.44,54.93a17.08,17.08,0,0,1-6.87-6.5A18.18,18.18,0,0,1,277.1,39a18,18,0,0,1,2.47-9.41,17.29,17.29,0,0,1,6.84-6.48,20.83,20.83,0,0,1,10-2.34,19.29,19.29,0,0,1,9.25,2.14,13.78,13.78,0,0,1,4.52,3.82,2.42,2.42,0,0,1-.69,3.57l-2.4,1.4a2.4,2.4,0,0,1-3-.49,9.8,9.8,0,0,0-2.67-2.12,11.19,11.19,0,0,0-12.79,1.8A10.88,10.88,0,0,0,285.51,39a10.94,10.94,0,0,0,3,8.11,11.24,11.24,0,0,0,12.82,1.8A9.65,9.65,0,0,0,304,46.76a2.42,2.42,0,0,1,3-.49l2.38,1.39a2.43,2.43,0,0,1,.68,3.59,14.45,14.45,0,0,1-4.56,3.85,18.82,18.82,0,0,1-9.18,2.17A20.91,20.91,0,0,1,286.44,54.93Z"/><path class="cls-1" d="M349.53,24.69q-4.06-3.93-10.81-3.94a19,19,0,0,0-6.78,1.17,13.51,13.51,0,0,0-5.1,3.37V7.63a1.37,1.37,0,0,0-2.34-1L320.17,11a5.78,5.78,0,0,0-1.68,4.06V54.38a2.42,2.42,0,0,0,2.42,2.42h3.5a2.42,2.42,0,0,0,2.43-2.42V38.78q0-5.2,2.66-8A9.63,9.63,0,0,1,336.78,28a8.15,8.15,0,0,1,6.28,2.37q2.2,2.37,2.2,7V54.38a2.42,2.42,0,0,0,2.42,2.42h3.5a2.42,2.42,0,0,0,2.42-2.42v-18Q353.6,28.63,349.53,24.69Z"/><path class="cls-1" d="M272,31.8a17.53,17.53,0,0,0-4.1-6.43,16.41,16.41,0,0,0-7.9-4.31,19.21,19.21,0,0,0-9.36.26A19,19,0,0,0,242.1,26a16.9,16.9,0,0,0-4.64,8,18.69,18.69,0,0,0,.14,9.67,18.41,18.41,0,0,0,4.8,8.49,16.76,16.76,0,0,0,8.36,4.5,24,24,0,0,0,18.21-4A15.12,15.12,0,0,0,272.5,49a2.41,2.41,0,0,0-.66-3.32l-1.79-1.22a2.39,2.39,0,0,0-3.22.44,14.64,14.64,0,0,1-14,4.64A9.28,9.28,0,0,1,249,47.51h0a12.5,12.5,0,0,1-3.63-6.3l0-.08a11.26,11.26,0,0,1,.65-8.54,9.74,9.74,0,0,1,6.42-4.83,10.22,10.22,0,0,1,6.67.28,9.5,9.5,0,0,1,4.75,4.19l-15.46,7.5a1.26,1.26,0,0,0-.64,1.52l.15.45a14.61,14.61,0,0,0,1.12,2.45,1.25,1.25,0,0,0,1.64.5l20.18-9.87A2.41,2.41,0,0,0,272,31.8Z"/><path class="cls-1" d="M384.18,118.35a3.12,3.12,0,0,1-2.51,3.25,19.46,19.46,0,0,1-3.78.37c-4.76,0-8.46-1.3-11.13-3.91s-4-6.29-4-11V67.63a7.37,7.37,0,0,1,2.17-5.22l1.35-1.35,4.22-4.22a1.75,1.75,0,0,1,3,1.24v48.16c0,4.59,2.16,6.88,6.45,6.88.24,0,.48,0,.71,0A3.14,3.14,0,0,1,384,116Z"/><path class="cls-1" d="M196.3,65.58l-23.49,53.91a3.13,3.13,0,0,1-2.86,1.88H163a3.11,3.11,0,0,1-2.85-1.87L136.61,65.58a3.12,3.12,0,0,1,2.85-4.37h5.3a3.12,3.12,0,0,1,2.87,1.89l19.21,44.52,19.37-44.53a3.13,3.13,0,0,1,2.86-1.88h4.37A3.12,3.12,0,0,1,196.3,65.58Z"/><path class="cls-6" d="M242,86.32a19.23,19.23,0,0,0-1.2-1.83.88.88,0,0,0-1.49.09,11.52,11.52,0,0,1-6.23,5.27.89.89,0,0,0-.5,1.26,15.81,15.81,0,0,1,1.66,7.43,14.34,14.34,0,0,1-3.9,10.49,12.67,12.67,0,0,1-9.88,4,15.27,15.27,0,0,1-9.06-3.3,2.94,2.94,0,0,0-2.45-.63,8.68,8.68,0,0,0-6.1,5,1.76,1.76,0,0,0,.43,2,22.54,22.54,0,0,0,4.52,3.16,28,28,0,0,0,25.4,0,22.1,22.1,0,0,0,8.8-8.45,23.89,23.89,0,0,0,3.17-12.27A23.63,23.63,0,0,0,242,86.32Z"/><path class="cls-1" d="M233.24,77.9a28.13,28.13,0,0,0-25.4,0,22.16,22.16,0,0,0-8.8,8.42,23.53,23.53,0,0,0-3.17,12.22A23.79,23.79,0,0,0,199,110.81c.15.27.31.53.47.78a.89.89,0,0,0,1.51,0,11.45,11.45,0,0,1,6.54-5,.89.89,0,0,0,.57-1.22,16.39,16.39,0,0,1-1.33-6.79,14.41,14.41,0,0,1,3.86-10.49,13.07,13.07,0,0,1,9.84-4,13.31,13.31,0,0,1,8.91,3.09,1.78,1.78,0,0,0,1.46.38,8.67,8.67,0,0,0,6.46-5.25,1.75,1.75,0,0,0-.53-2A24.11,24.11,0,0,0,233.24,77.9Z"/><path class="cls-1" d="M353.53,89.18a22.26,22.26,0,0,0-5.28-8.27,21,21,0,0,0-10.16-5.55,26,26,0,0,0-23,6.39,21.69,21.69,0,0,0-6,10.27,24.16,24.16,0,0,0,.18,12.45,23.67,23.67,0,0,0,6.18,10.94,21.77,21.77,0,0,0,10.76,5.79,31,31,0,0,0,23.44-5.13,19.57,19.57,0,0,0,4.55-4.73,3.08,3.08,0,0,0-.86-4.26l-2.3-1.58a3.09,3.09,0,0,0-4.15.58,18.82,18.82,0,0,1-18.07,6,11.82,11.82,0,0,1-4.94-2.63h0a16,16,0,0,1-4.66-8.1l0-.11q-1.69-6.32.83-11A12.62,12.62,0,0,1,328.26,84a13.19,13.19,0,0,1,8.59.37A12.26,12.26,0,0,1,343,89.75l-19.36,9.39a2.28,2.28,0,0,0-1.18,2.78v0a18.75,18.75,0,0,0,1.08,2.51,2.29,2.29,0,0,0,3,1L352,93A3.1,3.1,0,0,0,353.53,89.18Z"/><path class="cls-1" d="M290.32,115.61v.28h0Z"/><path class="cls-1" d="M290.32,115.61v.28h0Z"/><path class="cls-1" d="M290.32,115.61v.28h0Z"/><path class="cls-1" d="M301.06,114.37c0,6-1,13.89-4,19.19a18.63,18.63,0,0,1-8.68,7.38,25.16,25.16,0,0,1-11.92,2.21l-.62,0h0c-.63,0-1.27-.06-1.91-.12a23.54,23.54,0,0,1-2.56-.37A25.78,25.78,0,0,1,260.71,138a24.62,24.62,0,0,1-3.23-2.87,2.42,2.42,0,0,1-.12-3.17l2.89-3.58a2.41,2.41,0,0,1,3.67-.08,13.15,13.15,0,0,0,1.9,1.81A20.37,20.37,0,0,0,275.2,134a13.52,13.52,0,0,0,10.26-3.15c3.58-3.06,4.34-6.13,4.77-10.4a0,0,0,0,0,0,0c.11-1.43.25-23.39.25-23.39a12.16,12.16,0,0,0-3.91-9.37,15.79,15.79,0,0,0-20.1,0A12.17,12.17,0,0,0,262.56,97a12.37,12.37,0,0,0,3.92,9.49,14.16,14.16,0,0,0,10.09,3.66,16.11,16.11,0,0,0,5.7-1h0a10.38,10.38,0,0,0,1.44-.65,1.79,1.79,0,0,1,.32-.13c1.49-.52,3.4-.72,3.4,1.56v3.75a3.52,3.52,0,0,1-1.86,3.11c-.64.33-1.29.63-2,.9a23.67,23.67,0,0,1-8.68,1.54,24.78,24.78,0,0,1-11.81-2.79,22,22,0,0,1-2.49-1.51l0,0a20.91,20.91,0,0,1-5.83-6.33,23.51,23.51,0,0,1,0-23.16,20.78,20.78,0,0,1,8.34-7.78,25.35,25.35,0,0,1,11.81-2.75h.67c.62,0,1.26,0,1.9,0a26,26,0,0,1,13.35,4.4,22.5,22.5,0,0,1,10.2,17.51Z"/></g></g></svg>