<svg width="163" height="29" viewBox="0 0 163 29" fill="none" xmlns="http://www.w3.org/2000/svg">
<path d="M6.78659 4.78416H1.09723C0.955779 4.7895 0.814672 4.76691 0.682292 4.71771C0.549912 4.66852 0.428958 4.59373 0.326612 4.49779C0.224267 4.40184 0.142616 4.2867 0.0865095 4.1592C0.0304029 4.0317 0.000984041 3.89443 0 3.75556L0 2.67912C0 2.40209 0.112176 2.13641 0.31185 1.94052C0.511524 1.74463 0.78234 1.63458 1.06472 1.63458H16.3122C16.5932 1.63669 16.8619 1.74766 17.0598 1.94333C17.2577 2.13899 17.3688 2.40347 17.3688 2.67912V3.75556C17.3666 4.02909 17.2544 4.2907 17.0565 4.48338C16.8585 4.67605 16.591 4.78416 16.3122 4.78416H10.5659V20.6756C10.566 20.9512 10.4549 21.2157 10.257 21.4114C10.0591 21.607 9.79032 21.718 9.50935 21.7201H7.84318C7.56221 21.718 7.29348 21.607 7.09556 21.4114C6.89764 21.2157 6.78658 20.9512 6.78659 20.6756V4.78416Z" fill="#1A193C"/>
<path d="M38.5088 20.9148C37.2579 20.2782 36.2155 19.3081 35.5016 18.116C34.7669 16.8864 34.3902 15.4826 34.4125 14.0575C34.3903 12.6374 34.7671 11.2387 35.5016 10.0149C36.2145 8.83173 37.2505 7.86782 38.4926 7.23206C39.8423 6.54575 41.3452 6.20045 42.8652 6.22739C44.277 6.19153 45.6751 6.50699 46.9291 7.14435C47.6965 7.54126 48.3674 8.09612 48.896 8.77097C48.9987 8.88921 49.0732 9.02845 49.1142 9.17854C49.1551 9.32863 49.1614 9.48579 49.1326 9.63857C49.1038 9.79135 49.0406 9.9359 48.9476 10.0617C48.8547 10.1875 48.7343 10.2913 48.5952 10.3657L47.5386 10.9637C47.3271 11.0835 47.08 11.1282 46.8388 11.0905C46.5976 11.0528 46.3769 10.9348 46.2138 10.7564C45.8836 10.3837 45.487 10.073 45.0434 9.83943C44.1414 9.38453 43.1173 9.21687 42.1135 9.35979C41.1098 9.50271 40.1765 9.94909 39.4435 10.6368C38.9892 11.0969 38.6358 11.6435 38.4051 12.2428C38.1745 12.8421 38.0715 13.4814 38.1024 14.1213C38.0787 14.7494 38.1837 15.3758 38.4113 15.9634C38.6389 16.551 38.9843 17.0878 39.4272 17.5419C40.1665 18.2248 41.1022 18.6677 42.1071 18.8103C43.1119 18.953 44.1372 18.7885 45.0434 18.3393C45.4853 18.1032 45.8814 17.7928 46.2138 17.4223C46.375 17.2414 46.5952 17.1209 46.8369 17.0817C47.0785 17.0424 47.3266 17.0867 47.5386 17.207L48.5871 17.8051C48.7174 17.8812 48.8298 17.9836 48.9168 18.1055C49.0039 18.2274 49.0636 18.366 49.092 18.5122C49.1204 18.6584 49.1169 18.8088 49.0817 18.9535C49.0465 19.0983 48.9804 19.2341 48.8878 19.3519C48.3444 20.0314 47.6637 20.5933 46.8884 21.0025C45.6496 21.6427 44.2652 21.9638 42.8652 21.9354C41.3493 21.9548 39.8523 21.604 38.5088 20.9148Z" fill="#1A193C"/>
<path d="M66.1428 7.91779C65.5062 7.34257 64.7596 6.89698 63.9463 6.60681C63.1329 6.31665 62.269 6.18769 61.4044 6.22738C60.3924 6.21381 59.3866 6.38412 58.4378 6.72972C57.59 7.04037 56.8256 7.5367 56.2027 8.18092V0.590046C56.2017 0.474098 56.1659 0.36102 56.0997 0.264934C56.0336 0.168848 55.94 0.0940148 55.8308 0.0497806C55.7215 0.00554653 55.6014 -0.00612733 55.4854 0.0162172C55.3694 0.0385618 55.2627 0.0939342 55.1786 0.175418L53.2849 2.03327C52.8122 2.49616 52.5462 3.12425 52.5453 3.77949V20.6756C52.5452 20.8155 52.5738 20.9539 52.6293 21.0828C52.6849 21.2116 52.7662 21.3282 52.8685 21.4257C52.9709 21.5231 53.0921 21.5994 53.2251 21.6499C53.358 21.7005 53.5 21.7244 53.6425 21.7201H55.1705C55.4529 21.7201 55.7237 21.61 55.9234 21.4142C56.1231 21.2183 56.2352 20.9526 56.2352 20.6756V13.9698C56.1532 12.7207 56.5733 11.4898 57.4056 10.5411C57.8229 10.1361 58.3219 9.82122 58.8706 9.61662C59.4193 9.41202 60.0055 9.32224 60.5917 9.35304C61.0912 9.32566 61.5911 9.40168 62.0588 9.57613C62.5264 9.75059 62.9515 10.0196 63.3063 10.3657C64.0084 11.2159 64.3542 12.2964 64.2735 13.3877V20.6676C64.2735 20.9432 64.3845 21.2077 64.5825 21.4034C64.7804 21.599 65.0491 21.71 65.3301 21.7121H66.8662C67.1472 21.71 67.4159 21.599 67.6138 21.4034C67.8117 21.2077 67.9228 20.9432 67.9228 20.6676V12.9332C67.9228 10.7218 67.3295 9.05004 66.1428 7.91779Z" fill="#1A193C"/>
<path d="M162.992 20.7314C163.008 20.9771 162.936 21.2207 162.787 21.4191C162.639 21.6176 162.423 21.758 162.179 21.8158C161.756 21.8969 161.326 21.937 160.895 21.9354C160.207 21.9745 159.518 21.879 158.867 21.6545C158.217 21.43 157.619 21.081 157.107 20.6277C156.637 20.1373 156.273 19.5574 156.04 18.9238C155.806 18.2902 155.708 17.6164 155.75 16.9439V3.77949C155.75 3.12556 156.013 2.49795 156.482 2.03327L156.945 1.58675L158.335 0.175418C158.419 0.0939342 158.526 0.0385618 158.641 0.0162172C158.757 -0.00612733 158.878 0.00554653 158.987 0.0497806C159.096 0.0940148 159.19 0.168848 159.256 0.264934C159.322 0.36102 159.358 0.474098 159.359 0.590046V16.6728C159.359 18.2037 160.09 18.9612 161.553 18.9612H161.797C161.938 18.9504 162.08 18.9669 162.214 19.01C162.349 19.0531 162.473 19.1218 162.58 19.2122C162.688 19.3026 162.776 19.4129 162.839 19.5368C162.903 19.6606 162.941 19.7957 162.951 19.934L162.992 20.7314Z" fill="#1A193C"/>
<path d="M99.0598 3.09378L91.0703 21.0902C90.988 21.277 90.8518 21.4361 90.6785 21.548C90.5053 21.6599 90.3024 21.7197 90.095 21.7201H87.7786C87.5723 21.7194 87.3706 21.6604 87.1976 21.5501C87.0246 21.4398 86.8877 21.2829 86.8033 21.0982L78.7488 3.09378C78.6788 2.935 78.6501 2.76166 78.6653 2.58932C78.6804 2.41698 78.739 2.25102 78.8357 2.10637C78.9324 1.96171 79.0642 1.84287 79.2192 1.76053C79.3743 1.67819 79.5478 1.63492 79.7241 1.63461H81.5284C81.7359 1.63498 81.9387 1.69479 82.112 1.8067C82.2853 1.9186 82.4214 2.07773 82.5038 2.26452L89.0059 17.1273L95.5974 2.26452C95.6798 2.07773 95.8159 1.9186 95.9892 1.8067C96.1625 1.69479 96.3653 1.63498 96.5727 1.63461H98.0601C98.2392 1.62876 98.4169 1.6677 98.5765 1.74778C98.736 1.82786 98.8722 1.94644 98.9722 2.09237C99.0721 2.23829 99.1326 2.40677 99.148 2.58196C99.1633 2.75714 99.1329 2.93327 99.0598 3.09378Z" fill="#1A193C"/>
<path d="M114.6 10.0149C114.47 9.80755 114.332 9.60023 114.185 9.40887C114.158 9.36773 114.121 9.33394 114.077 9.31055C114.033 9.28715 113.983 9.2749 113.933 9.2749C113.883 9.2749 113.834 9.28715 113.79 9.31055C113.746 9.33394 113.709 9.36773 113.681 9.40887C113.223 10.2211 112.481 10.8439 111.593 11.1631C111.551 11.1765 111.512 11.1988 111.48 11.2286C111.447 11.2583 111.422 11.2946 111.406 11.335C111.39 11.3753 111.383 11.4187 111.385 11.4621C111.388 11.5054 111.401 11.5476 111.422 11.5857C111.812 12.3552 112.008 13.206 111.991 14.0655C112.019 14.7068 111.916 15.3472 111.687 15.9486C111.458 16.55 111.108 17.1 110.658 17.5659C110.232 18.0223 109.709 18.3811 109.126 18.6167C108.544 18.8524 107.915 18.9591 107.285 18.9293C106.164 18.899 105.083 18.5129 104.205 17.829C104.093 17.7382 103.962 17.6726 103.822 17.6368C103.681 17.6009 103.534 17.5958 103.392 17.6217C102.936 17.7193 102.51 17.9211 102.148 18.2107C101.787 18.5002 101.5 18.8694 101.311 19.2882C101.261 19.4009 101.249 19.526 101.275 19.646C101.301 19.7661 101.365 19.8751 101.457 19.9579C101.927 20.3675 102.442 20.7233 102.994 21.0184C104.334 21.684 105.815 22.0309 107.317 22.0309C108.82 22.0309 110.301 21.684 111.641 21.0184C112.873 20.3623 113.897 19.3856 114.6 18.1958C115.325 16.9485 115.695 15.5331 115.673 14.0973C115.695 12.6667 115.324 11.2566 114.6 10.0149Z" fill="url(#paint0_linear)"/>
<path d="M111.633 7.17624C110.293 6.51064 108.812 6.16382 107.309 6.16382C105.807 6.16382 104.326 6.51064 102.985 7.17624C101.729 7.82599 100.684 8.80971 99.9701 10.0148C99.2456 11.2566 98.875 12.6667 98.8972 14.0973C98.8745 15.5331 99.245 16.9484 99.9701 18.1958L100.133 18.4589C100.16 18.5018 100.197 18.5372 100.242 18.5617C100.287 18.5863 100.337 18.5991 100.389 18.5991C100.44 18.5991 100.49 18.5863 100.535 18.5617C100.58 18.5372 100.618 18.5018 100.645 18.4589C101.148 17.6294 101.952 17.017 102.896 16.7446C102.938 16.7334 102.977 16.7133 103.011 16.6859C103.044 16.6584 103.071 16.6241 103.089 16.5855C103.108 16.5468 103.118 16.5046 103.118 16.4619C103.118 16.4191 103.109 16.3768 103.091 16.3379C102.777 15.6235 102.622 14.8514 102.636 14.0734C102.605 13.4332 102.706 12.7934 102.932 12.1921C103.158 11.5908 103.505 11.0402 103.953 10.573C104.385 10.1402 104.905 9.80042 105.479 9.5753C106.052 9.35017 106.667 9.24461 107.285 9.26533C108.392 9.23468 109.472 9.6003 110.325 10.2939C110.391 10.3518 110.471 10.3934 110.557 10.4156C110.643 10.4377 110.733 10.4398 110.821 10.4215C111.306 10.3345 111.762 10.1289 112.145 9.82374C112.529 9.51858 112.828 9.12362 113.015 8.67528C113.065 8.55738 113.074 8.42683 113.042 8.30319C113.01 8.17956 112.938 8.06951 112.836 7.98955C112.461 7.68301 112.059 7.41077 111.633 7.17624Z" fill="#1A193C"/>
<path d="M152.564 10.9717C152.184 9.93141 151.57 8.98846 150.768 8.21279C149.814 7.29654 148.617 6.66116 147.314 6.37887C145.929 6.09502 144.496 6.14016 143.133 6.51051C141.77 6.88086 140.517 7.56568 139.479 8.50782C138.491 9.44445 137.788 10.6313 137.447 11.9365C137.094 13.3025 137.116 14.7359 137.512 16.0907C137.862 17.4715 138.586 18.7334 139.609 19.7426C140.618 20.717 141.89 21.3891 143.274 21.6802C144.655 21.9229 146.071 21.8935 147.44 21.5937C148.809 21.2939 150.103 20.7297 151.247 19.934C151.852 19.4912 152.377 18.9522 152.8 18.3393C152.95 18.1108 153.003 17.8339 152.949 17.5674C152.894 17.3009 152.736 17.0658 152.507 16.912L151.694 16.3937C151.48 16.2431 151.214 16.179 150.953 16.2146C150.691 16.2502 150.453 16.3828 150.288 16.5851C149.483 17.5283 148.393 18.1957 147.175 18.4908C146.187 18.7819 145.138 18.8095 144.136 18.5705C143.511 18.4166 142.933 18.1155 142.453 17.6934C141.662 16.968 141.11 16.0265 140.868 14.9904C140.666 14.3896 140.586 13.7554 140.635 13.1245C140.684 12.4935 140.86 11.8783 141.153 11.3145C141.444 10.7939 141.845 10.3399 142.328 9.98252C142.811 9.62513 143.367 9.37251 143.957 9.24139C144.919 8.96213 145.948 9.0042 146.883 9.36099C147.766 9.71379 148.502 10.3487 148.972 11.163L142.38 14.2967C142.214 14.383 142.084 14.5231 142.011 14.6932C141.938 14.8633 141.928 15.0529 141.982 15.2296C142.086 15.5198 142.211 15.8022 142.356 16.0748C142.455 16.2458 142.616 16.3746 142.806 16.4365C142.997 16.4983 143.204 16.4887 143.388 16.4097L152.036 12.2634C152.27 12.1494 152.454 11.9547 152.551 11.7164C152.649 11.4782 152.653 11.213 152.564 10.9717Z" fill="#1A193C"/>
<path d="M32.1692 10.9717C31.7892 9.93144 31.1753 8.98849 30.373 8.21282C29.4202 7.29517 28.223 6.65957 26.9188 6.37889C25.5757 6.08463 24.1791 6.12299 22.855 6.49052C21.4537 6.83306 20.1678 7.52841 19.1244 8.50785C18.1242 9.44811 17.412 10.644 17.0681 11.9604C16.7152 13.3265 16.7376 14.7599 17.1331 16.1147C17.4831 17.4954 18.2077 18.7574 19.23 19.7666C20.2394 20.741 21.5109 21.4131 22.8956 21.7042C24.4347 22.0144 26.0278 21.9514 27.5365 21.5208C28.7469 21.2097 29.8842 20.6708 30.8851 19.934C31.4916 19.4933 32.0166 18.9539 32.4375 18.3393C32.5876 18.1108 32.641 17.8339 32.5864 17.5674C32.5317 17.3009 32.3733 17.0658 32.1449 16.912L31.3321 16.3937C31.116 16.2427 30.8491 16.1783 30.5862 16.2139C30.3234 16.2495 30.0843 16.3823 29.9179 16.5851C29.1232 17.539 28.038 18.218 26.8212 18.5227C25.8332 18.8139 24.784 18.8414 23.7815 18.6024C23.1589 18.4482 22.5842 18.1471 22.1072 17.7253C21.3155 16.9999 20.7635 16.0584 20.5223 15.0223C20.121 13.808 20.2231 12.4874 20.8068 11.3464C21.09 10.8242 21.4827 10.3667 21.9589 10.0039C22.4352 9.64112 22.9843 9.38127 23.5702 9.24142C24.5321 8.96216 25.5613 9.00423 26.4961 9.36102C27.3777 9.71316 28.1113 10.3485 28.5768 11.1631L21.8065 14.3525C21.6882 14.4109 21.5953 14.5091 21.5446 14.6291C21.4938 14.7491 21.4887 14.8829 21.5301 15.0063C21.5481 15.0713 21.5699 15.1352 21.5952 15.1977C21.7218 15.5635 21.8851 15.9161 22.0828 16.2502C22.1515 16.3689 22.2633 16.4578 22.3959 16.4992C22.5285 16.5406 22.6721 16.5314 22.7981 16.4735L31.6409 12.2315C31.8693 12.1196 32.0486 11.9303 32.1457 11.6987C32.2428 11.4671 32.2512 11.2089 32.1692 10.9717Z" fill="#1A193C"/>
<path d="M134.716 19.3838C134.716 21.3852 134.383 24.0165 133.334 25.7627C132.637 26.8659 131.605 27.7275 130.384 28.2266C129.111 28.7942 127.716 29.0488 126.32 28.9681H126.109C125.897 28.9681 125.678 28.9681 125.458 28.9681C125.239 28.9681 124.873 28.8963 124.589 28.8405C123.285 28.5975 122.054 28.0687 120.988 27.2937C120.589 27.0019 120.219 26.6735 119.883 26.3129C119.745 26.1718 119.664 25.9858 119.657 25.7902C119.649 25.5947 119.715 25.4033 119.842 25.2524L120.826 24.0643C120.902 23.9754 120.997 23.904 121.104 23.8549C121.212 23.8059 121.329 23.7805 121.447 23.7805C121.566 23.7805 121.683 23.8059 121.79 23.8549C121.898 23.904 121.993 23.9754 122.069 24.0643C122.266 24.2861 122.484 24.489 122.719 24.6703C123.657 25.3563 124.755 25.8005 125.914 25.9621C126.559 26.0305 127.213 25.9645 127.831 25.7682C128.449 25.572 129.018 25.25 129.5 24.8232C129.983 24.3965 130.368 23.8747 130.631 23.2919C130.894 22.709 131.028 22.0784 131.026 21.441C131.026 20.9706 131.115 13.6349 131.115 13.6349C131.136 13.0504 131.027 12.4685 130.797 11.9291C130.567 11.3896 130.221 10.9052 129.782 10.5092C128.85 9.68829 127.628 9.25635 126.377 9.3052C125.115 9.25473 123.883 9.68634 122.939 10.5092C122.512 10.897 122.174 11.3687 121.945 11.8936C121.717 12.4184 121.604 12.9846 121.614 13.5551C121.589 14.1488 121.694 14.7409 121.923 15.2912C122.151 15.8415 122.498 16.3371 122.939 16.7446C123.88 17.5732 125.113 18.0107 126.377 17.9645C127.039 17.9718 127.697 17.8611 128.319 17.6376C128.485 17.574 128.648 17.5022 128.807 17.4223C128.839 17.4 128.875 17.3837 128.913 17.3745C129.425 17.1991 130.067 17.1353 130.067 17.8928V19.1367C130.068 19.35 130.011 19.5598 129.901 19.7437C129.791 19.9277 129.632 20.0789 129.441 20.1812C129.221 20.2849 129.002 20.3885 128.766 20.4762C127.825 20.8289 126.824 21.0047 125.816 20.9945C124.417 21.0134 123.035 20.6929 121.793 20.0616C121.51 19.9102 121.239 19.7397 120.98 19.5513C120.178 18.9879 119.503 18.2687 118.997 17.4383C118.281 16.266 117.909 14.9219 117.924 13.5551C117.899 12.1989 118.259 10.8626 118.964 9.69591C119.655 8.61569 120.637 7.74373 121.801 7.17625C123.045 6.5511 124.426 6.23359 125.824 6.25131H126.052C126.266 6.23935 126.48 6.23935 126.694 6.25131C128.317 6.32039 129.889 6.82812 131.237 7.71845C132.241 8.35734 133.079 9.21803 133.683 10.2316C134.287 11.2451 134.641 12.3834 134.716 13.5551V19.3838Z" fill="#1A193C"/>
<defs>
<linearGradient id="paint0_linear" x1="101.254" y1="15.6602" x2="115.705" y2="15.6602" gradientUnits="userSpaceOnUse">
<stop stop-color="#FFD500"/>
<stop offset="1" stop-color="#FF9200"/>
</linearGradient>
</defs>
</svg>
