<svg width="72" height="72" viewBox="0 0 72 72" fill="none" xmlns="http://www.w3.org/2000/svg">
<path d="M36 72C55.8823 72 72 55.8823 72 36C72 16.1177 55.8823 0 36 0C16.1177 0 0 16.1177 0 36C0 55.8823 16.1177 72 36 72Z" fill="url(#paint0_linear)"/>
<g opacity="0.31">
<path opacity="0.31" d="M62.5381 25.9129C58.378 24.2611 58.1469 21.1546 58.4596 19.3737C61.5405 20.0331 64.3104 21.7089 66.3244 24.132C66.3244 24.132 66.9226 24.5194 62.5381 25.9129Z" fill="#1A193C"/>
<path opacity="0.31" d="M47.7127 30.2493C46.5816 31.4015 45.5703 32.6655 44.6946 34.0219L43.4642 35.9049C43.4642 35.9049 39.6712 37.1284 40.616 32.5469C40.9421 30.6955 41.169 28.828 41.2958 26.9525C41.2958 25.355 40.0926 23.207 43.0292 22.0106C43.4289 21.847 43.8402 21.713 44.2595 21.6096C45.619 22.7176 47.9438 24.7432 47.1961 27.5099C47.0527 27.9394 47.0131 28.3968 47.0805 28.8445C47.1478 29.2923 47.3202 29.7178 47.5835 30.0861L47.7127 30.2493Z" fill="#1A193C"/>
<path opacity="0.31" d="M47.7127 30.2493C46.5816 31.4015 45.5703 32.6655 44.6946 34.0219L43.4642 35.9049C43.4642 35.9049 39.6712 37.1284 40.616 32.5469C40.9421 30.6955 41.169 28.828 41.2958 26.9525C41.2958 25.355 40.0926 23.207 43.0292 22.0106C43.4289 21.847 43.8402 21.713 44.2595 21.6096C45.619 22.7176 47.9438 24.7432 47.1961 27.5099C47.0527 27.9394 47.0131 28.3968 47.0805 28.8445C47.1478 29.2923 47.3202 29.7178 47.5835 30.0861L47.7127 30.2493Z" fill="#1A193C"/>
<path opacity="0.31" d="M25.9672 51.5462L23.9279 51.1519H23.8395L19.5163 50.3022C17.1575 51.5734 19.7338 55.5092 19.7338 55.5092L23.0306 54.707L19.6318 56.6036C19.0608 58.1126 20.4747 59.1867 21.6711 59.7984C21.7527 62.4427 26.4294 61.9669 26.4294 61.9669L27.8705 56.0394V55.951C27.885 55.9042 27.8964 55.8565 27.9045 55.8083C27.9045 55.7267 27.9521 55.6383 27.9792 55.5499C28.0812 55.1965 28.1832 54.8702 28.2919 54.5779C28.5367 53.8981 28.7678 53.4087 28.8222 53.2864C27.7446 52.9439 26.7653 52.347 25.9672 51.5462ZM26.1031 51.7365L25.9808 51.5938L26.1031 51.7365Z" fill="#1A193C"/>
<path opacity="0.31" d="M48.1815 30.5898C46.9035 31.8133 44.8643 34.4032 42.3356 39.8821C41.9753 40.6502 41.615 41.4659 41.2411 42.3428C40.7687 43.333 40.2281 44.2892 39.6233 45.2046C39.237 45.793 38.8195 46.3602 38.3726 46.904C35.9068 49.9187 32.5908 52.1215 28.8559 53.2257C27.7598 52.902 26.759 52.3165 25.9398 51.5195C28.1218 47.7808 28.1082 46.5233 29.3386 43.1653C27.9896 43.7492 26.5394 44.0633 25.0697 44.0898H24.9201C24.4384 44.0919 23.957 44.0623 23.4791 44.0014C21.1811 43.6456 19.0301 42.649 17.2729 41.126C17.0794 41.0164 16.9243 40.8501 16.8282 40.6495C16.7322 40.449 16.7 40.2238 16.7359 40.0044C16.8514 39.5014 17.2661 39.3247 17.7215 39.2499C18.4013 39.1071 19.013 38.9236 19.652 38.7605C19.133 38.57 18.5985 38.4244 18.0546 38.3254C15.4579 37.6457 13.2963 36.4221 11.9843 33.975C11.8475 33.7971 11.7641 33.584 11.7438 33.3605C11.7235 33.137 11.7673 32.9123 11.8699 32.7127C11.9726 32.5132 12.1299 32.3469 12.3234 32.2334C12.517 32.1199 12.7389 32.0638 12.9632 32.0716C13.5614 31.9901 14.146 31.8405 14.8325 31.7114L14.3091 31.3987C12.469 30.3671 10.8517 28.9809 9.55081 27.3201C8.87801 26.431 8.4052 25.4071 8.16469 24.3183C7.92418 23.2296 7.92166 22.1018 8.1573 21.012C8.16709 20.8417 8.22484 20.6777 8.32387 20.5389C8.42291 20.4 8.55919 20.292 8.71699 20.2273C8.87478 20.1627 9.04766 20.1439 9.21565 20.1733C9.38364 20.2027 9.53989 20.279 9.66637 20.3934C11.8652 22.0956 14.5039 23.1355 17.2729 23.3911C20.0667 23.7174 22.8945 23.8737 25.7019 24.1525C27.6832 24.2483 29.615 24.8045 31.3439 25.7771C32.3391 26.3832 33.1591 27.2384 33.723 28.2582L34.0425 28.4281C35.1641 28.3126 36.4217 27.5376 37.686 25.512C38.5629 23.5203 39.5553 21.7053 40.405 21.2839C41.1053 20.9666 41.825 20.6941 42.5599 20.4682C43.1707 20.78 43.7452 21.1585 44.2729 21.5966C43.8511 21.6994 43.4376 21.8334 43.0357 21.9976C40.0991 23.194 41.3091 25.342 41.3023 26.9395C41.1746 28.815 40.9477 30.6824 40.6226 32.5339C39.6709 37.1154 43.464 35.8919 43.464 35.8919L44.6943 34.0089C45.5701 32.6525 46.5813 31.3884 47.7124 30.2363C47.8478 30.3796 48.0064 30.4991 48.1815 30.5898Z" fill="#1A193C"/>
<path opacity="0.31" d="M62.5377 25.9127C60.4373 26.5925 57.188 27.4693 52.1714 28.6317C50.7342 29.0385 49.3824 29.7017 48.1812 30.5894L47.9841 30.5011C47.8876 30.4213 47.7968 30.335 47.7122 30.2428L47.583 30.0864C47.3253 29.7166 47.1584 29.2912 47.0958 28.8447C47.0332 28.3983 47.0767 27.9434 47.2228 27.5169C47.9705 24.7503 45.6253 22.7586 44.2862 21.6166C43.7521 21.1839 43.176 20.8059 42.5664 20.4882L42.7363 20.4338C47.583 18.8568 53.4289 18.1431 58.4592 19.3734C58.1601 21.1816 58.3912 24.2609 62.5377 25.9127Z" fill="#1A193C"/>
<path opacity="0.31" d="M43.5114 25.4711C44.311 25.4711 44.9592 24.8229 44.9592 24.0232C44.9592 23.2236 44.311 22.5753 43.5114 22.5753C42.7117 22.5753 42.0635 23.2236 42.0635 24.0232C42.0635 24.8229 42.7117 25.4711 43.5114 25.4711Z" fill="#1A193C"/>
<path opacity="0.31" d="M43.5118 24.8727C43.9811 24.8727 44.3615 24.4923 44.3615 24.023C44.3615 23.5537 43.9811 23.1733 43.5118 23.1733C43.0425 23.1733 42.6621 23.5537 42.6621 24.023C42.6621 24.4923 43.0425 24.8727 43.5118 24.8727Z" fill="#1A193C"/>
<path opacity="0.31" d="M25.9665 51.5463L23.9272 51.1521H23.8389C24.4574 52.7971 26.1161 54.9383 28.0534 55.5433C28.1553 55.1898 28.2573 54.8635 28.3661 54.5713C28.6108 53.8915 28.8419 53.4021 28.8963 53.2797C27.7926 52.9502 26.7867 52.355 25.9665 51.5463Z" fill="#1A193C"/>
</g>
<path d="M62.2725 25.6405C58.1124 23.9955 57.8813 20.8822 58.1939 19.1013C61.2725 19.7666 64.0406 21.4414 66.0587 23.8596C66.0587 23.8596 66.6161 24.2538 62.2725 25.6405Z" fill="#1A193C"/>
<path d="M47.4405 29.9774C46.3036 31.127 45.2919 32.3939 44.4223 33.7569L43.1852 35.6398C43.1852 35.6398 39.3989 36.8566 40.3438 32.241C40.6664 30.3891 40.8933 28.5218 41.0236 26.6466C41.0236 25.0492 39.8204 22.9011 42.7501 21.7047C43.1516 21.5412 43.5653 21.4094 43.9873 21.3105C45.3468 22.4185 47.6716 24.4442 46.9238 27.2108C46.7777 27.6384 46.7342 28.0944 46.7968 28.5419C46.8594 28.9894 47.0263 29.416 47.2841 29.7871L47.4405 29.9774Z" fill="#414042"/>
<path d="M47.4405 29.9774C46.3036 31.127 45.2919 32.3939 44.4223 33.7569L43.1852 35.6398C43.1852 35.6398 39.3989 36.8566 40.3438 32.241C40.6664 30.3891 40.8933 28.5218 41.0236 26.6466C41.0236 25.0492 39.8204 22.9011 42.7501 21.7047C43.1516 21.5412 43.5653 21.4094 43.9873 21.3105C45.3468 22.4185 47.6716 24.4442 46.9238 27.2108C46.7777 27.6384 46.7342 28.0944 46.7968 28.5419C46.8594 28.9894 47.0263 29.416 47.2841 29.7871L47.4405 29.9774Z" fill="white"/>
<path d="M25.6879 51.2743L23.6146 50.8869H23.5262L19.237 50.0304C16.8782 51.3015 19.4545 55.2441 19.4545 55.2441L22.7581 54.4352L19.3593 56.3317C18.7883 57.8408 20.209 58.9148 21.3986 59.5266C21.4802 62.1709 26.1569 61.7018 26.1569 61.7018L27.6116 55.7403C27.6047 55.7113 27.6047 55.681 27.6116 55.652C27.6197 55.6059 27.6311 55.5605 27.6456 55.516C27.6456 55.4277 27.6932 55.3393 27.7136 55.2509C27.8155 54.8974 27.9243 54.5712 28.0262 54.2857C28.271 53.6059 28.5021 53.1097 28.5565 52.9941C27.4748 52.6623 26.4903 52.072 25.6879 51.2743ZM25.8238 51.4647C25.7796 51.4201 25.7387 51.3724 25.7015 51.3219L25.8238 51.4647Z" fill="#1A193C"/>
<path d="M47.9022 30.3241C46.6174 31.5409 44.6054 34.1308 42.0631 39.6096C41.7028 40.3778 41.3425 41.1935 40.9686 42.0704C40.4977 43.0613 39.9571 44.0177 39.3508 44.9321C38.9562 45.5319 38.5272 46.1084 38.0661 46.6587C35.6023 49.6757 32.2856 51.879 28.5495 52.9805C27.4522 52.6596 26.4507 52.0737 25.6333 51.2743C27.8153 47.5356 27.8017 46.2781 29.0321 42.9201C27.6804 43.5037 26.2284 43.8199 24.7564 43.8513H24.6069C24.125 43.8566 23.6434 43.8271 23.1658 43.763C20.8803 43.3996 18.7421 42.4036 16.9936 40.8876C16.6265 40.5885 16.3138 40.269 16.4566 39.766C16.5993 39.263 16.9868 39.0862 17.4422 39.0115C18.122 38.8687 18.7338 38.692 19.3795 38.522C18.8662 38.3304 18.339 38.1782 17.8025 38.0666C15.199 37.3868 13.0442 36.1633 11.7254 33.7161C11.5886 33.5383 11.5052 33.3252 11.4849 33.1017C11.4646 32.8782 11.5084 32.6535 11.611 32.4539C11.7137 32.2544 11.871 32.0881 12.0645 31.9746C12.2581 31.8611 12.48 31.805 12.7043 31.8128C13.3025 31.7312 13.8939 31.5885 14.5804 31.4525L14.057 31.1399C12.2146 30.1116 10.5967 28.7248 9.29871 27.0613C8.61281 26.1656 8.13038 25.1311 7.88503 24.03C7.63967 22.9288 7.63728 21.7874 7.87802 20.6852C7.89262 20.5173 7.95349 20.3568 8.05385 20.2215C8.15421 20.0862 8.29014 19.9813 8.44652 19.9187C8.6029 19.856 8.7736 19.8379 8.93965 19.8664C9.1057 19.8949 9.26058 19.9689 9.38708 20.0802C11.5792 21.7996 14.2197 22.852 16.9936 23.1119C19.7942 23.445 22.6152 23.6013 25.4226 23.8732C27.4039 23.9691 29.3357 24.5253 31.0646 25.4979C32.0596 26.1065 32.8812 26.9609 33.4505 27.979L33.7632 28.1557C34.8848 28.0334 36.1424 27.2584 37.4067 25.2328C38.2768 23.2479 39.276 21.4261 40.1257 21.0047C40.8265 20.6886 41.5462 20.4162 42.2806 20.189C42.8919 20.5027 43.4664 20.8834 43.9936 21.3241C43.5715 21.4231 43.1579 21.5549 42.7564 21.7184C39.8267 22.9148 41.0366 25.0696 41.0298 26.667C40.8992 28.54 40.6723 30.405 40.3501 32.2547C39.4052 36.8362 43.1983 35.6534 43.1983 35.6534L44.4286 33.7637C45.3022 32.4057 46.3136 31.1415 47.4467 29.9911C47.5778 30.128 47.732 30.2408 47.9022 30.3241Z" fill="#1A193C"/>
<path d="M62.273 25.6406C60.1726 26.3203 56.9233 27.204 51.9067 28.3596C50.4679 28.7577 49.1136 29.4142 47.9097 30.2969L47.7194 30.2154C47.6239 30.1369 47.5352 30.0505 47.4543 29.957L47.3183 29.8007C47.0605 29.4296 46.8936 29.003 46.831 28.5555C46.7684 28.108 46.8119 27.652 46.9581 27.2244C47.7058 24.4578 45.3606 22.4661 44.0215 21.3241C43.4865 20.8894 42.9079 20.5112 42.2949 20.1957L42.4649 20.1413C47.3183 18.5643 53.1778 17.8506 58.1877 19.0809C57.8818 20.9095 58.1129 23.9956 62.273 25.6406Z" fill="#FFD500"/>
<path d="M43.233 25.1985C44.0327 25.1985 44.6809 24.5503 44.6809 23.7506C44.6809 22.951 44.0327 22.3028 43.233 22.3028C42.4334 22.3028 41.7852 22.951 41.7852 23.7506C41.7852 24.5503 42.4334 25.1985 43.233 25.1985Z" fill="#FFD500"/>
<path d="M43.2325 24.6004C43.7018 24.6004 44.0822 24.2199 44.0822 23.7507C44.0822 23.2814 43.7018 22.901 43.2325 22.901C42.7632 22.901 42.3828 23.2814 42.3828 23.7507C42.3828 24.2199 42.7632 24.6004 43.2325 24.6004Z" fill="#1A193C"/>
<path d="M25.688 51.274L23.6147 50.8865H23.5264C24.1449 52.5315 25.8036 54.6728 27.7409 55.2778C27.8428 54.9243 27.9516 54.598 28.0536 54.3125C28.2983 53.6328 28.5294 53.1365 28.5838 53.021C27.4897 52.6853 26.4951 52.0853 25.688 51.274Z" fill="#FFD500"/>
<defs>
<linearGradient id="paint0_linear" x1="1.58384" y1="43.389" x2="72" y2="28.2779" gradientUnits="userSpaceOnUse">
<stop stop-color="#FFD500"/>
<stop offset="0.72" stop-color="#FF9400"/>
<stop offset="0.85" stop-color="#FF9400"/>
<stop offset="1" stop-color="#FF9200"/>
</linearGradient>
</defs>
</svg>
