<svg width="471" height="393" viewBox="0 0 471 393" fill="none" xmlns="http://www.w3.org/2000/svg">
<path d="M448.725 49.9267C448.129 48.4168 447.135 47.1265 445.865 46.2147C444.595 45.3028 443.105 44.809 441.577 44.7939H298.924C297.908 44.7939 296.903 45.0088 295.965 45.4262C295.027 45.8436 294.175 46.4553 293.458 47.2264C292.74 47.9976 292.172 48.9129 291.784 49.9201C291.397 50.9273 291.198 52.0065 291.2 53.0961V246.753C291.198 247.842 291.397 248.922 291.784 249.929C292.172 250.936 292.74 251.851 293.458 252.623C294.175 253.394 295.027 254.005 295.965 254.423C296.903 254.84 297.908 255.055 298.924 255.055H441.577C443.627 255.051 445.593 254.175 447.043 252.619C448.493 251.063 449.31 248.954 449.313 246.753V53.0961C449.315 52.0082 449.115 50.9308 448.725 49.9267ZM447.601 246.753C447.598 248.463 446.963 250.101 445.837 251.31C444.71 252.519 443.183 253.2 441.59 253.204H298.924C297.329 253.204 295.8 252.524 294.673 251.314C293.545 250.105 292.912 248.464 292.912 246.753V53.0961C292.916 51.3863 293.55 49.7477 294.677 48.5387C295.803 47.3297 297.33 46.6488 298.924 46.6451H441.577C442.78 46.6511 443.954 47.041 444.95 47.7652C445.946 48.4894 446.719 49.5152 447.17 50.7121C447.248 50.9505 447.327 51.1889 447.392 51.4413C447.527 51.9858 447.598 52.5466 447.601 53.1101V246.753Z" fill="#CCCCCC"/>
<path d="M418.955 90.526H375.987C375.075 90.526 374.201 90.1374 373.557 89.4457C372.912 88.754 372.55 87.8159 372.55 86.8377C372.55 85.8595 372.912 84.9214 373.557 84.2297C374.201 83.538 375.075 83.1494 375.987 83.1494H418.955C419.867 83.1494 420.741 83.538 421.386 84.2297C422.03 84.9214 422.392 85.8595 422.392 86.8377C422.392 87.8159 422.03 88.754 421.386 89.4457C420.741 90.1374 419.867 90.526 418.955 90.526Z" fill="#CCCCCC"/>
<path d="M418.955 109.893H375.987C375.075 109.893 374.201 109.504 373.557 108.812C372.912 108.121 372.55 107.183 372.55 106.204C372.55 105.226 372.912 104.288 373.557 103.596C374.201 102.905 375.075 102.516 375.987 102.516H418.955C419.867 102.516 420.741 102.905 421.386 103.596C422.03 104.288 422.392 105.226 422.392 106.204C422.392 107.183 422.03 108.121 421.386 108.812C420.741 109.504 419.867 109.893 418.955 109.893Z" fill="#CCCCCC"/>
<path d="M418.655 149.54H321.544C320.633 149.54 319.759 149.151 319.114 148.459C318.47 147.768 318.107 146.83 318.107 145.851C318.107 144.873 318.47 143.935 319.114 143.243C319.759 142.552 320.633 142.163 321.544 142.163H418.655C419.566 142.163 420.44 142.552 421.085 143.243C421.729 143.935 422.092 144.873 422.092 145.851C422.092 146.83 421.729 147.768 421.085 148.459C420.44 149.151 419.566 149.54 418.655 149.54Z" fill="#CCCCCC"/>
<path d="M418.655 168.92H321.544C320.633 168.92 319.759 168.531 319.114 167.839C318.47 167.148 318.107 166.209 318.107 165.231C318.107 164.253 318.47 163.315 319.114 162.623C319.759 161.932 320.633 161.543 321.544 161.543H418.655C419.566 161.543 420.44 161.932 421.085 162.623C421.729 163.315 422.092 164.253 422.092 165.231C422.092 166.209 421.729 167.148 421.085 167.839C420.44 168.531 419.566 168.92 418.655 168.92Z" fill="#CCCCCC"/>
<path d="M418.655 188.272H321.544C320.633 188.272 319.759 187.884 319.114 187.192C318.47 186.501 318.107 185.562 318.107 184.584C318.107 183.606 318.47 182.668 319.114 181.976C319.759 181.285 320.633 180.896 321.544 180.896H418.655C419.566 180.896 420.44 181.285 421.085 181.976C421.729 182.668 422.092 183.606 422.092 184.584C422.092 185.562 421.729 186.501 421.085 187.192C420.44 187.884 419.566 188.272 418.655 188.272Z" fill="#CCCCCC"/>
<path d="M418.655 207.64H321.544C320.633 207.64 319.759 207.252 319.114 206.56C318.47 205.868 318.107 204.93 318.107 203.952C318.107 202.974 318.47 202.036 319.114 201.344C319.759 200.652 320.633 200.264 321.544 200.264H418.655C419.566 200.264 420.44 200.652 421.085 201.344C421.729 202.036 422.092 202.974 422.092 203.952C422.092 204.93 421.729 205.868 421.085 206.56C420.44 207.252 419.566 207.64 418.655 207.64Z" fill="#CCCCCC"/>
<path d="M418.655 227.006H321.544C320.633 227.006 319.759 226.618 319.114 225.926C318.47 225.234 318.107 224.296 318.107 223.318C318.107 222.34 318.47 221.402 319.114 220.71C319.759 220.018 320.633 219.63 321.544 219.63H418.655C419.566 219.63 420.44 220.018 421.085 220.71C421.729 221.402 422.092 222.34 422.092 223.318C422.092 224.296 421.729 225.234 421.085 225.926C420.44 226.618 419.566 227.006 418.655 227.006Z" fill="#CCCCCC"/>
<path d="M268.461 255.869H468.981C469.254 255.869 469.517 255.752 469.711 255.545C469.904 255.337 470.013 255.055 470.013 254.761C470.013 254.467 469.904 254.186 469.711 253.978C469.517 253.77 469.254 253.653 468.981 253.653H268.461C268.19 253.653 267.929 253.768 267.736 253.973C267.542 254.178 267.432 254.456 267.429 254.747C267.429 255.04 267.535 255.321 267.726 255.531C267.916 255.74 268.175 255.862 268.448 255.869H268.461Z" fill="#CCCCCC"/>
<path d="M365.911 95.4484C365.919 100.54 364.71 105.548 362.399 109.995C360.089 114.442 356.753 118.178 352.712 120.846C351.938 121.357 351.14 121.825 350.321 122.248C349.667 122.585 349.014 122.893 348.334 123.188C341.513 126.044 333.919 125.908 327.19 122.809C326.51 122.501 325.883 122.15 325.204 121.785C320.849 119.325 317.181 115.666 314.577 111.184C311.973 106.703 310.525 101.559 310.383 96.279C310.24 90.9994 311.408 85.7741 313.766 81.138C316.124 76.5019 319.588 72.6217 323.803 69.8947C328.018 67.1676 332.833 65.6917 337.754 65.6181C342.676 65.5445 347.527 66.8758 351.811 69.4758C356.095 72.0757 359.658 75.8508 362.136 80.4146C364.614 84.9783 365.917 90.1667 365.911 95.4484Z" fill="#545454"/>
<path d="M336.364 83.9355C336.364 83.9355 338.755 77.5126 344.336 77.0778C346.147 76.9718 347.942 77.4978 349.452 78.5771C350.962 79.6565 352.106 81.2313 352.712 83.066C353.091 84.2861 352.712 89.4189 353.915 90.7792C354.712 91.6346 357.495 93.3456 358.698 92.9108C358.698 92.9108 357.103 96.3326 353.915 96.3326C349.524 96.3326 347.537 95.0565 344.336 89.9237C342.496 86.9009 339.64 84.756 336.364 83.9355Z" fill="#DDDDDD"/>
<path d="M350.125 94.4105C350.121 97.2181 349.287 99.9521 347.745 102.22C346.202 104.487 344.03 106.172 341.539 107.032V99.9499H334.378V107.172C331.791 106.382 329.516 104.709 327.896 102.406C326.276 100.103 325.399 97.296 325.4 94.4105C325.403 93.7677 325.447 93.1258 325.53 92.4892C325.961 89.3377 327.433 86.4576 329.679 84.375C331.925 82.2924 334.794 81.1465 337.762 81.1465C340.73 81.1465 343.599 82.2924 345.845 84.375C348.091 86.4576 349.564 89.3377 349.994 92.4892C350.084 93.125 350.128 93.7674 350.125 94.4105Z" fill="#757575"/>
<path d="M350.386 92.489H325.936C326.356 89.331 327.824 86.4418 330.07 84.3516C332.315 82.2615 335.188 81.1108 338.161 81.1108C341.134 81.1108 344.006 82.2615 346.252 84.3516C348.498 86.4418 349.966 89.331 350.386 92.489Z" fill="#302416"/>
<path d="M349.994 92.4893H325.531C325.961 89.3377 327.434 86.4576 329.679 84.375C331.925 82.2925 334.794 81.1465 337.762 81.1465C340.731 81.1465 343.6 82.2925 345.845 84.375C348.091 86.4576 349.564 89.3377 349.994 92.4893Z" fill="#DDDDDD"/>
<path d="M329.189 92.9106L331.189 86.0669L330.784 93.3453L329.189 92.9106Z" fill="#757575"/>
<path d="M352.712 116.443V120.846C351.938 121.358 351.14 121.826 350.321 122.249C349.667 122.585 349.014 122.894 348.334 123.188V110.511H349.72C349.928 110.557 350.131 110.632 350.321 110.735C351.196 111.128 352.712 112.488 352.712 116.443Z" fill="#DDDDDD"/>
<path d="M327.19 110.51V122.879C326.511 122.571 325.883 122.22 325.204 121.856C324.374 121.39 323.567 120.88 322.786 120.327V116.442C322.786 112.488 324.302 111.127 325.178 110.678C325.368 110.575 325.57 110.5 325.779 110.454L327.19 110.51Z" fill="#DDDDDD"/>
<path d="M350.321 110.678V122.262C349.667 122.599 349.014 122.907 348.334 123.202C341.513 126.058 333.919 125.922 327.19 122.823C326.51 122.515 325.883 122.164 325.204 121.8V110.678C325.394 110.575 325.596 110.5 325.805 110.454H349.72C349.928 110.5 350.131 110.575 350.321 110.678Z" fill="#9B9B9B"/>
<path d="M341.539 99.9497V110.215C341.543 110.788 341.428 111.355 341.202 111.875C340.976 112.394 340.645 112.852 340.232 113.216C339.596 113.77 338.803 114.072 337.984 114.072C337.166 114.072 336.372 113.77 335.737 113.216C335.324 112.852 334.992 112.394 334.766 111.875C334.54 111.355 334.425 110.788 334.43 110.215V99.9497H341.539Z" fill="#757575"/>
<path d="M341.539 107.047V107.299C340.32 107.729 339.045 107.947 337.762 107.944C336.618 107.943 335.479 107.773 334.378 107.44V107.173C336.725 107.887 339.215 107.843 341.539 107.047Z" fill="#302416"/>
<path d="M349.72 97.6224C350.492 97.6224 351.118 96.6618 351.118 95.4767C351.118 94.2917 350.492 93.3311 349.72 93.3311C348.947 93.3311 348.321 94.2917 348.321 95.4767C348.321 96.6618 348.947 97.6224 349.72 97.6224Z" fill="#757575"/>
<path d="M325.805 97.6224C326.577 97.6224 327.203 96.6618 327.203 95.4767C327.203 94.2917 326.577 93.3311 325.805 93.3311C325.033 93.3311 324.406 94.2917 324.406 95.4767C324.406 96.6618 325.033 97.6224 325.805 97.6224Z" fill="#757575"/>
<path d="M450.596 40.9103C453.124 24.198 442.548 8.45081 426.975 5.73802C411.402 3.02523 396.728 14.3741 394.2 31.0864C391.672 47.7987 402.247 63.5458 417.821 66.2586C433.394 68.9714 448.068 57.6226 450.596 40.9103Z" fill="#CCCCCC"/>
<path d="M419.491 47.6829C418.851 47.6819 418.228 47.4607 417.714 47.0518L410.997 41.5404C410.368 41.0253 409.955 40.2631 409.85 39.4215C409.744 38.5799 409.955 37.7278 410.435 37.0527C410.915 36.3777 411.625 35.9349 412.409 35.8218C413.193 35.7087 413.987 35.9346 414.617 36.4497L418.968 40.0258L429.253 25.6513C429.491 25.3176 429.789 25.0377 430.128 24.8274C430.467 24.6172 430.842 24.4808 431.23 24.4261C431.619 24.3714 432.013 24.3994 432.392 24.5086C432.77 24.6178 433.124 24.8059 433.435 25.0623L433.37 25.1464L433.435 25.0623C433.746 25.318 434.007 25.6371 434.203 26.0011C434.399 26.3652 434.526 26.7671 434.577 27.184C434.628 27.6008 434.601 28.0243 434.5 28.4303C434.398 28.8363 434.223 29.2168 433.984 29.5499L421.896 46.4628C421.614 46.8519 421.254 47.1667 420.841 47.383C420.429 47.5994 419.976 47.7116 419.517 47.7109L419.491 47.6829Z" fill="white"/>
<path d="M130.042 115.854C145.819 115.854 158.609 102.128 158.609 85.1974C158.609 68.2663 145.819 54.541 130.042 54.541C114.265 54.541 101.475 68.2663 101.475 85.1974C101.475 102.128 114.265 115.854 130.042 115.854Z" fill="#CCCCCC"/>
<path d="M127.206 96.8792C126.574 96.8792 125.959 96.6576 125.455 96.2481L118.738 90.7367C118.428 90.4807 118.167 90.1616 117.971 89.7975C117.776 89.4334 117.649 89.0316 117.598 88.6148C117.547 88.1981 117.573 87.7747 117.674 87.3688C117.776 86.9629 117.951 86.5824 118.189 86.249C118.428 85.9157 118.725 85.636 119.064 85.426C119.404 85.216 119.778 85.0798 120.167 85.0251C120.555 84.9704 120.949 84.9983 121.328 85.1073C121.706 85.2162 122.061 85.404 122.371 85.66L126.723 89.2361L136.995 74.8476C137.233 74.5139 137.53 74.2339 137.869 74.0237C138.209 73.8135 138.583 73.6771 138.972 73.6224C139.36 73.5677 139.755 73.5957 140.133 73.7049C140.511 73.814 140.866 74.0022 141.176 74.2586V74.3567V74.2586C141.803 74.7753 142.214 75.5372 142.32 76.378C142.425 77.2189 142.216 78.0702 141.738 78.7462L129.585 95.631C129.305 96.0227 128.945 96.3402 128.532 96.559C128.12 96.7778 127.666 96.8922 127.206 96.8932V96.8792Z" fill="white"/>
<path d="M181.296 105.756C180.69 104.259 179.692 102.984 178.423 102.085C177.154 101.186 175.668 100.702 174.148 100.693H31.4946C29.4473 100.697 27.4848 101.571 26.0372 103.125C24.5895 104.679 23.7747 106.784 23.7712 108.982V302.638C23.7747 304.835 24.5895 306.941 26.0372 308.495C27.4848 310.048 29.4473 310.923 31.4946 310.926H174.148C176.197 310.926 178.163 310.054 179.614 308.5C181.064 306.946 181.881 304.838 181.884 302.638V108.911C181.886 107.828 181.686 106.755 181.296 105.756ZM180.172 302.638C180.165 304.347 179.53 305.983 178.404 307.192C177.278 308.4 175.753 309.082 174.161 309.089H31.4946C29.9003 309.089 28.3712 308.409 27.2439 307.2C26.1165 305.99 25.4832 304.349 25.4832 302.638V108.911C25.4866 107.202 26.1211 105.563 27.2477 104.354C28.3743 103.145 29.9013 102.464 31.4946 102.46H174.148C175.35 102.468 176.524 102.859 177.52 103.583C178.515 104.307 179.288 105.332 179.741 106.527C179.819 106.766 179.898 107.018 179.963 107.257C180.098 107.801 180.168 108.362 180.172 108.925V302.638Z" fill="#CCCCCC"/>
<path d="M151.592 146.341H108.558C107.647 146.341 106.772 145.952 106.128 145.261C105.483 144.569 105.121 143.631 105.121 142.653C105.121 141.674 105.483 140.736 106.128 140.045C106.772 139.353 107.647 138.964 108.558 138.964H151.592C152.503 138.964 153.378 139.353 154.022 140.045C154.667 140.736 155.029 141.674 155.029 142.653C155.029 143.631 154.667 144.569 154.022 145.261C153.378 145.952 152.503 146.341 151.592 146.341Z" fill="#CCCCCC"/>
<path d="M151.592 165.709H108.558C107.647 165.709 106.772 165.32 106.128 164.628C105.483 163.937 105.121 162.999 105.121 162.02C105.121 161.042 105.483 160.104 106.128 159.412C106.772 158.721 107.647 158.332 108.558 158.332H151.592C152.503 158.332 153.378 158.721 154.022 159.412C154.667 160.104 155.029 161.042 155.029 162.02C155.029 162.999 154.667 163.937 154.022 164.628C153.378 165.32 152.503 165.709 151.592 165.709Z" fill="#CCCCCC"/>
<path d="M86.5118 176.731H55.148C54.1082 176.731 53.111 176.288 52.3758 175.499C51.6406 174.71 51.2275 173.64 51.2275 172.524V132.822C51.2275 131.707 51.6406 130.636 52.3758 129.847C53.111 129.058 54.1082 128.615 55.148 128.615H86.5118C87.5516 128.615 88.5488 129.058 89.284 129.847C90.0193 130.636 90.4323 131.707 90.4323 132.822V172.58C90.4186 173.686 89.9995 174.742 89.2657 175.519C88.532 176.296 87.5426 176.731 86.5118 176.731Z" fill="#CCCCCC"/>
<path d="M151.226 205.368H54.1157C53.2041 205.368 52.3299 204.979 51.6854 204.288C51.0408 203.596 50.6787 202.658 50.6787 201.679C50.6787 200.701 51.0408 199.763 51.6854 199.071C52.3299 198.38 53.2041 197.991 54.1157 197.991H151.226C152.137 197.991 153.012 198.38 153.656 199.071C154.301 199.763 154.663 200.701 154.663 201.679C154.663 202.658 154.301 203.596 153.656 204.288C153.012 204.979 152.137 205.368 151.226 205.368Z" fill="#CCCCCC"/>
<path d="M151.226 224.735H54.1157C53.2041 224.735 52.3299 224.347 51.6854 223.655C51.0408 222.964 50.6787 222.025 50.6787 221.047C50.6787 220.069 51.0408 219.131 51.6854 218.439C52.3299 217.747 53.2041 217.359 54.1157 217.359H151.226C152.137 217.359 153.012 217.747 153.656 218.439C154.301 219.131 154.663 220.069 154.663 221.047C154.663 222.025 154.301 222.964 153.656 223.655C153.012 224.347 152.137 224.735 151.226 224.735Z" fill="#CCCCCC"/>
<path d="M151.226 244.104H54.1157C53.2391 244.046 52.4161 243.631 51.8145 242.944C51.2129 242.258 50.8779 241.351 50.8779 240.408C50.8779 239.466 51.2129 238.559 51.8145 237.872C52.4161 237.185 53.2391 236.771 54.1157 236.713H151.226C152.103 236.771 152.926 237.185 153.527 237.872C154.129 238.559 154.464 239.466 154.464 240.408C154.464 241.351 154.129 242.258 153.527 242.944C152.926 243.631 152.103 244.046 151.226 244.104Z" fill="#CCCCCC"/>
<path d="M151.226 263.469H54.1157C53.2041 263.469 52.3299 263.081 51.6854 262.389C51.0408 261.697 50.6787 260.759 50.6787 259.781C50.6787 258.803 51.0408 257.865 51.6854 257.173C52.3299 256.481 53.2041 256.093 54.1157 256.093H151.226C152.137 256.093 153.012 256.481 153.656 257.173C154.301 257.865 154.663 258.803 154.663 259.781C154.663 260.759 154.301 261.697 153.656 262.389C153.012 263.081 152.137 263.469 151.226 263.469Z" fill="#CCCCCC"/>
<path d="M151.226 282.823H54.1157C53.2041 282.823 52.3299 282.435 51.6854 281.743C51.0408 281.051 50.6787 280.113 50.6787 279.135C50.6787 278.157 51.0408 277.219 51.6854 276.527C52.3299 275.835 53.2041 275.447 54.1157 275.447H151.226C152.137 275.447 153.012 275.835 153.656 276.527C154.301 277.219 154.663 278.157 154.663 279.135C154.663 280.113 154.301 281.051 153.656 281.743C153.012 282.435 152.137 282.823 151.226 282.823Z" fill="#CCCCCC"/>
<path d="M1.03239 311.685H201.552C201.804 311.654 202.037 311.525 202.206 311.322C202.375 311.119 202.468 310.856 202.468 310.584C202.468 310.311 202.375 310.048 202.206 309.845C202.037 309.642 201.804 309.513 201.552 309.483H1.03239C0.897438 309.481 0.763482 309.508 0.6383 309.562C0.513117 309.616 0.3992 309.696 0.303159 309.798C0.207117 309.9 0.130863 310.021 0.0788224 310.155C0.0267812 310.288 -1.10889e-05 310.432 3.44288e-09 310.577C-2.17534e-05 310.868 0.106952 311.148 0.297746 311.355C0.48854 311.563 0.747788 311.681 1.01932 311.685H1.03239Z" fill="#CCCCCC"/>
<path d="M98.5738 152.737C98.5779 157.832 97.3628 162.844 95.0449 167.291C92.7269 171.738 89.3838 175.471 85.3356 178.134C84.5614 178.646 83.7632 179.114 82.9441 179.537C82.2907 179.873 81.6243 180.182 80.9447 180.462C74.1312 183.333 66.5373 183.202 59.8133 180.098C59.1338 179.775 58.5065 179.439 57.827 179.06C53.478 176.593 49.8177 172.931 47.2204 168.448C44.6231 163.965 43.182 158.822 43.0445 153.546C42.9071 148.269 44.0782 143.048 46.4381 138.416C48.798 133.784 52.262 129.909 56.4758 127.185C60.6896 124.461 65.5018 122.988 70.4204 122.915C75.339 122.842 80.1874 124.173 84.4696 126.77C88.7518 129.368 92.3142 133.14 94.7923 137.7C97.2705 142.26 98.5754 147.444 98.5738 152.723V152.737Z" fill="#545454"/>
<path d="M82.7482 151.699C82.7421 154.506 81.9081 157.239 80.3658 159.506C78.8234 161.773 76.6519 163.459 74.1624 164.32V157.224H67.001V164.446C64.4148 163.656 62.1392 161.983 60.5191 159.68C58.8989 157.377 58.0227 154.57 58.0231 151.685C58.0201 151.042 58.0638 150.399 58.1538 149.763C58.5742 146.605 60.042 143.716 62.2878 141.626C64.5335 139.536 67.4064 138.385 70.3791 138.385C73.3518 138.385 76.2247 139.536 78.4705 141.626C80.7162 143.716 82.184 146.605 82.6045 149.763C82.6995 150.403 82.7476 151.051 82.7482 151.699Z" fill="#DDDDDD"/>
<path d="M83.0097 149.777H58.5459C58.9763 146.626 60.449 143.746 62.6948 141.663C64.9406 139.581 67.8097 138.435 70.7778 138.435C73.7459 138.435 76.615 139.581 78.8608 141.663C81.1066 143.746 82.5793 146.626 83.0097 149.777Z" fill="#545454"/>
<path d="M82.6046 149.777H58.1538C58.5743 146.619 60.0421 143.73 62.2878 141.64C64.5336 139.55 67.4065 138.399 70.3792 138.399C73.3519 138.399 76.2248 139.55 78.4705 141.64C80.7163 143.73 82.1841 146.619 82.6046 149.777Z" fill="#757575"/>
<path d="M76.188 154.405L78.1744 147.562L77.7823 154.84L76.188 154.405Z" fill="#DDDDDD"/>
<path d="M85.3358 173.731V178.134C84.5615 178.645 83.7633 179.113 82.9443 179.537C82.2909 179.873 81.6244 180.182 80.9448 180.462V167.729H82.3301C82.5388 167.774 82.741 167.85 82.9312 167.953C83.8198 168.416 85.3358 169.776 85.3358 173.731Z" fill="#9B9B9B"/>
<path d="M59.8133 167.742V180.111C59.1337 179.788 58.5065 179.452 57.8269 179.073C57.0019 178.607 56.1994 178.097 55.4224 177.545V173.73C55.4224 169.775 56.9513 168.415 57.8269 167.966C58.0123 167.862 58.2102 167.787 58.415 167.742H59.8133Z" fill="#9B9B9B"/>
<path d="M82.9443 168.008V179.592C82.2909 179.928 81.6244 180.237 80.9449 180.517C74.1314 183.388 66.5375 183.257 59.8135 180.153C59.134 179.83 58.5067 179.494 57.8271 179.115V168.008C58.0125 167.904 58.2104 167.829 58.4152 167.784H82.3301C82.5434 167.828 82.75 167.904 82.9443 168.008Z" fill="#757575"/>
<path d="M74.1625 157.239V167.504C74.1661 168.077 74.0507 168.644 73.8246 169.163C73.5985 169.682 73.2675 170.141 72.8556 170.506C72.22 171.059 71.4264 171.361 70.6079 171.361C69.7894 171.361 68.9958 171.059 68.3601 170.506C67.9482 170.141 67.6172 169.682 67.3912 169.163C67.1651 168.644 67.0497 168.077 67.0533 167.504V157.239H74.1625Z" fill="#DDDDDD"/>
<path d="M74.1624 164.334V164.587C72.9429 165.012 71.6679 165.225 70.3856 165.218C69.2418 165.221 68.103 165.056 67.001 164.727V164.461C69.3478 165.175 71.8386 165.131 74.1624 164.334Z" fill="#9B9B9B"/>
<path d="M82.3431 154.91C83.1154 154.91 83.7415 153.949 83.7415 152.764C83.7415 151.579 83.1154 150.618 82.3431 150.618C81.5709 150.618 80.9448 151.579 80.9448 152.764C80.9448 153.949 81.5709 154.91 82.3431 154.91Z" fill="#DDDDDD"/>
<path d="M58.4151 154.91C59.1874 154.91 59.8134 153.949 59.8134 152.764C59.8134 151.579 59.1874 150.618 58.4151 150.618C57.6429 150.618 57.0168 151.579 57.0168 152.764C57.0168 153.949 57.6429 154.91 58.4151 154.91Z" fill="#DDDDDD"/>
<path d="M349.171 124.338H170.332C164.226 124.338 159.276 129.65 159.276 136.202V379.686C159.276 386.238 164.226 391.55 170.332 391.55H349.171C355.277 391.55 360.227 386.238 360.227 379.686V136.202C360.227 129.65 355.277 124.338 349.171 124.338Z" fill="white"/>
<path d="M359.469 130.859C358.715 128.938 357.453 127.297 355.838 126.137C354.224 124.978 352.328 124.353 350.386 124.338H169.103C166.497 124.338 163.997 125.449 162.154 127.427C160.311 129.404 159.276 132.087 159.276 134.884V381.004C159.276 383.801 160.311 386.484 162.154 388.461C163.997 390.439 166.497 391.55 169.103 391.55H350.399C353.005 391.546 355.502 390.434 357.344 388.457C359.187 386.48 360.223 383.8 360.227 381.004V134.884C360.228 133.503 359.975 132.135 359.482 130.859H359.469ZM358.07 381.004C358.07 382.082 357.873 383.148 357.488 384.144C357.104 385.139 356.541 386.043 355.831 386.805C355.121 387.567 354.278 388.171 353.351 388.584C352.423 388.996 351.429 389.208 350.425 389.208H169.103C167.076 389.208 165.131 388.344 163.697 386.805C162.264 385.267 161.458 383.18 161.458 381.004V134.884C161.462 132.709 162.268 130.625 163.701 129.087C165.134 127.549 167.077 126.684 169.103 126.68H350.399C351.925 126.69 353.414 127.186 354.677 128.104C355.94 129.023 356.921 130.323 357.495 131.841C357.6 132.149 357.704 132.458 357.783 132.766C357.953 133.457 358.041 134.169 358.044 134.884L358.07 381.004Z" fill="#3F3D56"/>
<path d="M321.636 182.453H267.037C266.443 182.488 265.848 182.392 265.29 182.172C264.731 181.952 264.22 181.613 263.788 181.174C263.356 180.735 263.012 180.206 262.776 179.619C262.541 179.032 262.42 178.401 262.42 177.762C262.42 177.123 262.541 176.492 262.776 175.905C263.012 175.318 263.356 174.79 263.788 174.35C264.22 173.911 264.731 173.572 265.29 173.352C265.848 173.132 266.443 173.036 267.037 173.071H321.636C322.754 173.137 323.806 173.659 324.576 174.532C325.346 175.405 325.775 176.56 325.775 177.762C325.775 178.964 325.346 180.12 324.576 180.992C323.806 181.865 322.754 182.387 321.636 182.453Z" fill="#3F3D56"/>
<path d="M321.636 207.065H267.037C266.443 207.1 265.848 207.005 265.29 206.785C264.731 206.565 264.22 206.225 263.788 205.786C263.356 205.347 263.012 204.818 262.776 204.231C262.541 203.645 262.42 203.013 262.42 202.374C262.42 201.736 262.541 201.104 262.776 200.517C263.012 199.931 263.356 199.402 263.788 198.963C264.22 198.524 264.731 198.184 265.29 197.964C265.848 197.744 266.443 197.648 267.037 197.683H321.636C322.754 197.749 323.806 198.272 324.576 199.144C325.346 200.017 325.775 201.173 325.775 202.374C325.775 203.576 325.346 204.732 324.576 205.604C323.806 206.477 322.754 207 321.636 207.065Z" fill="#3F3D56"/>
<path d="M321.257 257.453H197.854C196.696 257.453 195.586 256.96 194.767 256.081C193.949 255.203 193.489 254.011 193.489 252.769C193.489 251.527 193.949 250.335 194.767 249.457C195.586 248.578 196.696 248.085 197.854 248.085H321.257C322.415 248.085 323.525 248.578 324.343 249.457C325.162 250.335 325.622 251.527 325.622 252.769C325.622 254.011 325.162 255.203 324.343 256.081C323.525 256.96 322.415 257.453 321.257 257.453Z" fill="#CCCCCC"/>
<path d="M321.257 282.066H197.854C196.696 282.066 195.586 281.573 194.767 280.694C193.949 279.816 193.489 278.625 193.489 277.382C193.489 276.14 193.949 274.949 194.767 274.07C195.586 273.192 196.696 272.698 197.854 272.698H321.257C322.415 272.698 323.525 273.192 324.343 274.07C325.162 274.949 325.622 276.14 325.622 277.382C325.622 278.625 325.162 279.816 324.343 280.694C323.525 281.573 322.415 282.066 321.257 282.066Z" fill="#CCCCCC"/>
<path d="M321.257 306.677H197.854C196.696 306.677 195.586 306.184 194.767 305.305C193.949 304.427 193.489 303.236 193.489 301.993C193.489 300.751 193.949 299.56 194.767 298.681C195.586 297.803 196.696 297.31 197.854 297.31H321.257C322.415 297.31 323.525 297.803 324.343 298.681C325.162 299.56 325.622 300.751 325.622 301.993C325.622 303.236 325.162 304.427 324.343 305.305C323.525 306.184 322.415 306.677 321.257 306.677Z" fill="#CCCCCC"/>
<path d="M321.257 331.29H197.854C196.696 331.29 195.586 330.796 194.767 329.918C193.949 329.039 193.489 327.848 193.489 326.606C193.489 325.363 193.949 324.172 194.767 323.294C195.586 322.415 196.696 321.922 197.854 321.922H321.257C322.415 321.922 323.525 322.415 324.343 323.294C325.162 324.172 325.622 325.363 325.622 326.606C325.622 327.848 325.162 329.039 324.343 329.918C323.525 330.796 322.415 331.29 321.257 331.29Z" fill="#CCCCCC"/>
<path d="M321.257 355.93H197.854C196.696 355.93 195.586 355.437 194.767 354.558C193.949 353.68 193.489 352.488 193.489 351.246C193.489 350.004 193.949 348.812 194.767 347.934C195.586 347.056 196.696 346.562 197.854 346.562H321.257C322.415 346.562 323.525 347.056 324.343 347.934C325.162 348.812 325.622 350.004 325.622 351.246C325.622 352.488 325.162 353.68 324.343 354.558C323.525 355.437 322.415 355.93 321.257 355.93Z" fill="#CCCCCC"/>
<path d="M244.324 147.562C267.608 147.562 286.482 127.306 286.482 102.32C286.482 77.3343 267.608 57.0791 244.324 57.0791C221.041 57.0791 202.166 77.3343 202.166 102.32C202.166 127.306 221.041 147.562 244.324 147.562Z" fill="#FF9200"/>
<path d="M240.142 119.584C239.2 119.579 238.284 119.249 237.529 118.644L227.558 110.51C227.072 110.144 226.66 109.677 226.346 109.136C226.033 108.595 225.824 107.992 225.734 107.362C225.643 106.733 225.672 106.09 225.819 105.473C225.965 104.855 226.227 104.276 226.587 103.77C226.948 103.264 227.4 102.842 227.917 102.528C228.433 102.214 229.004 102.015 229.593 101.944C230.183 101.873 230.781 101.93 231.349 102.113C231.918 102.296 232.446 102.6 232.903 103.007L239.319 108.294L254.491 87.0621C254.842 86.5679 255.279 86.153 255.78 85.8415C256.28 85.5299 256.833 85.3279 257.407 85.247C257.98 85.1662 258.563 85.2081 259.121 85.3704C259.68 85.5327 260.203 85.8122 260.66 86.1926L260.568 86.3329L260.66 86.1926C261.119 86.5694 261.504 87.0398 261.793 87.5768C262.083 88.1138 262.27 88.7067 262.346 89.3217C262.421 89.9367 262.382 90.5616 262.232 91.1605C262.082 91.7595 261.823 92.3207 261.47 92.8119L243.632 117.775C243.22 118.35 242.689 118.816 242.082 119.135C241.474 119.453 240.806 119.617 240.129 119.612L240.142 119.584Z" fill="white"/>
<path d="M131.231 392.392H386.062C386.409 392.392 386.741 392.244 386.986 391.981C387.232 391.718 387.369 391.361 387.369 390.989C387.369 390.617 387.232 390.261 386.986 389.998C386.741 389.735 386.409 389.587 386.062 389.587H131.231C130.885 389.587 130.552 389.735 130.307 389.998C130.062 390.261 129.925 390.617 129.925 390.989C129.925 391.361 130.062 391.718 130.307 391.981C130.552 392.244 130.885 392.392 131.231 392.392Z" fill="#3F3D56"/>
<path d="M243.07 187.642C243.074 192.737 241.859 197.748 239.541 202.195C237.223 206.642 233.88 210.376 229.832 213.039C229.053 213.55 228.25 214.018 227.427 214.442C226.787 214.778 226.12 215.087 225.441 215.367C218.627 218.238 211.033 218.107 204.309 215.003C203.617 214.68 203.002 214.343 202.31 213.965C201.489 213.499 200.691 212.989 199.918 212.436C195.921 209.583 192.682 205.666 190.516 201.068C188.35 196.47 187.332 191.349 187.561 186.203C187.79 181.057 189.258 176.062 191.822 171.707C194.387 167.352 197.959 163.784 202.191 161.352C206.424 158.92 211.171 157.708 215.97 157.832C220.77 157.956 225.457 159.414 229.575 162.062C233.693 164.71 237.1 168.459 239.466 172.942C241.831 177.425 243.073 182.49 243.07 187.642Z" fill="#1A193C"/>
<path d="M213.431 176.1C213.431 176.1 215.822 169.691 221.403 169.256C223.213 169.155 225.006 169.683 226.515 170.762C228.024 171.84 229.169 173.412 229.779 175.245C230.145 176.465 229.714 181.598 230.969 182.958C231.766 183.813 234.562 185.524 235.751 185.09C235.751 185.09 234.157 188.511 230.969 188.511C226.578 188.511 224.591 187.235 221.403 182.088C219.563 179.066 216.707 176.921 213.431 176.1Z" fill="#4865CC"/>
<path d="M227.179 186.59C227.176 189.395 226.344 192.128 224.804 194.396C223.264 196.663 221.094 198.349 218.606 199.211V192.129H211.432V199.351C208.848 198.557 206.574 196.883 204.955 194.581C203.335 192.279 202.457 189.474 202.454 186.59C202.454 185.946 202.503 185.304 202.597 184.668C203.018 181.51 204.486 178.621 206.731 176.531C208.977 174.441 211.85 173.29 214.823 173.29C217.795 173.29 220.668 174.441 222.914 176.531C225.16 178.621 226.628 181.51 227.048 184.668C227.139 185.304 227.182 185.946 227.179 186.59Z" fill="#F9DACD"/>
<path d="M227.453 184.668H202.989C203.42 181.517 204.892 178.637 207.138 176.554C209.384 174.472 212.253 173.326 215.221 173.326C218.189 173.326 221.058 174.472 223.304 176.554C225.55 178.637 227.023 181.517 227.453 184.668Z" fill="#FCBBA7"/>
<path d="M227.048 184.668H202.558C202.989 181.517 204.461 178.637 206.707 176.554C208.953 174.472 211.822 173.326 214.79 173.326C217.758 173.326 220.627 174.472 222.873 176.554C225.119 178.637 226.592 181.517 227.022 184.668H227.048Z" fill="#4865CC"/>
<path d="M206.243 185.09L208.243 178.246L207.838 185.525L206.243 185.09Z" fill="#F9DACD"/>
<path d="M229.779 208.678V213.082C229 213.593 228.198 214.061 227.375 214.484C226.734 214.821 226.068 215.129 225.388 215.41V202.676H226.786C226.991 202.721 227.189 202.796 227.375 202.9C228.25 203.307 229.779 204.667 229.779 208.678Z" fill="#FF9200"/>
<path d="M204.257 202.633V215.002C203.564 214.679 202.95 214.343 202.257 213.964C201.437 213.498 200.639 212.988 199.866 212.435V208.677C199.866 204.722 201.382 203.362 202.257 202.913C202.448 202.81 202.65 202.735 202.859 202.689L204.257 202.633Z" fill="#FF9200"/>
<path d="M227.388 202.857V214.441C226.747 214.778 226.081 215.086 225.401 215.367C218.588 218.237 210.994 218.106 204.27 215.002C203.577 214.679 202.963 214.343 202.271 213.964V202.857C202.461 202.754 202.663 202.679 202.872 202.633H226.8C227.004 202.678 227.202 202.753 227.388 202.857Z" fill="#FF9200"/>
<path d="M218.606 192.13V202.395C218.608 202.966 218.492 203.53 218.266 204.047C218.04 204.564 217.71 205.02 217.299 205.382C216.67 205.945 215.877 206.253 215.058 206.253C214.239 206.253 213.446 205.945 212.817 205.382C212.403 205.022 212.071 204.566 211.845 204.049C211.619 203.532 211.504 202.967 211.51 202.395V192.13H218.606Z" fill="#F9DACD"/>
<path d="M218.606 199.226V199.478C217.382 199.903 216.103 200.116 214.816 200.109C213.672 200.111 212.534 199.946 211.431 199.618V199.352C213.783 200.065 216.278 200.021 218.606 199.226Z" fill="#FCBBA7"/>
<path d="M226.786 189.802C227.559 189.802 228.185 188.841 228.185 187.656C228.185 186.471 227.559 185.51 226.786 185.51C226.014 185.51 225.388 186.471 225.388 187.656C225.388 188.841 226.014 189.802 226.786 189.802Z" fill="#F9DACD"/>
<path d="M202.859 189.802C203.631 189.802 204.257 188.841 204.257 187.656C204.257 186.471 203.631 185.51 202.859 185.51C202.086 185.51 201.46 186.471 201.46 187.656C201.46 188.841 202.086 189.802 202.859 189.802Z" fill="#F9DACD"/>
</svg>
