<svg width="470" height="361" viewBox="0 0 470 361" fill="none" xmlns="http://www.w3.org/2000/svg">
<rect x="1" y="1" width="468" height="359" rx="9" fill="#FCFCFF" stroke="#1A193C" stroke-width="2"/>
<line x1="8.74228e-08" y1="34" x2="470" y2="34" stroke="#1A193C" stroke-width="2"/>
<circle cx="22" cy="18" r="7" fill="#FCFCFF" stroke="#1A193C" stroke-width="2"/>
<circle cx="46" cy="18" r="7" fill="#FCFCFF" stroke="#1A193C" stroke-width="2"/>
<circle cx="70" cy="18" r="7" fill="#FCFCFF" stroke="#1A193C" stroke-width="2"/>
<path d="M352.611 82.0059C352.253 81.1446 351.655 80.4087 350.89 79.8885C350.126 79.3684 349.229 79.0867 348.31 79.0781H262.464C261.853 79.0781 261.248 79.2007 260.684 79.4388C260.119 79.6768 259.607 80.0258 259.175 80.4656C258.743 80.9055 258.401 81.4276 258.168 82.0021C257.935 82.5766 257.815 83.1923 257.816 83.8138V194.278C257.815 194.899 257.935 195.515 258.168 196.089C258.401 196.664 258.743 197.186 259.175 197.626C259.607 198.066 260.119 198.415 260.684 198.653C261.248 198.891 261.853 199.013 262.464 199.013H348.31C349.544 199.011 350.727 198.512 351.599 197.624C352.472 196.736 352.963 195.533 352.965 194.278V83.8138C352.966 83.1932 352.846 82.5786 352.611 82.0059ZM351.935 194.278C351.933 195.253 351.551 196.188 350.873 196.877C350.195 197.567 349.276 197.955 348.318 197.957H262.464C261.505 197.957 260.585 197.57 259.906 196.88C259.228 196.19 258.847 195.254 258.847 194.278V83.8138C258.849 82.8385 259.231 81.9038 259.908 81.2141C260.586 80.5245 261.505 80.1362 262.464 80.134H348.31C349.034 80.1374 349.74 80.3598 350.34 80.7729C350.939 81.186 351.404 81.7712 351.676 82.4539C351.723 82.5899 351.77 82.7259 351.809 82.8698C351.891 83.1804 351.933 83.5003 351.935 83.8218V194.278Z" fill="#CCCCCC"/>
<path d="M334.693 105.168H308.836C308.287 105.168 307.761 104.947 307.373 104.552C306.985 104.158 306.768 103.623 306.768 103.065C306.768 102.507 306.985 101.972 307.373 101.577C307.761 101.183 308.287 100.961 308.836 100.961H334.693C335.242 100.961 335.768 101.183 336.156 101.577C336.544 101.972 336.762 102.507 336.762 103.065C336.762 103.623 336.544 104.158 336.156 104.552C335.768 104.947 335.242 105.168 334.693 105.168Z" fill="#CCCCCC"/>
<path d="M334.693 116.216H308.836C308.287 116.216 307.761 115.994 307.373 115.599C306.985 115.205 306.768 114.67 306.768 114.112C306.768 113.554 306.985 113.019 307.373 112.624C307.761 112.229 308.287 112.008 308.836 112.008H334.693C335.242 112.008 335.768 112.229 336.156 112.624C336.544 113.019 336.762 113.554 336.762 114.112C336.762 114.67 336.544 115.205 336.156 115.599C335.768 115.994 335.242 116.216 334.693 116.216Z" fill="#CCCCCC"/>
<path d="M334.515 138.829H276.076C275.528 138.829 275.001 138.607 274.614 138.212C274.226 137.818 274.008 137.283 274.008 136.725C274.008 136.167 274.226 135.632 274.614 135.237C275.001 134.843 275.528 134.621 276.076 134.621H334.515C335.063 134.621 335.589 134.843 335.977 135.237C336.365 135.632 336.583 136.167 336.583 136.725C336.583 137.283 336.365 137.818 335.977 138.212C335.589 138.607 335.063 138.829 334.515 138.829Z" fill="#CCCCCC"/>
<path d="M334.515 149.884H276.076C275.528 149.884 275.001 149.662 274.614 149.267C274.226 148.873 274.008 148.338 274.008 147.78C274.008 147.222 274.226 146.687 274.614 146.292C275.001 145.897 275.528 145.676 276.076 145.676H334.515C335.063 145.676 335.589 145.897 335.977 146.292C336.365 146.687 336.583 147.222 336.583 147.78C336.583 148.338 336.365 148.873 335.977 149.267C335.589 149.662 335.063 149.884 334.515 149.884Z" fill="#CCCCCC"/>
<path d="M334.515 160.919H276.076C275.528 160.919 275.001 160.697 274.614 160.302C274.226 159.908 274.008 159.373 274.008 158.815C274.008 158.257 274.226 157.722 274.614 157.327C275.001 156.933 275.528 156.711 276.076 156.711H334.515C335.063 156.711 335.589 156.933 335.977 157.327C336.365 157.722 336.583 158.257 336.583 158.815C336.583 159.373 336.365 159.908 335.977 160.302C335.589 160.697 335.063 160.919 334.515 160.919Z" fill="#CCCCCC"/>
<path d="M334.515 171.973H276.076C275.528 171.973 275.001 171.752 274.614 171.357C274.226 170.963 274.008 170.428 274.008 169.87C274.008 169.312 274.226 168.776 274.614 168.382C275.001 167.987 275.528 167.766 276.076 167.766H334.515C335.063 167.766 335.589 167.987 335.977 168.382C336.365 168.776 336.583 169.312 336.583 169.87C336.583 170.428 336.365 170.963 335.977 171.357C335.589 171.752 335.063 171.973 334.515 171.973Z" fill="#CCCCCC"/>
<path d="M334.515 183.016H276.076C275.528 183.016 275.001 182.794 274.614 182.4C274.226 182.005 274.008 181.47 274.008 180.912C274.008 180.354 274.226 179.819 274.614 179.425C275.001 179.03 275.528 178.809 276.076 178.809H334.515C335.063 178.809 335.589 179.03 335.977 179.425C336.365 179.819 336.583 180.354 336.583 180.912C336.583 181.47 336.365 182.005 335.977 182.4C335.589 182.794 335.063 183.016 334.515 183.016Z" fill="#CCCCCC"/>
<path d="M244.133 199.479H364.801C364.966 199.479 365.124 199.412 365.24 199.293C365.357 199.175 365.422 199.014 365.422 198.847C365.422 198.679 365.357 198.518 365.24 198.4C365.124 198.281 364.966 198.215 364.801 198.215H244.133C243.97 198.215 243.813 198.28 243.696 198.397C243.58 198.514 243.514 198.673 243.512 198.839C243.512 199.006 243.576 199.166 243.69 199.286C243.805 199.405 243.961 199.474 244.125 199.479H244.133Z" fill="#CCCCCC"/>
<path d="M302.774 107.978C302.779 110.882 302.052 113.739 300.661 116.276C299.27 118.812 297.263 120.943 294.831 122.465C294.366 122.756 293.885 123.023 293.392 123.265C292.999 123.457 292.606 123.633 292.197 123.801C288.092 125.43 283.522 125.352 279.473 123.585C279.064 123.409 278.686 123.209 278.277 123.001C275.657 121.597 273.45 119.51 271.883 116.954C270.315 114.397 269.444 111.463 269.359 108.452C269.273 105.44 269.975 102.46 271.395 99.8152C272.814 97.1708 274.898 94.9575 277.435 93.402C279.971 91.8464 282.869 91.0046 285.83 90.9626C288.792 90.9206 291.711 91.68 294.289 93.163C296.867 94.646 299.012 96.7994 300.502 99.4026C301.993 102.006 302.777 104.965 302.774 107.978Z" fill="#545454"/>
<path d="M284.994 101.408C284.994 101.408 286.433 97.7439 289.791 97.4959C290.881 97.4354 291.962 97.7354 292.87 98.3511C293.779 98.9668 294.467 99.8651 294.832 100.912C295.06 101.608 294.832 104.535 295.556 105.311C296.035 105.799 297.711 106.775 298.434 106.527C298.434 106.527 297.475 108.479 295.556 108.479C292.913 108.479 291.718 107.751 289.791 104.823C288.684 103.099 286.966 101.876 284.994 101.408Z" fill="#DDDDDD"/>
<path d="M293.276 107.382C293.273 108.984 292.772 110.544 291.843 111.837C290.915 113.131 289.608 114.092 288.109 114.582V110.542H283.799V114.662C282.243 114.211 280.873 113.257 279.899 111.943C278.924 110.63 278.396 109.028 278.396 107.382C278.399 107.016 278.425 106.65 278.475 106.287C278.734 104.489 279.62 102.846 280.972 101.658C282.323 100.47 284.05 99.8164 285.836 99.8164C287.622 99.8164 289.349 100.47 290.7 101.658C292.052 102.846 292.938 104.489 293.197 106.287C293.251 106.649 293.277 107.016 293.276 107.382Z" fill="#757575"/>
<path d="M293.431 106.287H278.717C278.97 104.486 279.853 102.838 281.205 101.645C282.556 100.453 284.285 99.7969 286.074 99.7969C287.863 99.7969 289.591 100.453 290.943 101.645C292.294 102.838 293.178 104.486 293.431 106.287Z" fill="#302416"/>
<path d="M293.196 106.287H278.475C278.734 104.489 279.62 102.846 280.971 101.658C282.323 100.47 284.049 99.8164 285.835 99.8164C287.622 99.8164 289.348 100.47 290.7 101.658C292.051 102.846 292.937 104.489 293.196 106.287Z" fill="#DDDDDD"/>
<path d="M280.676 106.525L281.879 102.621L281.635 106.774L280.676 106.525Z" fill="#757575"/>
<path d="M294.832 119.946V122.458C294.366 122.75 293.886 123.017 293.393 123.258C292.999 123.45 292.606 123.626 292.197 123.794V116.562H293.031C293.157 116.589 293.278 116.632 293.393 116.69C293.92 116.914 294.832 117.69 294.832 119.946Z" fill="#DDDDDD"/>
<path d="M279.473 116.567V123.623C279.064 123.447 278.686 123.247 278.277 123.039C277.778 122.774 277.292 122.483 276.822 122.167V119.951C276.822 117.695 277.735 116.919 278.261 116.663C278.376 116.604 278.498 116.561 278.623 116.535L279.473 116.567Z" fill="#DDDDDD"/>
<path d="M293.394 116.663V123.271C293.001 123.463 292.608 123.639 292.199 123.807C288.094 125.436 283.524 125.359 279.475 123.591C279.066 123.415 278.688 123.215 278.279 123.007V116.663C278.394 116.604 278.515 116.561 278.641 116.535H293.032C293.158 116.561 293.28 116.604 293.394 116.663Z" fill="#9B9B9B"/>
<path d="M288.108 110.543V116.398C288.111 116.725 288.042 117.049 287.906 117.345C287.77 117.641 287.57 117.903 287.322 118.11C286.939 118.426 286.462 118.598 285.969 118.598C285.477 118.598 284.999 118.426 284.617 118.11C284.368 117.903 284.169 117.641 284.033 117.345C283.897 117.049 283.827 116.725 283.83 116.398V110.543H288.108Z" fill="#757575"/>
<path d="M288.111 114.594V114.738C287.378 114.983 286.61 115.107 285.838 115.106C285.149 115.105 284.464 115.008 283.801 114.818V114.666C285.213 115.073 286.712 115.048 288.111 114.594Z" fill="#302416"/>
<path d="M293.033 109.214C293.498 109.214 293.875 108.666 293.875 107.99C293.875 107.314 293.498 106.766 293.033 106.766C292.568 106.766 292.191 107.314 292.191 107.99C292.191 108.666 292.568 109.214 293.033 109.214Z" fill="#757575"/>
<path d="M278.638 109.214C279.103 109.214 279.48 108.666 279.48 107.99C279.48 107.314 279.103 106.766 278.638 106.766C278.174 106.766 277.797 107.314 277.797 107.99C277.797 108.666 278.174 109.214 278.638 109.214Z" fill="#757575"/>
<path d="M353.737 76.8663C355.259 67.3334 348.895 58.3511 339.523 56.8037C330.151 55.2563 321.321 61.7298 319.799 71.2627C318.278 80.7955 324.642 89.7779 334.014 91.3253C343.386 92.8727 352.216 86.3992 353.737 76.8663Z" fill="#CCCCCC"/>
<path d="M335.019 80.7269C334.634 80.7263 334.259 80.6001 333.95 80.3669L329.907 77.2231C329.529 76.9292 329.281 76.4945 329.217 76.0144C329.154 75.5343 329.28 75.0483 329.569 74.6632C329.858 74.2782 330.286 74.0256 330.758 73.9611C331.229 73.8966 331.707 74.0254 332.086 74.3193L334.705 76.3591L340.894 68.1597C341.037 67.9693 341.216 67.8097 341.42 67.6897C341.624 67.5698 341.85 67.492 342.083 67.4608C342.317 67.4296 342.555 67.4456 342.782 67.5079C343.01 67.5701 343.223 67.6775 343.41 67.8237L343.371 67.8717L343.41 67.8237C343.597 67.9696 343.754 68.1516 343.872 68.3592C343.99 68.5669 344.067 68.7962 344.097 69.0339C344.128 69.2717 344.112 69.5133 344.051 69.7449C343.99 69.9764 343.884 70.1935 343.741 70.3835L336.466 80.0309C336.297 80.2528 336.08 80.4324 335.832 80.5558C335.584 80.6792 335.311 80.7432 335.035 80.7429L335.019 80.7269Z" fill="white"/>
<path d="M160.834 119.614C170.328 119.614 178.025 111.785 178.025 102.127C178.025 92.4697 170.328 84.6406 160.834 84.6406C151.339 84.6406 143.643 92.4697 143.643 102.127C143.643 111.785 151.339 119.614 160.834 119.614Z" fill="#CCCCCC"/>
<path d="M159.128 108.793C158.747 108.793 158.377 108.667 158.074 108.433L154.032 105.289C153.845 105.143 153.688 104.961 153.57 104.754C153.452 104.546 153.376 104.317 153.345 104.079C153.315 103.841 153.33 103.6 153.391 103.368C153.453 103.137 153.558 102.92 153.701 102.73C153.845 102.539 154.024 102.38 154.228 102.26C154.432 102.14 154.658 102.063 154.891 102.031C155.125 102 155.362 102.016 155.59 102.078C155.818 102.14 156.031 102.248 156.218 102.394L158.837 104.433L165.018 96.2261C165.161 96.0357 165.34 95.8761 165.544 95.7561C165.749 95.6362 165.974 95.5584 166.208 95.5272C166.441 95.496 166.679 95.512 166.907 95.5743C167.134 95.6365 167.348 95.7439 167.535 95.8901V95.9461V95.8901C167.912 96.1848 168.159 96.6194 168.223 97.0991C168.286 97.5787 168.16 98.0643 167.873 98.4499L160.559 108.081C160.39 108.305 160.174 108.486 159.926 108.61C159.678 108.735 159.405 108.8 159.128 108.801V108.793Z" fill="white"/>
<path d="M191.68 113.857C191.315 113.003 190.714 112.275 189.951 111.762C189.187 111.25 188.293 110.974 187.378 110.969H101.532C100.3 110.971 99.1195 111.47 98.2484 112.356C97.3772 113.242 96.8868 114.443 96.8848 115.696V226.16C96.8868 227.413 97.3772 228.615 98.2484 229.501C99.1195 230.387 100.3 230.886 101.532 230.888H187.378C188.611 230.888 189.794 230.39 190.667 229.504C191.54 228.617 192.031 227.415 192.034 226.16V115.656C192.035 115.038 191.914 114.426 191.68 113.857ZM191.003 226.16C190.999 227.135 190.617 228.068 189.939 228.757C189.262 229.447 188.344 229.836 187.386 229.84H101.532C100.573 229.84 99.6529 229.452 98.9745 228.762C98.2961 228.072 97.915 227.136 97.915 226.16V115.656C97.9171 114.681 98.2988 113.746 98.9768 113.057C99.6548 112.367 100.574 111.979 101.532 111.977H187.378C188.102 111.981 188.808 112.204 189.407 112.617C190.006 113.03 190.471 113.614 190.744 114.297C190.791 114.432 190.838 114.576 190.878 114.712C190.958 115.023 191.001 115.343 191.003 115.664V226.16Z" fill="#CCCCCC"/>
<path d="M173.805 137.005H147.908C147.36 137.005 146.834 136.783 146.446 136.388C146.058 135.994 145.84 135.459 145.84 134.901C145.84 134.343 146.058 133.808 146.446 133.413C146.834 133.019 147.36 132.797 147.908 132.797H173.805C174.353 132.797 174.879 133.019 175.267 133.413C175.655 133.808 175.873 134.343 175.873 134.901C175.873 135.459 175.655 135.994 175.267 136.388C174.879 136.783 174.353 137.005 173.805 137.005Z" fill="#CCCCCC"/>
<path d="M173.805 148.052H147.908C147.36 148.052 146.834 147.83 146.446 147.435C146.058 147.041 145.84 146.506 145.84 145.948C145.84 145.39 146.058 144.855 146.446 144.46C146.834 144.065 147.36 143.844 147.908 143.844H173.805C174.353 143.844 174.879 144.065 175.267 144.46C175.655 144.855 175.873 145.39 175.873 145.948C175.873 146.506 175.655 147.041 175.267 147.435C174.879 147.83 174.353 148.052 173.805 148.052Z" fill="#CCCCCC"/>
<path d="M134.64 154.341H115.766C115.14 154.341 114.54 154.088 114.097 153.638C113.655 153.188 113.406 152.577 113.406 151.941V129.294C113.406 128.658 113.655 128.047 114.097 127.597C114.54 127.147 115.14 126.895 115.766 126.895H134.64C135.265 126.895 135.865 127.147 136.308 127.597C136.75 128.047 136.999 128.658 136.999 129.294V151.973C136.99 152.604 136.738 153.206 136.297 153.649C135.855 154.092 135.26 154.341 134.64 154.341Z" fill="#CCCCCC"/>
<path d="M173.581 170.672H115.142C114.594 170.672 114.068 170.451 113.68 170.056C113.292 169.662 113.074 169.127 113.074 168.569C113.074 168.011 113.292 167.476 113.68 167.081C114.068 166.686 114.594 166.465 115.142 166.465H173.581C174.13 166.465 174.656 166.686 175.044 167.081C175.432 167.476 175.65 168.011 175.65 168.569C175.65 169.127 175.432 169.662 175.044 170.056C174.656 170.451 174.13 170.672 173.581 170.672Z" fill="#CCCCCC"/>
<path d="M173.581 181.72H115.142C114.594 181.72 114.068 181.498 113.68 181.103C113.292 180.709 113.074 180.174 113.074 179.616C113.074 179.058 113.292 178.523 113.68 178.128C114.068 177.733 114.594 177.512 115.142 177.512H173.581C174.13 177.512 174.656 177.733 175.044 178.128C175.432 178.523 175.65 179.058 175.65 179.616C175.65 180.174 175.432 180.709 175.044 181.103C174.656 181.498 174.13 181.72 173.581 181.72Z" fill="#CCCCCC"/>
<path d="M173.583 192.77H115.144C114.616 192.737 114.121 192.501 113.759 192.109C113.397 191.718 113.195 191.2 113.195 190.663C113.195 190.125 113.397 189.608 113.759 189.216C114.121 188.824 114.616 188.588 115.144 188.555H173.583C174.11 188.588 174.605 188.824 174.967 189.216C175.329 189.608 175.531 190.125 175.531 190.663C175.531 191.2 175.329 191.718 174.967 192.109C174.605 192.501 174.11 192.737 173.583 192.77Z" fill="#CCCCCC"/>
<path d="M173.581 203.817H115.142C114.594 203.817 114.068 203.595 113.68 203.201C113.292 202.806 113.074 202.271 113.074 201.713C113.074 201.155 113.292 200.62 113.68 200.226C114.068 199.831 114.594 199.609 115.142 199.609H173.581C174.13 199.609 174.656 199.831 175.044 200.226C175.432 200.62 175.65 201.155 175.65 201.713C175.65 202.271 175.432 202.806 175.044 203.201C174.656 203.595 174.13 203.817 173.581 203.817Z" fill="#CCCCCC"/>
<path d="M173.581 214.852H115.142C114.594 214.852 114.068 214.63 113.68 214.236C113.292 213.841 113.074 213.306 113.074 212.748C113.074 212.19 113.292 211.655 113.68 211.261C114.068 210.866 114.594 210.645 115.142 210.645H173.581C174.13 210.645 174.656 210.866 175.044 211.261C175.432 211.655 175.65 212.19 175.65 212.748C175.65 213.306 175.432 213.841 175.044 214.236C174.656 214.63 174.13 214.852 173.581 214.852Z" fill="#CCCCCC"/>
<path d="M83.1994 231.319H203.868C204.019 231.301 204.159 231.228 204.261 231.112C204.363 230.996 204.419 230.846 204.419 230.691C204.419 230.535 204.363 230.385 204.261 230.27C204.159 230.154 204.019 230.08 203.868 230.063H83.1994C83.1182 230.061 83.0376 230.077 82.9622 230.108C82.8869 230.139 82.8184 230.184 82.7606 230.242C82.7028 230.301 82.6569 230.37 82.6256 230.446C82.5942 230.522 82.5781 230.604 82.5781 230.687C82.5781 230.853 82.6425 231.012 82.7573 231.131C82.8721 231.249 83.0281 231.317 83.1915 231.319H83.1994Z" fill="#CCCCCC"/>
<path d="M141.897 140.653C141.9 143.56 141.169 146.418 139.774 148.955C138.379 151.491 136.367 153.621 133.931 155.14C133.465 155.432 132.985 155.699 132.492 155.94C132.099 156.132 131.698 156.308 131.289 156.468C127.188 158.105 122.619 158.031 118.572 156.26C118.163 156.076 117.786 155.884 117.377 155.668C114.76 154.261 112.557 152.172 110.994 149.615C109.431 147.058 108.564 144.124 108.481 141.114C108.398 138.104 109.103 135.126 110.523 132.484C111.943 129.842 114.028 127.631 116.564 126.078C119.1 124.524 121.995 123.684 124.955 123.642C127.915 123.601 130.833 124.36 133.41 125.841C135.987 127.323 138.131 129.475 139.622 132.076C141.113 134.677 141.898 137.634 141.897 140.645V140.653Z" fill="#545454"/>
<path d="M132.375 140.059C132.371 141.66 131.87 143.219 130.941 144.513C130.013 145.806 128.707 146.767 127.208 147.259V143.211H122.899V147.331C121.343 146.88 119.973 145.925 118.998 144.612C118.023 143.298 117.496 141.697 117.496 140.051C117.494 139.684 117.521 139.318 117.575 138.955C117.828 137.154 118.711 135.506 120.063 134.313C121.414 133.121 123.143 132.465 124.932 132.465C126.721 132.465 128.45 133.121 129.801 134.313C131.152 135.506 132.036 137.154 132.289 138.955C132.346 139.32 132.375 139.689 132.375 140.059Z" fill="#DDDDDD"/>
<path d="M132.53 138.966H117.809C118.068 137.169 118.954 135.526 120.305 134.338C121.657 133.15 123.383 132.496 125.169 132.496C126.956 132.496 128.682 133.15 130.034 134.338C131.385 135.526 132.271 137.169 132.53 138.966Z" fill="#545454"/>
<path d="M132.288 138.963H117.574C117.827 137.162 118.711 135.513 120.062 134.321C121.413 133.129 123.142 132.473 124.931 132.473C126.72 132.473 128.449 133.129 129.8 134.321C131.152 135.513 132.035 137.162 132.288 138.963Z" fill="#757575"/>
<path d="M128.428 141.604L129.623 137.699L129.387 141.852L128.428 141.604Z" fill="#DDDDDD"/>
<path d="M133.931 152.623V155.135C133.465 155.426 132.985 155.693 132.492 155.935C132.099 156.127 131.698 156.303 131.289 156.463V149.199H132.123C132.248 149.225 132.37 149.268 132.484 149.327C133.019 149.591 133.931 150.367 133.931 152.623Z" fill="#9B9B9B"/>
<path d="M118.574 149.211V156.267C118.165 156.083 117.788 155.891 117.379 155.675C116.882 155.409 116.399 155.118 115.932 154.803V152.627C115.932 150.371 116.852 149.595 117.379 149.339C117.49 149.28 117.609 149.237 117.733 149.211H118.574Z" fill="#9B9B9B"/>
<path d="M132.492 149.366V155.974C132.099 156.166 131.698 156.342 131.289 156.502C127.188 158.139 122.619 158.064 118.572 156.294C118.163 156.11 117.786 155.918 117.377 155.702V149.366C117.488 149.307 117.608 149.264 117.731 149.238H132.122C132.251 149.264 132.375 149.307 132.492 149.366Z" fill="#757575"/>
<path d="M127.208 143.227V149.082C127.21 149.409 127.141 149.732 127.005 150.029C126.869 150.325 126.669 150.586 126.421 150.794C126.039 151.11 125.561 151.282 125.069 151.282C124.576 151.282 124.099 151.11 123.716 150.794C123.468 150.586 123.269 150.325 123.133 150.029C122.997 149.732 122.928 149.409 122.93 149.082V143.227H127.208Z" fill="#DDDDDD"/>
<path d="M127.207 147.27V147.414C126.473 147.656 125.705 147.778 124.934 147.774C124.245 147.775 123.56 147.681 122.896 147.494V147.342C124.309 147.749 125.808 147.724 127.207 147.27Z" fill="#9B9B9B"/>
<path d="M132.131 141.889C132.595 141.889 132.972 141.341 132.972 140.665C132.972 139.989 132.595 139.441 132.131 139.441C131.666 139.441 131.289 139.989 131.289 140.665C131.289 141.341 131.666 141.889 132.131 141.889Z" fill="#DDDDDD"/>
<path d="M117.732 141.889C118.197 141.889 118.574 141.341 118.574 140.665C118.574 139.989 118.197 139.441 117.732 139.441C117.267 139.441 116.891 139.989 116.891 140.665C116.891 141.341 117.267 141.889 117.732 141.889Z" fill="#DDDDDD"/>
<path d="M292.702 124.453H185.081C181.406 124.453 178.428 127.483 178.428 131.221V270.107C178.428 273.844 181.406 276.874 185.081 276.874H292.702C296.377 276.874 299.355 273.844 299.355 270.107V131.221C299.355 127.483 296.377 124.453 292.702 124.453Z" fill="white"/>
<path d="M298.899 128.173C298.446 127.077 297.686 126.141 296.715 125.48C295.743 124.818 294.602 124.462 293.434 124.453H184.342C182.773 124.453 181.269 125.087 180.16 126.215C179.051 127.343 178.428 128.873 178.428 130.469V270.859C178.428 272.454 179.051 273.984 180.16 275.112C181.269 276.24 182.773 276.874 184.342 276.874H293.441C295.009 276.872 296.512 276.238 297.621 275.11C298.729 273.982 299.353 272.453 299.355 270.859V130.469C299.356 129.681 299.204 128.901 298.907 128.173H298.899ZM298.058 270.859C298.058 271.473 297.939 272.082 297.707 272.649C297.476 273.217 297.137 273.733 296.71 274.168C296.283 274.602 295.776 274.947 295.218 275.182C294.66 275.417 294.061 275.538 293.457 275.538H184.342C183.121 275.538 181.951 275.045 181.089 274.168C180.226 273.29 179.741 272.1 179.741 270.859V130.469C179.743 129.228 180.228 128.039 181.091 127.162C181.953 126.285 183.122 125.791 184.342 125.789H293.441C294.36 125.795 295.256 126.078 296.016 126.602C296.776 127.126 297.366 127.867 297.712 128.733C297.775 128.909 297.837 129.085 297.885 129.261C297.987 129.655 298.04 130.061 298.042 130.469L298.058 270.859Z" fill="#3F3D56"/>
<path d="M276.131 157.606H243.274C242.917 157.626 242.559 157.571 242.223 157.446C241.887 157.32 241.579 157.126 241.319 156.876C241.059 156.626 240.852 156.324 240.711 155.989C240.569 155.655 240.496 155.294 240.496 154.93C240.496 154.566 240.569 154.205 240.711 153.871C240.852 153.536 241.059 153.234 241.319 152.984C241.579 152.733 241.887 152.54 242.223 152.414C242.559 152.289 242.917 152.234 243.274 152.254H276.131C276.804 152.291 277.437 152.59 277.9 153.087C278.364 153.585 278.622 154.245 278.622 154.93C278.622 155.615 278.364 156.275 277.9 156.772C277.437 157.27 276.804 157.568 276.131 157.606Z" fill="#3F3D56"/>
<path d="M276.131 171.641H243.274C242.917 171.661 242.559 171.607 242.223 171.481C241.887 171.356 241.579 171.162 241.319 170.911C241.059 170.661 240.852 170.359 240.711 170.024C240.569 169.69 240.496 169.329 240.496 168.965C240.496 168.601 240.569 168.24 240.711 167.906C240.852 167.571 241.059 167.27 241.319 167.019C241.579 166.769 241.887 166.575 242.223 166.449C242.559 166.324 242.917 166.269 243.274 166.289H276.131C276.804 166.327 277.437 166.625 277.9 167.123C278.364 167.62 278.622 168.28 278.622 168.965C278.622 169.651 278.364 170.31 277.9 170.808C277.437 171.305 276.804 171.604 276.131 171.641Z" fill="#3F3D56"/>
<path d="M275.904 200.382H201.642C200.946 200.382 200.278 200.101 199.785 199.6C199.292 199.099 199.016 198.419 199.016 197.711C199.016 197.002 199.292 196.323 199.785 195.822C200.278 195.321 200.946 195.039 201.642 195.039H275.904C276.6 195.039 277.268 195.321 277.761 195.822C278.254 196.323 278.53 197.002 278.53 197.711C278.53 198.419 278.254 199.099 277.761 199.6C277.268 200.101 276.6 200.382 275.904 200.382Z" fill="#CCCCCC"/>
<path d="M275.904 214.426H201.642C200.946 214.426 200.278 214.144 199.785 213.643C199.292 213.142 199.016 212.463 199.016 211.754C199.016 211.045 199.292 210.366 199.785 209.865C200.278 209.364 200.946 209.082 201.642 209.082H275.904C276.6 209.082 277.268 209.364 277.761 209.865C278.254 210.366 278.53 211.045 278.53 211.754C278.53 212.463 278.254 213.142 277.761 213.643C277.268 214.144 276.6 214.426 275.904 214.426Z" fill="#CCCCCC"/>
<path d="M275.904 228.461H201.642C200.946 228.461 200.278 228.179 199.785 227.678C199.292 227.177 199.016 226.498 199.016 225.789C199.016 225.08 199.292 224.401 199.785 223.9C200.278 223.399 200.946 223.117 201.642 223.117H275.904C276.6 223.117 277.268 223.399 277.761 223.9C278.254 224.401 278.53 225.08 278.53 225.789C278.53 226.498 278.254 227.177 277.761 227.678C277.268 228.179 276.6 228.461 275.904 228.461Z" fill="#CCCCCC"/>
<path d="M275.904 242.504H201.642C200.946 242.504 200.278 242.222 199.785 241.721C199.292 241.22 199.016 240.54 199.016 239.832C199.016 239.123 199.292 238.444 199.785 237.943C200.278 237.442 200.946 237.16 201.642 237.16H275.904C276.6 237.16 277.268 237.442 277.761 237.943C278.254 238.444 278.53 239.123 278.53 239.832C278.53 240.54 278.254 241.22 277.761 241.721C277.268 242.222 276.6 242.504 275.904 242.504Z" fill="#CCCCCC"/>
<path d="M275.904 256.558H201.642C200.946 256.558 200.278 256.277 199.785 255.776C199.292 255.275 199.016 254.595 199.016 253.887C199.016 253.178 199.292 252.498 199.785 251.997C200.278 251.496 200.946 251.215 201.642 251.215H275.904C276.6 251.215 277.268 251.496 277.761 251.997C278.254 252.498 278.53 253.178 278.53 253.887C278.53 254.595 278.254 255.275 277.761 255.776C277.268 256.277 276.6 256.558 275.904 256.558Z" fill="#CCCCCC"/>
<path d="M229.604 137.702C243.616 137.702 254.974 126.148 254.974 111.896C254.974 97.6436 243.616 86.0898 229.604 86.0898C215.593 86.0898 204.234 97.6436 204.234 111.896C204.234 126.148 215.593 137.702 229.604 137.702Z" fill="#FF9200"/>
<path d="M227.091 121.746C226.523 121.743 225.972 121.555 225.518 121.21L219.517 116.57C219.225 116.361 218.977 116.095 218.788 115.786C218.6 115.478 218.474 115.133 218.42 114.774C218.365 114.415 218.383 114.049 218.471 113.696C218.559 113.344 218.717 113.014 218.933 112.725C219.15 112.437 219.422 112.196 219.733 112.017C220.044 111.838 220.387 111.724 220.742 111.684C221.097 111.643 221.457 111.676 221.799 111.78C222.141 111.884 222.459 112.058 222.734 112.29L226.595 115.306L235.725 103.195C235.936 102.913 236.2 102.676 236.501 102.499C236.802 102.321 237.135 102.206 237.48 102.16C237.825 102.113 238.176 102.137 238.512 102.23C238.848 102.323 239.162 102.482 239.437 102.699L239.382 102.779L239.437 102.699C239.714 102.914 239.946 103.182 240.12 103.488C240.294 103.795 240.407 104.133 240.452 104.484C240.497 104.835 240.474 105.191 240.384 105.533C240.293 105.874 240.137 106.194 239.925 106.475L229.19 120.714C228.942 121.042 228.623 121.308 228.258 121.489C227.892 121.671 227.49 121.764 227.083 121.762L227.091 121.746Z" fill="white"/>
<path d="M228.855 160.564C228.857 163.47 228.126 166.329 226.731 168.865C225.336 171.402 223.324 173.532 220.888 175.051C220.419 175.342 219.937 175.609 219.441 175.851C219.056 176.043 218.655 176.219 218.246 176.378C214.145 178.016 209.576 177.941 205.529 176.171C205.112 175.987 204.743 175.795 204.326 175.579C203.832 175.313 203.352 175.022 202.887 174.707C200.482 173.079 198.532 170.845 197.229 168.222C195.926 165.6 195.313 162.678 195.451 159.743C195.588 156.807 196.472 153.959 198.015 151.474C199.558 148.99 201.708 146.955 204.255 145.568C206.802 144.181 209.659 143.489 212.547 143.56C215.435 143.631 218.256 144.462 220.734 145.973C223.212 147.483 225.262 149.621 226.686 152.179C228.109 154.736 228.856 157.625 228.855 160.564Z" fill="#1A193C"/>
<path d="M211.016 153.977C211.016 153.977 212.455 150.321 215.813 150.073C216.902 150.016 217.981 150.317 218.889 150.932C219.798 151.547 220.486 152.444 220.854 153.489C221.074 154.185 220.814 157.113 221.569 157.889C222.049 158.377 223.732 159.353 224.448 159.105C224.448 159.105 223.488 161.057 221.569 161.057C218.927 161.057 217.732 160.329 215.813 157.393C214.706 155.669 212.987 154.445 211.016 153.977Z" fill="#4865CC"/>
<path d="M219.289 159.965C219.287 161.566 218.787 163.124 217.86 164.418C216.933 165.711 215.628 166.673 214.13 167.165V163.125H209.813V167.245C208.258 166.792 206.89 165.836 205.915 164.523C204.941 163.21 204.412 161.61 204.41 159.965C204.411 159.598 204.44 159.232 204.497 158.869C204.75 157.068 205.633 155.42 206.984 154.227C208.336 153.035 210.065 152.379 211.854 152.379C213.643 152.379 215.371 153.035 216.723 154.227C218.074 155.42 218.958 157.068 219.211 158.869C219.265 159.232 219.291 159.598 219.289 159.965Z" fill="#F9DACD"/>
<path d="M219.452 158.865H204.73C204.989 157.067 205.876 155.424 207.227 154.236C208.579 153.048 210.305 152.395 212.091 152.395C213.878 152.395 215.604 153.048 216.956 154.236C218.307 155.424 219.193 157.067 219.452 158.865Z" fill="#FCBBA7"/>
<path d="M219.21 158.865H204.473C204.732 157.067 205.618 155.424 206.969 154.236C208.321 153.048 210.047 152.395 211.834 152.395C213.62 152.395 215.346 153.048 216.698 154.236C218.049 155.424 218.936 157.067 219.195 158.865H219.21Z" fill="#4865CC"/>
<path d="M206.689 159.108L207.893 155.203L207.649 159.356L206.689 159.108Z" fill="#F9DACD"/>
<path d="M220.855 172.564V175.076C220.387 175.368 219.904 175.635 219.408 175.876C219.023 176.068 218.622 176.244 218.213 176.404V169.141H219.054C219.178 169.166 219.297 169.209 219.408 169.269C219.935 169.501 220.855 170.277 220.855 172.564Z" fill="#FF9200"/>
<path d="M205.496 169.113V176.169C205.079 175.985 204.709 175.793 204.293 175.577C203.799 175.311 203.318 175.02 202.854 174.705V172.561C202.854 170.305 203.766 169.529 204.293 169.273C204.407 169.214 204.529 169.171 204.654 169.145L205.496 169.113Z" fill="#FF9200"/>
<path d="M219.414 169.241V175.849C219.028 176.041 218.627 176.217 218.218 176.377C214.118 178.014 209.548 177.94 205.502 176.169C205.085 175.985 204.716 175.793 204.299 175.577V169.241C204.413 169.182 204.535 169.139 204.661 169.113H219.06C219.183 169.139 219.302 169.182 219.414 169.241Z" fill="#FF9200"/>
<path d="M214.13 163.125V168.98C214.131 169.306 214.062 169.628 213.925 169.923C213.789 170.217 213.591 170.477 213.343 170.684C212.965 171.005 212.487 171.181 211.995 171.181C211.502 171.181 211.025 171.005 210.646 170.684C210.397 170.479 210.198 170.219 210.061 169.924C209.925 169.629 209.856 169.306 209.859 168.98V163.125H214.13Z" fill="#F9DACD"/>
<path d="M214.131 167.172V167.316C213.394 167.559 212.624 167.68 211.85 167.676C211.161 167.677 210.476 167.583 209.812 167.396V167.244C211.228 167.651 212.729 167.626 214.131 167.172Z" fill="#FCBBA7"/>
<path d="M219.055 161.796C219.519 161.796 219.896 161.248 219.896 160.572C219.896 159.896 219.519 159.348 219.055 159.348C218.59 159.348 218.213 159.896 218.213 160.572C218.213 161.248 218.59 161.796 219.055 161.796Z" fill="#F9DACD"/>
<path d="M204.654 161.796C205.119 161.796 205.496 161.248 205.496 160.572C205.496 159.896 205.119 159.348 204.654 159.348C204.189 159.348 203.812 159.896 203.812 160.572C203.812 161.248 204.189 161.796 204.654 161.796Z" fill="#F9DACD"/>
<rect x="175" y="303" width="120" height="26" rx="6" fill="#FF9200"/>
<line x1="211.5" y1="316.5" x2="259.5" y2="316.5" stroke="#F7F7FB" stroke-width="3" stroke-linecap="round"/>
</svg>
