<svg width="28" height="22" viewBox="0 0 28 22" fill="none" xmlns="http://www.w3.org/2000/svg">
<g clip-path="url(#clip0)">
<g opacity="0.31">
<path opacity="0.31" d="M26.0552 4.25613C24.0968 3.48173 23.988 2.01613 24.1352 1.17773C25.585 1.48957 26.8885 2.27821 27.8376 3.41773C27.8376 3.41773 28.1128 3.60333 26.0552 4.25613Z" fill="#1A193C"/>
<path opacity="0.31" d="M19.0725 6.29837C18.5373 6.83953 18.061 7.43594 17.6517 8.07758L17.0693 8.96398C17.0693 8.96398 15.2805 9.53678 15.7317 7.37998C15.8834 6.50924 15.9902 5.63128 16.0517 4.74958C16.0581 3.99758 15.4917 2.99917 16.8805 2.42317C17.0696 2.34588 17.2643 2.28277 17.4629 2.23438V2.23438C18.1029 2.75278 19.1973 3.70638 18.8453 5.00878C18.7765 5.21007 18.756 5.42472 18.7854 5.6354C18.8149 5.84607 18.8935 6.04687 19.0149 6.22157L19.0725 6.29837Z" fill="#1A193C"/>
<path opacity="0.31" d="M19.0725 6.29837C18.5373 6.83953 18.061 7.43594 17.6517 8.07758L17.0693 8.96398C17.0693 8.96398 15.2805 9.53678 15.7317 7.37998C15.8834 6.50924 15.9902 5.63128 16.0517 4.74958C16.0581 3.99758 15.4917 2.99917 16.8805 2.42317C17.0696 2.34588 17.2643 2.28277 17.4629 2.23438V2.23438C18.1029 2.75278 19.1973 3.70638 18.8453 5.00878C18.7765 5.21007 18.756 5.42472 18.7854 5.6354C18.8149 5.84607 18.8935 6.04687 19.0149 6.22157L19.0725 6.29837Z" fill="#1A193C"/>
<path opacity="0.31" d="M8.83246 16.3239L7.85646 16.1415H7.81486L5.79886 15.7383C4.68846 16.3399 5.90126 18.1927 5.90126 18.1927L7.45646 17.8119L5.85646 18.7047C5.58766 19.4183 6.25326 19.9207 6.81646 20.2087C6.85486 21.4535 9.05646 21.2327 9.05646 21.2327L9.73166 18.4391C9.72872 18.4254 9.72872 18.4112 9.73166 18.3975C9.73586 18.3759 9.7412 18.3545 9.74766 18.3335C9.74766 18.2919 9.77006 18.2503 9.77966 18.2119C9.82766 18.0487 9.87886 17.8919 9.92686 17.7575C10.0421 17.4375 10.1509 17.2039 10.1765 17.1495C9.66797 16.9877 9.20664 16.7043 8.83246 16.3239V16.3239ZM8.89646 16.4135C8.87485 16.3933 8.85554 16.3707 8.83886 16.3463L8.89646 16.4135Z" fill="#1A193C"/>
<path opacity="0.31" d="M19.2902 6.46543C18.6854 7.03503 17.7382 8.25423 16.5414 10.8366C16.3718 11.195 16.2022 11.579 16.0262 11.995C15.8037 12.4601 15.5493 12.9092 15.2646 13.339C15.0863 13.612 14.893 13.8748 14.6854 14.1262C13.5264 15.5474 11.9647 16.5848 10.2054 17.1022C9.68887 16.9512 9.21741 16.6753 8.83264 16.299C9.85984 14.539 9.85344 13.947 10.4326 12.3694C9.79611 12.6432 9.11258 12.7909 8.41984 12.8046H8.34944C8.1226 12.8071 7.89587 12.7932 7.67104 12.763C6.58926 12.5955 5.57665 12.1264 4.74944 11.4094C4.57664 11.2686 4.42944 11.1182 4.49664 10.8846C4.56384 10.651 4.74624 10.5646 4.96064 10.5294C5.28064 10.459 5.56864 10.3758 5.87264 10.299C5.62668 10.2102 5.37419 10.1407 5.11744 10.091C3.89504 9.79023 2.87744 9.19503 2.25984 8.04303C2.19919 7.95925 2.16308 7.86022 2.15555 7.75707C2.14802 7.65391 2.16938 7.55069 2.21722 7.45899C2.26507 7.36729 2.33751 7.29073 2.42643 7.23789C2.51534 7.18505 2.61722 7.15802 2.72064 7.15983C3.00224 7.12143 3.28064 7.05423 3.60064 6.99023L3.35744 6.84303C2.48939 6.35998 1.72757 5.70699 1.11744 4.92303C0.798611 4.50486 0.574044 4.02265 0.459153 3.50951C0.344261 2.99636 0.341766 2.46443 0.451837 1.95023C0.458711 1.87122 0.487364 1.79566 0.53461 1.73196C0.581857 1.66825 0.645846 1.6189 0.719462 1.58939C0.793079 1.55987 0.873438 1.55136 0.951606 1.56478C1.02977 1.57821 1.10269 1.61305 1.16224 1.66543C2.19513 2.46854 3.43682 2.95833 4.73984 3.07663C6.05504 3.23343 7.38624 3.30703 8.70784 3.43503C9.64081 3.48125 10.5502 3.7442 11.3638 4.20303C11.8321 4.48726 12.2182 4.88875 12.4838 5.36783L12.6342 5.45103C13.1622 5.39343 13.7542 5.03183 14.3494 4.07503C14.759 3.14063 15.2294 2.28303 15.6294 2.08463C15.9603 1.93823 16.299 1.81004 16.6438 1.70063C16.9316 1.84833 17.2021 2.02757 17.4502 2.23503C17.256 2.28403 17.0657 2.34713 16.8806 2.42383C15.5014 2.98703 16.0678 3.99823 16.0678 4.75023C16.0063 5.63194 15.8995 6.5099 15.7478 7.38063C15.2998 9.53743 17.0886 8.96463 17.0886 8.96463L17.6678 8.07823C18.0772 7.43659 18.5535 6.84019 19.0886 6.29903C19.1466 6.36485 19.2146 6.42102 19.2902 6.46543Z" fill="#1A193C"/>
<path opacity="0.31" d="M26.055 4.25665C25.0662 4.57665 23.5366 4.99265 21.175 5.53665C20.4963 5.72187 19.8582 6.03226 19.2934 6.45185V6.45185L19.2038 6.41025C19.1589 6.37333 19.1171 6.33265 19.079 6.28865L19.015 6.21505C18.8937 6.04035 18.8151 5.83955 18.7856 5.62888C18.7562 5.4182 18.7766 5.20355 18.8454 5.00225C19.1974 3.69985 18.0934 2.76225 17.463 2.22785C17.2071 2.03041 16.9315 1.85991 16.6406 1.71905L16.7206 1.69345C19.0054 0.935053 21.7638 0.602253 24.119 1.17825C23.9878 2.03905 24.0966 3.48225 26.055 4.25665Z" fill="#1A193C"/>
<path opacity="0.31" d="M17.0918 4.05265C17.4682 4.05265 17.7734 3.74749 17.7734 3.37105C17.7734 2.99462 17.4682 2.68945 17.0918 2.68945C16.7153 2.68945 16.4102 2.99462 16.4102 3.37105C16.4102 3.74749 16.7153 4.05265 17.0918 4.05265Z" fill="#1A193C"/>
<path opacity="0.31" d="M17.0919 3.7707C17.3128 3.7707 17.4919 3.59162 17.4919 3.3707C17.4919 3.14979 17.3128 2.9707 17.0919 2.9707C16.871 2.9707 16.6919 3.14979 16.6919 3.3707C16.6919 3.59162 16.871 3.7707 17.0919 3.7707Z" fill="#1A193C"/>
<path opacity="0.31" d="M8.83254 16.323L7.85654 16.1406H7.81494C8.10614 16.915 8.88694 17.923 9.79894 18.211C9.84694 18.0478 9.89814 17.891 9.94614 17.7566C10.0613 17.4366 10.1701 17.203 10.1957 17.1486C9.68038 16.9897 9.21216 16.7061 8.83254 16.323V16.323Z" fill="#1A193C"/>
</g>
<path d="M25.9239 4.13309C23.9687 3.35549 23.8599 1.89309 24.0039 1.05469C25.4535 1.36698 26.7569 2.15554 27.7063 3.29469C27.7063 3.29469 27.9847 3.47709 25.9239 4.13309Z" fill="#1A193C"/>
<path d="M18.9413 6.17142C18.4078 6.71407 17.9316 7.31029 17.5205 7.95062L16.9413 8.83702C16.9413 8.83702 15.1557 9.40022 15.6005 7.25622C15.7523 6.38444 15.8591 5.5054 15.9205 4.62262C15.9205 3.87062 15.3541 2.85942 16.7333 2.29622C16.9224 2.21893 17.1171 2.15582 17.3157 2.10742V2.10742C17.9557 2.62582 19.0501 3.58262 18.7013 4.88182C18.6315 5.08296 18.6104 5.2978 18.6399 5.50866C18.6694 5.71952 18.7486 5.92035 18.8709 6.09462C18.8925 6.12183 18.916 6.14749 18.9413 6.17142V6.17142Z" fill="#414042"/>
<path d="M18.9413 6.17142C18.4078 6.71407 17.9316 7.31029 17.5205 7.95062L16.9413 8.83702C16.9413 8.83702 15.1557 9.40022 15.6005 7.25622C15.7523 6.38444 15.8591 5.5054 15.9205 4.62262C15.9205 3.87062 15.3541 2.85942 16.7333 2.29622C16.9224 2.21893 17.1171 2.15582 17.3157 2.10742V2.10742C17.9557 2.62582 19.0501 3.58262 18.7013 4.88182C18.6315 5.08296 18.6104 5.2978 18.6399 5.50866C18.6694 5.71952 18.7486 5.92035 18.8709 6.09462C18.8925 6.12183 18.916 6.14749 18.9413 6.17142V6.17142Z" fill="white"/>
<path d="M8.7015 16.2001L7.7415 16.0177H7.6967L5.6807 15.6113C4.5703 16.2129 5.7831 18.0657 5.7831 18.0657L7.3383 17.6849L5.7543 18.5777C5.4823 19.2913 6.1511 19.7969 6.7143 20.0849C6.7527 21.3297 8.9543 21.1057 8.9543 21.1057L9.6295 18.3121V18.2737C9.6295 18.2513 9.6295 18.2289 9.6455 18.2065C9.6615 18.1841 9.6679 18.1233 9.6775 18.0849C9.7223 17.9217 9.7735 17.7649 9.8215 17.6305C9.9367 17.3105 10.0455 17.0801 10.0711 17.0225C9.55524 16.8621 9.08551 16.5801 8.7015 16.2001V16.2001ZM8.7655 16.2897L8.7079 16.2225L8.7655 16.2897Z" fill="#1A193C"/>
<path d="M19.1621 6.33681C18.5541 6.90961 17.6069 8.12561 16.4101 10.708C16.2437 11.0664 16.0709 11.4536 15.8949 11.8664C15.6684 12.3412 15.4097 12.7999 15.1205 13.2392C14.9422 13.5103 14.7499 13.772 14.5445 14.0232C13.3839 15.4433 11.8229 16.4813 10.0645 17.0024C9.54934 16.8481 9.07863 16.5726 8.69168 16.1992C9.71888 14.436 9.71248 13.844 10.2917 12.2664C9.65563 12.5416 8.97181 12.6895 8.27888 12.7016H8.20848C7.98157 12.7029 7.75485 12.688 7.53008 12.6568C6.45353 12.4917 5.44476 12.0283 4.61808 11.3192C4.52765 11.2669 4.45513 11.1885 4.41002 11.0943C4.36491 11.0001 4.34931 10.8944 4.36528 10.7912C4.42288 10.5544 4.61488 10.4712 4.83248 10.436C5.15248 10.3656 5.43728 10.2824 5.74128 10.2056C5.49627 10.1172 5.24487 10.0477 4.98928 9.99761C3.76048 9.68721 2.74608 9.07921 2.12848 7.94321C2.06424 7.85894 2.02523 7.75818 2.01597 7.65263C2.00671 7.54708 2.02759 7.44106 2.07617 7.3469C2.12476 7.25274 2.19907 7.1743 2.29046 7.12068C2.38185 7.06707 2.48658 7.04048 2.59248 7.04401C2.87088 7.00881 3.14928 6.93841 3.47248 6.87761L3.22608 6.73041C2.36089 6.25006 1.59954 5.60291 0.98608 4.82641C0.66393 4.40438 0.437521 3.91728 0.32258 3.39894C0.207639 2.8806 0.206922 2.34345 0.32048 1.82481C0.326195 1.7452 0.35418 1.66881 0.401239 1.60434C0.448299 1.53988 0.512536 1.48995 0.586616 1.46025C0.660697 1.43055 0.741636 1.42228 0.820192 1.43638C0.898748 1.45049 0.971756 1.4864 1.03088 1.54001C2.06503 2.34041 3.30621 2.82889 4.60848 2.94801C5.92688 3.10481 7.25488 3.17841 8.57968 3.30961C9.51157 3.35369 10.4201 3.61563 11.2325 4.07441C11.7017 4.35855 12.0888 4.75999 12.3557 5.23921L12.5029 5.32241C13.0405 5.26481 13.6229 4.91921 14.2181 3.95921C14.6277 3.02481 15.0981 2.16721 15.4981 1.96881C15.8289 1.82311 16.1675 1.69598 16.5125 1.58801C16.8005 1.73403 17.071 1.91223 17.3189 2.11921C17.1203 2.16761 16.9257 2.23071 16.7365 2.30801C15.3605 2.85841 15.9205 3.86961 15.9205 4.62161C15.8591 5.50439 15.7523 6.38342 15.6005 7.25521C15.1557 9.40881 16.9413 8.83601 16.9413 8.83601L17.5205 7.94961C17.9327 7.31001 18.4087 6.71389 18.9413 6.17041C19.0037 6.23933 19.0786 6.29579 19.1621 6.33681V6.33681Z" fill="#1A193C"/>
<path d="M25.9238 4.13222C24.935 4.45222 23.4054 4.86502 21.0438 5.41222C20.3666 5.60146 19.7292 5.91151 19.1622 6.32742V6.32742L19.0726 6.28582C19.0278 6.24761 18.9861 6.20587 18.9478 6.16102C18.926 6.13781 18.9057 6.11323 18.887 6.08742C18.7647 5.91315 18.6856 5.71232 18.6561 5.50146C18.6266 5.2906 18.6476 5.07576 18.7174 4.87462C19.0662 3.57542 17.9622 2.63462 17.3318 2.10022C17.079 1.89685 16.8068 1.71892 16.519 1.56902L16.6022 1.54342C18.8742 0.81062 21.6326 0.47462 23.991 1.05382C23.8598 1.90502 23.9686 3.35462 25.9238 4.13222Z" fill="url(#paint0_linear)"/>
<path d="M16.9604 3.92375C17.3368 3.92375 17.642 3.61858 17.642 3.24215C17.642 2.86571 17.3368 2.56055 16.9604 2.56055C16.584 2.56055 16.2788 2.86571 16.2788 3.24215C16.2788 3.61858 16.584 3.92375 16.9604 3.92375Z" fill="#FFD500"/>
<path d="M16.9605 3.6418C17.1815 3.6418 17.3605 3.46271 17.3605 3.2418C17.3605 3.02088 17.1815 2.8418 16.9605 2.8418C16.7396 2.8418 16.5605 3.02088 16.5605 3.2418C16.5605 3.46271 16.7396 3.6418 16.9605 3.6418Z" fill="#1A193C"/>
<path d="M8.70109 16.2L7.74109 16.0176H7.69629C7.99069 16.7952 8.76829 17.8032 9.68029 18.088C9.72509 17.9248 9.77629 17.768 9.82429 17.6336C9.93949 17.3136 10.0483 17.0832 10.0739 17.0256C9.55657 16.8647 9.08567 16.5815 8.70109 16.2V16.2Z" fill="#FFD500"/>
</g>
<defs>
<linearGradient id="paint0_linear" x1="16.5259" y1="3.57855" x2="25.9176" y2="3.49823" gradientUnits="userSpaceOnUse">
<stop stop-color="#FFD500"/>
<stop offset="1" stop-color="#FF9200"/>
</linearGradient>
<clipPath id="clip0">
<rect width="27.5968" height="20.4896" fill="white" transform="translate(0.240234 0.759766)"/>
</clipPath>
</defs>
</svg>
