<svg width="324" height="296" viewBox="0 0 324 296" fill="none" xmlns="http://www.w3.org/2000/svg">
<path d="M310.716 247.981H41.7311C39.3391 247.981 37.045 247.031 35.3536 245.34C33.6621 243.649 32.7119 241.355 32.7119 238.964C130.219 227.634 225.893 227.634 319.735 238.964C319.735 241.355 318.785 243.649 317.093 245.34C315.402 247.031 313.108 247.981 310.716 247.981Z" fill="#D0D0D8"/>
<path d="M319.735 239.495L32.7119 238.965L65.9769 183.007L66.136 182.742V59.4161C66.1359 57.9192 66.4307 56.4369 67.0036 55.0539C67.5766 53.6709 68.4164 52.4143 69.4751 51.3558C70.5338 50.2974 71.7908 49.4578 73.1741 48.885C74.5574 48.3122 76.0401 48.0175 77.5373 48.0176H273.318C274.815 48.0175 276.298 48.3122 277.681 48.885C279.064 49.4578 280.321 50.2974 281.38 51.3558C282.439 52.4143 283.279 53.6709 283.851 55.0539C284.424 56.4369 284.719 57.9192 284.719 59.4161V183.59L319.735 239.495Z" fill="#EBEBEE"/>
<path d="M77.2773 55.9746C76.2926 55.9757 75.3487 56.3672 74.6524 57.0633C73.9562 57.7594 73.5646 58.7031 73.5635 59.6875V172.134C73.5646 173.119 73.9563 174.062 74.6525 174.758C75.3487 175.455 76.2927 175.846 77.2773 175.847H275.169C276.154 175.846 277.098 175.454 277.794 174.758C278.49 174.062 278.882 173.119 278.883 172.134V59.6875C278.882 58.7031 278.49 57.7594 277.794 57.0633C277.098 56.3673 276.154 55.9758 275.169 55.9746H77.2773Z" fill="#F7F7FB"/>
<path d="M78.5781 190.697C78.2738 190.698 77.976 190.785 77.7198 190.949C77.4636 191.113 77.2597 191.347 77.132 191.623L66.8821 213.901C66.7705 214.143 66.7217 214.41 66.7401 214.676C66.7586 214.942 66.8438 215.199 66.9877 215.424C67.1317 215.649 67.3299 215.834 67.5641 215.962C67.7983 216.09 68.0609 216.157 68.3279 216.157H283.879C284.15 216.157 284.417 216.088 284.654 215.955C284.891 215.823 285.09 215.633 285.233 215.402C285.376 215.171 285.457 214.908 285.469 214.637C285.481 214.366 285.424 214.097 285.302 213.854L274.161 191.577C274.03 191.312 273.827 191.089 273.575 190.934C273.324 190.778 273.033 190.696 272.738 190.697L78.5781 190.697Z" fill="#D0D0D8"/>
<path d="M175.427 54.1174C176.746 54.1174 177.815 53.0488 177.815 51.7306C177.815 50.4124 176.746 49.3438 175.427 49.3438C174.109 49.3438 173.04 50.4124 173.04 51.7306C173.04 53.0488 174.109 54.1174 175.427 54.1174Z" fill="#F7F7FB"/>
<path d="M154.241 220.4C153.891 220.401 153.551 220.516 153.273 220.729C152.995 220.942 152.795 221.24 152.704 221.578L150.133 231.125C150.069 231.361 150.061 231.608 150.108 231.848C150.156 232.087 150.258 232.313 150.406 232.507C150.555 232.701 150.746 232.858 150.965 232.966C151.184 233.074 151.425 233.13 151.67 233.13H200.566C200.82 233.13 201.07 233.07 201.296 232.953C201.521 232.837 201.715 232.669 201.863 232.462C202.01 232.255 202.105 232.016 202.141 231.765C202.177 231.514 202.153 231.258 202.07 231.018L198.764 221.471C198.656 221.158 198.453 220.887 198.183 220.696C197.914 220.504 197.591 220.401 197.26 220.4H154.241Z" fill="#D0D0D8"/>
<path d="M284.72 180.885V183.007H65.9775L66.142 182.741V180.885H284.72Z" fill="#D0D0D8"/>
<path d="M257.72 185.744C257.635 185.744 257.552 185.772 257.484 185.824C257.416 185.876 257.368 185.949 257.345 186.031L256.719 188.356C256.704 188.413 256.702 188.473 256.713 188.532C256.725 188.59 256.75 188.645 256.786 188.692C256.822 188.739 256.869 188.778 256.922 188.804C256.975 188.83 257.034 188.844 257.094 188.844H269.001C269.062 188.844 269.123 188.829 269.178 188.801C269.233 188.773 269.281 188.732 269.316 188.681C269.352 188.631 269.375 188.573 269.384 188.512C269.393 188.451 269.387 188.388 269.367 188.33L268.562 186.005C268.535 185.929 268.486 185.863 268.42 185.816C268.355 185.769 268.276 185.744 268.196 185.744H257.72Z" fill="#D0D0D8"/>
<path d="M240.334 185.744C240.249 185.744 240.166 185.772 240.098 185.824C240.031 185.876 239.982 185.949 239.96 186.031L239.334 188.356C239.318 188.413 239.316 188.473 239.328 188.532C239.339 188.59 239.364 188.645 239.4 188.692C239.436 188.739 239.483 188.778 239.536 188.804C239.59 188.83 239.648 188.844 239.708 188.844H251.615C251.677 188.844 251.738 188.829 251.792 188.801C251.847 188.773 251.895 188.732 251.931 188.681C251.966 188.631 251.99 188.573 251.998 188.512C252.007 188.451 252.001 188.388 251.981 188.33L251.176 186.005C251.15 185.929 251.1 185.863 251.035 185.816C250.969 185.769 250.89 185.744 250.81 185.744H240.334Z" fill="#D0D0D8"/>
<g clip-path="url(#clip0)">
<g opacity="0.31">
<path opacity="0.31" d="M202.338 99.3532C188.213 93.7659 187.428 83.1916 188.49 77.1426C198.947 79.3924 208.348 85.0825 215.193 93.3042C215.193 93.3042 217.178 94.6433 202.338 99.3532Z" fill="#1A193C"/>
<path opacity="0.31" d="M151.979 114.083C148.119 117.988 144.684 122.291 141.731 126.92L137.531 133.316C137.531 133.316 124.629 137.449 127.884 121.887C128.978 115.605 129.748 109.27 130.192 102.909C130.238 97.4832 126.153 90.2798 136.169 86.1239C137.534 85.5662 138.938 85.1109 140.37 84.7617C144.986 88.502 152.879 95.3822 150.34 104.779C149.844 106.231 149.696 107.78 149.909 109.3C150.121 110.82 150.688 112.269 151.563 113.529L151.979 114.083Z" fill="#1A193C"/>
<path opacity="0.31" d="M151.979 114.083C148.119 117.988 144.684 122.291 141.731 126.92L137.531 133.316C137.531 133.316 124.629 137.449 127.884 121.887C128.978 115.605 129.748 109.27 130.192 102.909C130.238 97.4832 126.153 90.2798 136.169 86.1239C137.534 85.5662 138.938 85.1109 140.37 84.7617C144.986 88.502 152.879 95.3822 150.34 104.779C149.844 106.231 149.696 107.78 149.909 109.3C150.121 110.82 150.688 112.269 151.563 113.529L151.979 114.083Z" fill="#1A193C"/>
<path opacity="0.31" d="M78.124 186.418L71.0848 185.102H70.7847L56.2447 182.193C48.2361 186.534 56.9832 199.902 56.9832 199.902L68.1998 197.154L56.6601 203.596C54.7214 208.745 59.522 212.369 63.5839 214.447C63.8609 223.429 79.7396 221.835 79.7396 221.835L84.6093 201.68C84.5881 201.581 84.5881 201.478 84.6093 201.379C84.6396 201.224 84.6781 201.069 84.7247 200.918C84.7247 200.618 84.8863 200.317 84.9555 200.04C85.3017 198.863 85.671 197.732 86.0172 196.762C86.848 194.453 87.6327 192.768 87.8174 192.375C84.15 191.208 80.8227 189.163 78.124 186.418ZM78.5856 187.065C78.4297 186.919 78.2904 186.756 78.1702 186.58L78.5856 187.065Z" fill="#1A193C"/>
<path opacity="0.31" d="M153.548 115.284C149.186 119.393 142.354 128.19 133.723 146.822C132.499 149.408 131.276 152.178 130.007 155.18C128.402 158.535 126.567 161.775 124.514 164.877C123.228 166.846 121.833 168.742 120.336 170.556C111.977 180.81 100.714 188.295 88.0252 192.028C84.2995 190.938 80.8992 188.948 78.1241 186.233C85.5326 173.535 85.4865 169.263 89.6638 157.881C85.073 159.856 80.1432 160.922 75.1469 161.021H74.6391C73.0031 161.039 71.3679 160.939 69.7463 160.721C61.9442 159.512 54.6409 156.127 48.6747 150.955C47.4284 149.939 46.3668 148.854 46.8515 147.168C47.3361 145.483 48.6517 144.859 50.198 144.605C52.5059 144.098 54.5831 143.497 56.7756 142.943C55.0017 142.302 53.1806 141.8 51.3289 141.442C42.5125 139.272 35.1733 134.978 30.7189 126.666C30.2815 126.062 30.021 125.347 29.9668 124.603C29.9125 123.859 30.0665 123.114 30.4116 122.452C30.7566 121.791 31.2791 121.238 31.9204 120.857C32.5617 120.476 33.2965 120.281 34.0424 120.294C36.0733 120.017 38.0813 119.532 40.3892 119.07L38.6352 118.008C32.3745 114.523 26.88 109.812 22.4796 104.155C20.1801 101.138 18.5604 97.659 17.7318 93.9567C16.9032 90.2544 16.8852 86.4165 17.679 82.7065C17.7286 82.1364 17.9353 81.5913 18.276 81.1317C18.6168 80.672 19.0783 80.316 19.6092 80.103C20.1402 79.8901 20.7198 79.8286 21.2835 79.9255C21.8473 80.0224 22.3732 80.2737 22.8027 80.6517C30.2522 86.4462 39.2077 89.98 48.6055 90.8335C58.0911 91.9648 67.6922 92.4958 77.224 93.4194C83.9529 93.7528 90.5116 95.65 96.38 98.9605C99.7575 101.011 102.542 103.908 104.458 107.365L105.543 107.965C109.351 107.549 113.62 104.94 117.913 98.037C120.867 91.2953 124.26 85.1077 127.145 83.6762C129.531 82.6199 131.974 81.695 134.461 80.9057C136.537 81.9713 138.487 83.2645 140.277 84.7614C138.876 85.1149 137.503 85.5702 136.169 86.1236C126.222 90.187 130.307 97.4828 130.307 102.909C129.863 109.27 129.093 115.605 127.999 121.887C124.768 137.448 137.669 133.315 137.669 133.315L141.846 126.92C144.799 122.291 148.234 117.988 152.094 114.083C152.512 114.558 153.002 114.963 153.548 115.284Z" fill="#1A193C"/>
<path opacity="0.31" d="M202.337 99.3531C195.206 101.662 184.174 104.663 167.141 108.588C162.246 109.925 157.643 112.164 153.57 115.192L152.924 114.891C152.6 114.625 152.299 114.331 152.024 114.014L151.562 113.483C150.687 112.222 150.12 110.774 149.908 109.254C149.695 107.734 149.843 106.185 150.339 104.733C152.878 95.3358 144.916 88.571 140.369 84.7153C138.523 83.2908 136.536 82.0606 134.438 81.0444L135.014 80.8596C151.493 75.3878 171.388 72.9866 188.374 77.1425C187.428 83.3532 188.213 93.7658 202.337 99.3531Z" fill="#1A193C"/>
<path opacity="0.31" d="M137.692 97.8765C140.407 97.8765 142.608 95.6748 142.608 92.9588C142.608 90.2428 140.407 88.041 137.692 88.041C134.977 88.041 132.776 90.2428 132.776 92.9588C132.776 95.6748 134.977 97.8765 137.692 97.8765Z" fill="#1A193C"/>
<path opacity="0.31" d="M137.693 95.8443C139.286 95.8443 140.577 94.5522 140.577 92.9583C140.577 91.3644 139.286 90.0723 137.693 90.0723C136.099 90.0723 134.808 91.3644 134.808 92.9583C134.808 94.5522 136.099 95.8443 137.693 95.8443Z" fill="#1A193C"/>
<path opacity="0.31" d="M78.1701 186.58H78.0547C78.0927 186.572 78.132 186.572 78.1701 186.58Z" fill="#1A193C"/>
<path opacity="0.31" d="M78.1244 186.418L71.0852 185.102H70.7852C72.8854 190.689 78.5168 197.962 85.0944 200.04C85.4406 198.862 85.8099 197.731 86.1561 196.761C86.9869 194.452 87.7716 192.767 87.9563 192.374C84.2393 191.228 80.8623 189.182 78.1244 186.418Z" fill="#1A193C"/>
</g>
<path d="M201.391 98.4528C187.289 92.8425 186.505 82.2912 187.543 76.2422C197.998 78.4954 207.399 84.1849 214.246 92.4038C214.246 92.4038 216.254 93.7198 201.391 98.4528Z" fill="#1A193C"/>
<path d="M151.032 113.16C147.184 117.075 143.75 121.377 140.785 125.997L136.607 132.392C136.607 132.392 123.729 136.455 126.937 120.986C128.032 114.697 128.803 108.354 129.245 101.985C129.245 96.5594 125.16 89.2636 135.107 85.2001C136.472 84.6424 137.876 84.1871 139.308 83.8379C143.924 87.5781 151.817 94.4815 149.301 103.855C148.798 105.306 148.646 106.856 148.859 108.378C149.071 109.899 149.642 111.348 150.524 112.606C150.68 112.802 150.85 112.987 151.032 113.16Z" fill="#414042"/>
<path d="M151.032 113.16C147.184 117.075 143.75 121.377 140.785 125.997L136.607 132.392C136.607 132.392 123.729 136.455 126.937 120.986C128.032 114.697 128.803 108.354 129.245 101.985C129.245 96.5594 125.16 89.2636 135.107 85.2001C136.472 84.6424 137.876 84.1871 139.308 83.8379C143.924 87.5781 151.817 94.4815 149.301 103.855C148.798 105.306 148.646 106.856 148.859 108.378C149.071 109.899 149.642 111.348 150.524 112.606C150.68 112.802 150.85 112.987 151.032 113.16Z" fill="white"/>
<path d="M77.1772 185.518L70.2533 184.202H69.9302L55.3902 181.27C47.3816 185.61 56.1287 198.978 56.1287 198.978L67.3453 196.231L55.921 202.672C53.9593 207.821 58.7829 211.469 62.8448 213.547C63.1218 222.528 79.0005 220.912 79.0005 220.912L83.8702 200.756V200.479C83.8702 200.317 83.8702 200.156 83.9856 199.994C84.101 199.832 84.1472 199.394 84.2164 199.117C84.5395 197.939 84.9088 196.808 85.255 195.838C86.0859 193.529 86.8706 191.867 87.0552 191.451C83.3347 190.294 79.9468 188.259 77.1772 185.518ZM77.6388 186.164L77.2233 185.679L77.6388 186.164Z" fill="#1A193C"/>
<path d="M152.624 114.362C148.239 118.495 141.408 127.268 132.776 145.9C131.576 148.486 130.33 151.28 129.06 154.258C127.427 157.683 125.561 160.993 123.475 164.163C122.189 166.119 120.803 168.007 119.321 169.819C110.95 180.065 99.6918 187.555 87.0095 191.314C83.2941 190.201 79.8992 188.214 77.1084 185.519C84.5169 172.798 84.4707 168.526 88.6481 157.144C84.0607 159.13 79.1287 160.196 74.1311 160.284H73.6234C71.9868 160.294 70.3516 160.186 68.7305 159.961C60.9661 158.769 53.6905 155.426 47.7282 150.31C47.076 149.933 46.553 149.367 46.2276 148.687C45.9023 148.007 45.7898 147.245 45.905 146.5C46.3204 144.792 47.7051 144.192 49.2746 143.938C51.5825 143.43 53.6366 142.829 55.8291 142.275C54.062 141.638 52.2489 141.136 50.4054 140.775C41.5429 138.535 34.2267 134.148 29.7724 125.952C29.3091 125.344 29.0277 124.617 28.9609 123.856C28.8942 123.094 29.0447 122.329 29.3952 121.65C29.7456 120.97 30.2815 120.404 30.9407 120.018C31.5998 119.631 32.3552 119.439 33.1189 119.464C35.1268 119.21 37.1348 118.702 39.4658 118.264L37.6887 117.202C31.4486 113.736 25.9575 109.067 21.533 103.464C19.2096 100.419 17.5767 96.905 16.7477 93.1652C15.9187 89.4254 15.9135 85.5498 16.7325 81.8078C16.7737 81.2335 16.9756 80.6823 17.315 80.2172C17.6544 79.7521 18.1177 79.3918 18.652 79.1775C19.1863 78.9633 19.77 78.9036 20.3366 79.0054C20.9032 79.1071 21.4297 79.3662 21.8562 79.753C29.3148 85.5279 38.2666 89.0523 47.659 89.9117C57.1677 91.043 66.7457 91.5741 76.3006 92.5207C83.0217 92.8387 89.5746 94.7286 95.4335 98.0387C98.8174 100.089 101.609 102.985 103.534 106.443L104.596 107.043C108.473 106.627 112.674 104.134 116.967 97.2075C119.921 90.4658 123.313 84.2782 126.198 82.8468C128.584 81.7956 131.027 80.8783 133.515 80.0993C135.592 81.1529 137.543 82.4386 139.331 83.9319C137.899 84.2811 136.495 84.7364 135.13 85.2941C125.206 89.2653 129.245 96.5611 129.245 101.987C128.802 108.356 128.032 114.698 126.937 120.988C123.729 136.526 136.607 132.394 136.607 132.394L140.785 125.998C143.758 121.384 147.191 117.083 151.032 113.161C151.482 113.659 152.022 114.066 152.624 114.362Z" fill="#1A193C"/>
<path d="M201.391 98.4534C194.26 100.762 183.228 103.741 166.195 107.689C161.311 109.054 156.713 111.291 152.624 114.292L151.978 113.992C151.654 113.716 151.353 113.415 151.078 113.091C150.92 112.924 150.774 112.746 150.639 112.56C149.757 111.303 149.186 109.854 148.974 108.332C148.761 106.811 148.913 105.261 149.416 103.81C151.932 94.436 143.969 87.6482 139.423 83.7925C137.599 82.3251 135.636 81.0414 133.561 79.9599L134.161 79.7752C150.547 74.488 170.442 72.0638 187.451 76.2427C186.505 82.3841 187.29 92.843 201.391 98.4534Z" fill="url(#paint0_linear)"/>
<path d="M136.746 96.9527C139.461 96.9527 141.662 94.7509 141.662 92.0349C141.662 89.3189 139.461 87.1172 136.746 87.1172C134.031 87.1172 131.83 89.3189 131.83 92.0349C131.83 94.7509 134.031 96.9527 136.746 96.9527Z" fill="#FFD500"/>
<path d="M136.745 94.9204C138.339 94.9204 139.63 93.6283 139.63 92.0344C139.63 90.4405 138.339 89.1484 136.745 89.1484C135.152 89.1484 133.86 90.4405 133.86 92.0344C133.86 93.6283 135.152 94.9204 136.745 94.9204Z" fill="#1A193C"/>
<path d="M77.1776 185.517L70.2538 184.201H69.9307C72.054 189.812 77.6623 197.084 84.2399 199.139C84.563 197.962 84.9323 196.83 85.2785 195.861C86.1094 193.552 86.8941 191.889 87.0787 191.474C83.3477 190.313 79.9513 188.27 77.1776 185.517Z" fill="#FFD500"/>
</g>
<defs>
<linearGradient id="paint0_linear" x1="133.61" y1="94.4586" x2="201.346" y2="93.8796" gradientUnits="userSpaceOnUse">
<stop stop-color="#FFD500"/>
<stop offset="1" stop-color="#FF9200"/>
</linearGradient>
<clipPath id="clip0">
<rect width="199.037" height="147.832" fill="white" transform="translate(16.1553 74.1191)"/>
</clipPath>
</defs>
</svg>